<ttFont>
<head>
    <!-- Most of this table will be recalculated by the compiler -->
    <tableVersion value="1.0"/>
    <fontRevision value="1.301"/>
    <checkSumAdjustment value="0x5187a764"/>
    <magicNumber value="0x5f0f3cf5"/>
    <flags value="00000000 00001011"/>
    <unitsPerEm value="1000"/>
    <created value="Thu Dec  2 04:38:16 2010"/>
    <modified value="Thu Mar  6 17:43:24 2014"/>
    <xMin value="-216"/>
    <yMin value="-318"/>
    <xMax value="1498"/>
    <yMax value="1101"/>
    <macStyle value="00000000 00000000"/>
    <lowestRecPPEM value="9"/>
    <fontDirectionHint value="2"/>
    <indexToLocFormat value="0"/>
    <glyphDataFormat value="0"/>
  </head>
    <TTGlyph name=".notdef" xMin="0" yMin="-200" xMax="500" yMax="800">
      <contour>
        <pt x="0" y="800" on="1"/>
        <pt x="500" y="800" on="1"/>
        <pt x="500" y="-200" on="1"/>
        <pt x="0" y="-200" on="1"/>
      </contour>
      <contour>
        <pt x="250" y="360" on="1"/>
        <pt x="429" y="750" on="1"/>
        <pt x="71" y="750" on="1"/>
      </contour>
      <contour>
        <pt x="222" y="300" on="1"/>
        <pt x="50" y="676" on="1"/>
        <pt x="50" y="-76" on="1"/>
      </contour>
      <contour>
        <pt x="278" y="300" on="1"/>
        <pt x="450" y="-76" on="1"/>
        <pt x="450" y="676" on="1"/>
      </contour>
      <contour>
        <pt x="71" y="-150" on="1"/>
        <pt x="429" y="-150" on="1"/>
        <pt x="250" y="240" on="1"/>
      </contour>
    </TTGlyph>
    <TTGlyph name=".notdef#1" xMin="21" yMin="-6" xMax="302" yMax="690">
      <contour>
        <pt x="229" y="619" on="1"/>
        <pt x="229" y="590" on="0"/>
        <pt x="187" y="547" on="0"/>
        <pt x="158" y="547" on="1"/>
        <pt x="129" y="547" on="0"/>
        <pt x="86" y="590" on="0"/>
        <pt x="86" y="619" on="1"/>
        <pt x="86" y="648" on="0"/>
        <pt x="129" y="690" on="0"/>
        <pt x="158" y="690" on="1"/>
        <pt x="187" y="690" on="0"/>
        <pt x="229" y="648" on="0"/>
      </contour>
      <contour>
        <pt x="302" y="13" on="1"/>
        <pt x="302" y="7" on="0"/>
        <pt x="297" y="-6" on="0"/>
        <pt x="294" y="-6" on="1"/>
        <pt x="262" y="-6" on="0"/>
        <pt x="194" y="0" on="0"/>
        <pt x="158" y="0" on="1"/>
        <pt x="122" y="0" on="0"/>
        <pt x="61" y="-6" on="0"/>
        <pt x="29" y="-6" on="1"/>
        <pt x="25" y="-6" on="0"/>
        <pt x="21" y="7" on="0"/>
        <pt x="21" y="13" on="1"/>
        <pt x="21" y="18" on="0"/>
        <pt x="25" y="30" on="0"/>
        <pt x="29" y="31" on="1"/>
        <pt x="49" y="33" on="0"/>
        <pt x="75" y="42" on="0"/>
        <pt x="90" y="60" on="0"/>
        <pt x="96" y="91" on="0"/>
        <pt x="96" y="115" on="1"/>
        <pt x="96" y="282" on="1"/>
        <pt x="96" y="322" on="0"/>
        <pt x="70" y="347" on="0"/>
        <pt x="35" y="351" on="1"/>
        <pt x="31" y="351" on="0"/>
        <pt x="27" y="363" on="0"/>
        <pt x="27" y="368" on="1"/>
        <pt x="27" y="373" on="0"/>
        <pt x="31" y="384" on="0"/>
        <pt x="35" y="384" on="1"/>
        <pt x="56" y="389" on="0"/>
        <pt x="101" y="403" on="0"/>
        <pt x="145" y="419" on="0"/>
        <pt x="183" y="437" on="0"/>
        <pt x="198" y="446" on="1"/>
        <pt x="201" y="448" on="0"/>
        <pt x="210" y="454" on="0"/>
        <pt x="216" y="454" on="1"/>
        <pt x="234" y="454" on="0"/>
        <pt x="234" y="443" on="1"/>
        <pt x="233" y="428" on="0"/>
        <pt x="230" y="385" on="0"/>
        <pt x="228" y="338" on="0"/>
        <pt x="226" y="291" on="0"/>
        <pt x="226" y="272" on="1"/>
        <pt x="226" y="115" on="1"/>
        <pt x="226" y="91" on="0"/>
        <pt x="232" y="60" on="0"/>
        <pt x="247" y="42" on="0"/>
        <pt x="274" y="33" on="0"/>
        <pt x="294" y="31" on="1"/>
        <pt x="297" y="30" on="0"/>
        <pt x="302" y="18" on="0"/>
      </contour>
    </TTGlyph>
    <TTGlyph name="A" xMin="2" yMin="-5" xMax="763" yMax="706">
      <contour>
        <pt x="763" y="13" on="1"/>
        <pt x="763" y="7" on="0"/>
        <pt x="758" y="-5" on="0"/>
        <pt x="755" y="-5" on="1"/>
        <pt x="730" y="-5" on="0"/>
        <pt x="688" y="-3" on="0"/>
        <pt x="649" y="-2" on="0"/>
        <pt x="611" y="0" on="0"/>
        <pt x="590" y="0" on="1"/>
        <pt x="543" y="0" on="0"/>
        <pt x="461" y="-5" on="0"/>
        <pt x="411" y="-5" on="1"/>
        <pt x="408" y="-5" on="0"/>
        <pt x="403" y="7" on="0"/>
        <pt x="403" y="13" on="1"/>
        <pt x="403" y="18" on="0"/>
        <pt x="406" y="30" on="0"/>
        <pt x="409" y="31" on="1"/>
        <pt x="458" y="33" on="0"/>
        <pt x="491" y="54" on="0"/>
        <pt x="491" y="73" on="1"/>
        <pt x="491" y="82" on="0"/>
        <pt x="485" y="103" on="0"/>
        <pt x="481" y="115" on="1"/>
        <pt x="438" y="233" on="1"/>
        <pt x="230" y="233" on="1"/>
        <pt x="190" y="127" on="1"/>
        <pt x="185" y="114" on="0"/>
        <pt x="178" y="90" on="0"/>
        <pt x="178" y="79" on="1"/>
        <pt x="178" y="59" on="0"/>
        <pt x="209" y="33" on="0"/>
        <pt x="256" y="31" on="1"/>
        <pt x="259" y="30" on="0"/>
        <pt x="262" y="18" on="0"/>
        <pt x="262" y="13" on="1"/>
        <pt x="262" y="7" on="0"/>
        <pt x="257" y="-5" on="0"/>
        <pt x="254" y="-5" on="1"/>
        <pt x="232" y="-5" on="0"/>
        <pt x="201" y="-3" on="0"/>
        <pt x="174" y="-2" on="0"/>
        <pt x="145" y="0" on="0"/>
        <pt x="124" y="0" on="1"/>
        <pt x="107" y="0" on="0"/>
        <pt x="81" y="-2" on="0"/>
        <pt x="55" y="-3" on="0"/>
        <pt x="28" y="-5" on="0"/>
        <pt x="10" y="-5" on="1"/>
        <pt x="6" y="-5" on="0"/>
        <pt x="2" y="7" on="0"/>
        <pt x="3" y="13" on="1"/>
        <pt x="3" y="18" on="0"/>
        <pt x="11" y="30" on="0"/>
        <pt x="14" y="31" on="1"/>
        <pt x="38" y="33" on="0"/>
        <pt x="72" y="47" on="0"/>
        <pt x="98" y="71" on="0"/>
        <pt x="119" y="107" on="0"/>
        <pt x="130" y="131" on="1"/>
        <pt x="371" y="698" on="1"/>
        <pt x="373" y="701" on="0"/>
        <pt x="385" y="706" on="0"/>
        <pt x="393" y="706" on="1"/>
        <pt x="401" y="706" on="0"/>
        <pt x="414" y="701" on="0"/>
        <pt x="415" y="698" on="1"/>
        <pt x="630" y="131" on="1"/>
        <pt x="638" y="108" on="0"/>
        <pt x="658" y="73" on="0"/>
        <pt x="686" y="49" on="0"/>
        <pt x="725" y="34" on="0"/>
        <pt x="753" y="31" on="1"/>
        <pt x="756" y="30" on="0"/>
        <pt x="763" y="18" on="0"/>
      </contour>
      <contour>
        <pt x="337" y="511" on="1"/>
        <pt x="246" y="273" on="1"/>
        <pt x="423" y="273" on="1"/>
      </contour>
    </TTGlyph>
    <TTGlyph name="A.sc" xMin="-11" yMin="-5" xMax="528" yMax="482">
      <component glyphName="a.sc" x="0" y="0" flags="0x204"/>
    </TTGlyph>
    <TTGlyph name="AE" xMin="-1" yMin="-5" xMax="1058" yMax="690">
      <contour>
        <pt x="1057" y="194" on="1"/>
        <pt x="1044" y="149" on="0"/>
        <pt x="1021" y="42" on="0"/>
        <pt x="1012" y="-5" on="1"/>
        <pt x="988" y="-4" on="0"/>
        <pt x="910" y="-3" on="0"/>
        <pt x="826" y="-1" on="0"/>
        <pt x="747" y="0" on="0"/>
        <pt x="722" y="0" on="1"/>
        <pt x="697" y="0" on="0"/>
        <pt x="616" y="-1" on="0"/>
        <pt x="529" y="-3" on="0"/>
        <pt x="449" y="-4" on="0"/>
        <pt x="425" y="-5" on="1"/>
        <pt x="422" y="-5" on="0"/>
        <pt x="417" y="7" on="0"/>
        <pt x="417" y="13" on="1"/>
        <pt x="417" y="18" on="0"/>
        <pt x="422" y="30" on="0"/>
        <pt x="425" y="31" on="1"/>
        <pt x="457" y="34" on="0"/>
        <pt x="497" y="47" on="0"/>
        <pt x="518" y="66" on="0"/>
        <pt x="525" y="95" on="0"/>
        <pt x="525" y="115" on="1"/>
        <pt x="525" y="249" on="1"/>
        <pt x="298" y="249" on="1"/>
        <pt x="221" y="129" on="1"/>
        <pt x="207" y="107" on="0"/>
        <pt x="194" y="78" on="0"/>
        <pt x="194" y="67" on="1"/>
        <pt x="194" y="51" on="0"/>
        <pt x="227" y="33" on="0"/>
        <pt x="265" y="31" on="1"/>
        <pt x="268" y="30" on="0"/>
        <pt x="271" y="18" on="0"/>
        <pt x="271" y="13" on="1"/>
        <pt x="271" y="7" on="0"/>
        <pt x="266" y="-5" on="0"/>
        <pt x="263" y="-5" on="1"/>
        <pt x="241" y="-5" on="0"/>
        <pt x="208" y="-3" on="0"/>
        <pt x="177" y="-2" on="0"/>
        <pt x="146" y="0" on="0"/>
        <pt x="125" y="0" on="1"/>
        <pt x="108" y="0" on="0"/>
        <pt x="80" y="-2" on="0"/>
        <pt x="53" y="-3" on="0"/>
        <pt x="24" y="-5" on="0"/>
        <pt x="6" y="-5" on="1"/>
        <pt x="3" y="-5" on="0"/>
        <pt x="-1" y="7" on="0"/>
        <pt x="-1" y="13" on="1"/>
        <pt x="0" y="18" on="0"/>
        <pt x="7" y="30" on="0"/>
        <pt x="11" y="31" on="1"/>
        <pt x="35" y="33" on="0"/>
        <pt x="73" y="47" on="0"/>
        <pt x="105" y="71" on="0"/>
        <pt x="136" y="107" on="0"/>
        <pt x="153" y="131" on="1"/>
        <pt x="445" y="559" on="1"/>
        <pt x="471" y="597" on="0"/>
        <pt x="441" y="651" on="0"/>
        <pt x="372" y="654" on="1"/>
        <pt x="369" y="654" on="0"/>
        <pt x="365" y="666" on="0"/>
        <pt x="365" y="672" on="1"/>
        <pt x="365" y="678" on="0"/>
        <pt x="370" y="690" on="0"/>
        <pt x="373" y="690" on="1"/>
        <pt x="396" y="690" on="0"/>
        <pt x="480" y="688" on="0"/>
        <pt x="572" y="686" on="0"/>
        <pt x="655" y="685" on="0"/>
        <pt x="678" y="685" on="1"/>
        <pt x="703" y="685" on="0"/>
        <pt x="792" y="686" on="0"/>
        <pt x="887" y="687" on="0"/>
        <pt x="974" y="689" on="0"/>
        <pt x="998" y="690" on="1"/>
        <pt x="1000" y="648" on="0"/>
        <pt x="1011" y="547" on="0"/>
        <pt x="1018" y="503" on="1"/>
        <pt x="1019" y="498" on="0"/>
        <pt x="1005" y="490" on="0"/>
        <pt x="995" y="490" on="1"/>
        <pt x="982" y="490" on="0"/>
        <pt x="982" y="497" on="1"/>
        <pt x="967" y="564" on="0"/>
        <pt x="878" y="644" on="0"/>
        <pt x="813" y="644" on="1"/>
        <pt x="733" y="644" on="1"/>
        <pt x="723" y="644" on="0"/>
        <pt x="703" y="639" on="0"/>
        <pt x="686" y="626" on="0"/>
        <pt x="675" y="602" on="0"/>
        <pt x="675" y="584" on="1"/>
        <pt x="675" y="370" on="1"/>
        <pt x="755" y="370" on="1"/>
        <pt x="800" y="370" on="0"/>
        <pt x="852" y="416" on="0"/>
        <pt x="859" y="477" on="1"/>
        <pt x="860" y="481" on="0"/>
        <pt x="872" y="485" on="0"/>
        <pt x="878" y="485" on="1"/>
        <pt x="883" y="485" on="0"/>
        <pt x="896" y="481" on="0"/>
        <pt x="896" y="477" on="1"/>
        <pt x="896" y="458" on="0"/>
        <pt x="894" y="426" on="0"/>
        <pt x="892" y="396" on="0"/>
        <pt x="890" y="365" on="0"/>
        <pt x="890" y="347" on="1"/>
        <pt x="890" y="312" on="0"/>
        <pt x="896" y="256" on="0"/>
        <pt x="896" y="219" on="1"/>
        <pt x="896" y="216" on="0"/>
        <pt x="883" y="211" on="0"/>
        <pt x="878" y="211" on="1"/>
        <pt x="872" y="211" on="0"/>
        <pt x="860" y="216" on="0"/>
        <pt x="859" y="219" on="1"/>
        <pt x="852" y="280" on="0"/>
        <pt x="800" y="329" on="0"/>
        <pt x="755" y="329" on="1"/>
        <pt x="675" y="329" on="1"/>
        <pt x="675" y="100" on="1"/>
        <pt x="675" y="82" on="0"/>
        <pt x="686" y="59" on="0"/>
        <pt x="703" y="46" on="0"/>
        <pt x="723" y="41" on="0"/>
        <pt x="733" y="41" on="1"/>
        <pt x="813" y="41" on="1"/>
        <pt x="848" y="41" on="0"/>
        <pt x="914" y="66" on="0"/>
        <pt x="969" y="110" on="0"/>
        <pt x="1009" y="169" on="0"/>
        <pt x="1020" y="204" on="1"/>
        <pt x="1021" y="208" on="0"/>
        <pt x="1032" y="208" on="1"/>
        <pt x="1043" y="208" on="0"/>
        <pt x="1058" y="199" on="0"/>
      </contour>
      <contour>
        <pt x="525" y="600" on="1"/>
        <pt x="323" y="289" on="1"/>
        <pt x="525" y="289" on="1"/>
      </contour>
    </TTGlyph>
    <TTGlyph name="AE.sc" xMin="0" yMin="-5" xMax="771" yMax="469">
      <component glyphName="ae.sc" x="0" y="0" flags="0x204"/>
    </TTGlyph>
    <TTGlyph name="AEacute" xMin="-1" yMin="-5" xMax="1058" yMax="948">
      <component glyphName="acute.cap" x="511" y="0" flags="0x4"/>
      <component glyphName="AE" x="0" y="0" flags="0x4"/>
    </TTGlyph>
    <TTGlyph name="AEacute.sc" xMin="0" yMin="-5" xMax="771" yMax="726">
      <component glyphName="acute" x="362" y="15" flags="0x4"/>
      <component glyphName="ae.sc" x="0" y="0" flags="0x4"/>
    </TTGlyph>
    <TTGlyph name="Aacute" xMin="2" yMin="-5" xMax="763" yMax="963">
      <component glyphName="A" x="0" y="0" flags="0x204"/>
      <component glyphName="acute.cap" x="262" y="15" flags="0x4"/>
    </TTGlyph>
    <TTGlyph name="Aacute.sc" xMin="-11" yMin="-5" xMax="528" yMax="733">
      <component glyphName="acute" x="140" y="22" flags="0x4"/>
      <component glyphName="a.sc" x="0" y="0" flags="0x4"/>
    </TTGlyph>
    <TTGlyph name="Abreve" xMin="2" yMin="-5" xMax="763" yMax="947">
      <component glyphName="A" x="0" y="0" flags="0x204"/>
      <component glyphName="breve.cap" x="218" y="15" flags="0x4"/>
    </TTGlyph>
    <TTGlyph name="Abreve.sc" xMin="-11" yMin="-5" xMax="528" yMax="712">
      <component glyphName="a.sc" x="0" y="0" flags="0x204"/>
      <component glyphName="breve" x="79" y="22" flags="0x4"/>
    </TTGlyph>
    <TTGlyph name="Acircumflex" xMin="2" yMin="-5" xMax="763" yMax="941">
      <component glyphName="A" x="0" y="0" flags="0x204"/>
      <component glyphName="circumflex.cap" x="206" y="5" flags="0x4"/>
    </TTGlyph>
    <TTGlyph name="Acircumflex.sc" xMin="-11" yMin="-5" xMax="528" yMax="725">
      <component glyphName="circumflex" x="80" y="12" flags="0x4"/>
      <component glyphName="a.sc" x="0" y="0" flags="0x4"/>
    </TTGlyph>
    <TTGlyph name="Adieresis" xMin="2" yMin="-5" xMax="763" yMax="921">
      <component glyphName="A" x="0" y="0" flags="0x204"/>
      <component glyphName="dieresis.cap" x="204" y="15" flags="0x4"/>
    </TTGlyph>
    <TTGlyph name="Adieresis.sc" xMin="-11" yMin="-5" xMax="528" yMax="698">
      <component glyphName="dieresis" x="76" y="22" flags="0x4"/>
      <component glyphName="a.sc" x="0" y="0" flags="0x4"/>
    </TTGlyph>
    <TTGlyph name="Agrave" xMin="2" yMin="-5" xMax="763" yMax="963">
      <component glyphName="A" x="0" y="0" flags="0x204"/>
      <component glyphName="grave.cap" x="148" y="15" flags="0x4"/>
    </TTGlyph>
    <TTGlyph name="Agrave.sc" xMin="-11" yMin="-5" xMax="528" yMax="733">
      <component glyphName="a.sc" x="0" y="0" flags="0x204"/>
      <component glyphName="grave" x="19" y="22" flags="0x4"/>
    </TTGlyph>
    <TTGlyph name="Amacron" xMin="2" yMin="-5" xMax="763" yMax="877">
      <component glyphName="A" x="0" y="0" flags="0x204"/>
      <component glyphName="macron.cap" x="198" y="15" flags="0x4"/>
    </TTGlyph>
    <TTGlyph name="Amacron.sc" xMin="-11" yMin="-5" xMax="528" yMax="647">
      <component glyphName="a.sc" x="0" y="0" flags="0x204"/>
      <component glyphName="macron" x="75" y="22" flags="0x4"/>
    </TTGlyph>
    <TTGlyph name="Aogonek" xMin="2" yMin="-219" xMax="763" yMax="706">
      <contour>
        <pt x="725" y="-176" on="1"/>
        <pt x="709" y="-194" on="0"/>
        <pt x="660" y="-219" on="0"/>
        <pt x="623" y="-219" on="1"/>
        <pt x="572" y="-219" on="0"/>
        <pt x="524" y="-168" on="0"/>
        <pt x="524" y="-134" on="1"/>
        <pt x="524" y="-97" on="0"/>
        <pt x="571" y="-31" on="0"/>
        <pt x="609" y="0" on="1"/>
        <pt x="590" y="0" on="1"/>
        <pt x="543" y="0" on="0"/>
        <pt x="461" y="-5" on="0"/>
        <pt x="411" y="-5" on="1"/>
        <pt x="408" y="-5" on="0"/>
        <pt x="403" y="7" on="0"/>
        <pt x="403" y="13" on="1"/>
        <pt x="403" y="18" on="0"/>
        <pt x="406" y="30" on="0"/>
        <pt x="409" y="31" on="1"/>
        <pt x="458" y="33" on="0"/>
        <pt x="491" y="54" on="0"/>
        <pt x="491" y="73" on="1"/>
        <pt x="491" y="82" on="0"/>
        <pt x="485" y="103" on="0"/>
        <pt x="481" y="115" on="1"/>
        <pt x="438" y="233" on="1"/>
        <pt x="230" y="233" on="1"/>
        <pt x="190" y="127" on="1"/>
        <pt x="185" y="114" on="0"/>
        <pt x="178" y="90" on="0"/>
        <pt x="178" y="79" on="1"/>
        <pt x="178" y="59" on="0"/>
        <pt x="209" y="33" on="0"/>
        <pt x="256" y="31" on="1"/>
        <pt x="259" y="30" on="0"/>
        <pt x="262" y="18" on="0"/>
        <pt x="262" y="13" on="1"/>
        <pt x="262" y="7" on="0"/>
        <pt x="257" y="-5" on="0"/>
        <pt x="254" y="-5" on="1"/>
        <pt x="232" y="-5" on="0"/>
        <pt x="201" y="-3" on="0"/>
        <pt x="174" y="-2" on="0"/>
        <pt x="145" y="0" on="0"/>
        <pt x="124" y="0" on="1"/>
        <pt x="107" y="0" on="0"/>
        <pt x="81" y="-2" on="0"/>
        <pt x="55" y="-3" on="0"/>
        <pt x="28" y="-5" on="0"/>
        <pt x="10" y="-5" on="1"/>
        <pt x="6" y="-5" on="0"/>
        <pt x="2" y="7" on="0"/>
        <pt x="3" y="13" on="1"/>
        <pt x="3" y="18" on="0"/>
        <pt x="11" y="30" on="0"/>
        <pt x="14" y="31" on="1"/>
        <pt x="38" y="33" on="0"/>
        <pt x="72" y="47" on="0"/>
        <pt x="98" y="71" on="0"/>
        <pt x="119" y="107" on="0"/>
        <pt x="130" y="131" on="1"/>
        <pt x="371" y="698" on="1"/>
        <pt x="373" y="701" on="0"/>
        <pt x="385" y="706" on="0"/>
        <pt x="393" y="706" on="1"/>
        <pt x="401" y="706" on="0"/>
        <pt x="414" y="701" on="0"/>
        <pt x="415" y="698" on="1"/>
        <pt x="630" y="131" on="1"/>
        <pt x="638" y="108" on="0"/>
        <pt x="658" y="73" on="0"/>
        <pt x="686" y="49" on="0"/>
        <pt x="725" y="34" on="0"/>
        <pt x="753" y="31" on="1"/>
        <pt x="756" y="30" on="0"/>
        <pt x="763" y="18" on="0"/>
        <pt x="763" y="13" on="1"/>
        <pt x="763" y="7" on="0"/>
        <pt x="758" y="-5" on="0"/>
        <pt x="755" y="-5" on="1"/>
        <pt x="729" y="-5" on="0"/>
        <pt x="685" y="-3" on="0"/>
        <pt x="665" y="-2" on="1"/>
        <pt x="639" y="-28" on="0"/>
        <pt x="612" y="-84" on="0"/>
        <pt x="612" y="-111" on="1"/>
        <pt x="612" y="-136" on="0"/>
        <pt x="640" y="-162" on="0"/>
        <pt x="665" y="-162" on="1"/>
        <pt x="676" y="-162" on="0"/>
        <pt x="700" y="-152" on="0"/>
        <pt x="710" y="-147" on="1"/>
        <pt x="714" y="-146" on="0"/>
        <pt x="721" y="-153" on="0"/>
        <pt x="724" y="-158" on="1"/>
        <pt x="729" y="-170" on="0"/>
      </contour>
      <contour>
        <pt x="337" y="511" on="1"/>
        <pt x="246" y="273" on="1"/>
        <pt x="423" y="273" on="1"/>
      </contour>
    </TTGlyph>
    <TTGlyph name="Aogonek.sc" xMin="-11" yMin="-219" xMax="529" yMax="482">
      <component glyphName="aogonek.sc" x="0" y="0" flags="0x204"/>
    </TTGlyph>
    <TTGlyph name="Aring" xMin="2" yMin="-6" xMax="763" yMax="885">
      <contour>
        <pt x="763" y="12" on="1"/>
        <pt x="763" y="7" on="0"/>
        <pt x="758" y="-6" on="0"/>
        <pt x="755" y="-6" on="1"/>
        <pt x="730" y="-6" on="0"/>
        <pt x="688" y="-4" on="0"/>
        <pt x="649" y="-2" on="0"/>
        <pt x="611" y="0" on="0"/>
        <pt x="590" y="0" on="1"/>
        <pt x="543" y="0" on="0"/>
        <pt x="461" y="-6" on="0"/>
        <pt x="411" y="-6" on="1"/>
        <pt x="408" y="-6" on="0"/>
        <pt x="403" y="7" on="0"/>
        <pt x="403" y="12" on="1"/>
        <pt x="403" y="18" on="0"/>
        <pt x="406" y="30" on="0"/>
        <pt x="409" y="31" on="1"/>
        <pt x="458" y="33" on="0"/>
        <pt x="491" y="54" on="0"/>
        <pt x="491" y="73" on="1"/>
        <pt x="491" y="82" on="0"/>
        <pt x="485" y="103" on="0"/>
        <pt x="481" y="115" on="1"/>
        <pt x="438" y="233" on="1"/>
        <pt x="230" y="233" on="1"/>
        <pt x="190" y="127" on="1"/>
        <pt x="185" y="113" on="0"/>
        <pt x="178" y="90" on="0"/>
        <pt x="178" y="79" on="1"/>
        <pt x="178" y="58" on="0"/>
        <pt x="209" y="32" on="0"/>
        <pt x="256" y="31" on="1"/>
        <pt x="259" y="30" on="0"/>
        <pt x="262" y="18" on="0"/>
        <pt x="262" y="12" on="1"/>
        <pt x="262" y="7" on="0"/>
        <pt x="257" y="-6" on="0"/>
        <pt x="254" y="-6" on="1"/>
        <pt x="232" y="-6" on="0"/>
        <pt x="201" y="-4" on="0"/>
        <pt x="174" y="-2" on="0"/>
        <pt x="145" y="0" on="0"/>
        <pt x="124" y="0" on="1"/>
        <pt x="107" y="0" on="0"/>
        <pt x="81" y="-2" on="0"/>
        <pt x="55" y="-4" on="0"/>
        <pt x="28" y="-6" on="0"/>
        <pt x="10" y="-6" on="1"/>
        <pt x="6" y="-6" on="0"/>
        <pt x="2" y="7" on="0"/>
        <pt x="3" y="12" on="1"/>
        <pt x="3" y="18" on="0"/>
        <pt x="11" y="30" on="0"/>
        <pt x="14" y="31" on="1"/>
        <pt x="38" y="33" on="0"/>
        <pt x="72" y="47" on="0"/>
        <pt x="98" y="71" on="0"/>
        <pt x="119" y="107" on="0"/>
        <pt x="130" y="131" on="1"/>
        <pt x="363" y="677" on="1"/>
        <pt x="325" y="687" on="0"/>
        <pt x="281" y="744" on="0"/>
        <pt x="281" y="779" on="1"/>
        <pt x="281" y="800" on="0"/>
        <pt x="297" y="838" on="0"/>
        <pt x="327" y="867" on="0"/>
        <pt x="368" y="885" on="0"/>
        <pt x="393" y="885" on="1"/>
        <pt x="418" y="885" on="0"/>
        <pt x="459" y="867" on="0"/>
        <pt x="489" y="838" on="0"/>
        <pt x="505" y="800" on="0"/>
        <pt x="505" y="779" on="1"/>
        <pt x="505" y="744" on="0"/>
        <pt x="460" y="686" on="0"/>
        <pt x="423" y="677" on="1"/>
        <pt x="630" y="131" on="1"/>
        <pt x="638" y="108" on="0"/>
        <pt x="658" y="73" on="0"/>
        <pt x="686" y="49" on="0"/>
        <pt x="725" y="34" on="0"/>
        <pt x="753" y="31" on="1"/>
        <pt x="756" y="30" on="0"/>
        <pt x="763" y="18" on="0"/>
      </contour>
      <contour>
        <pt x="455" y="779" on="1"/>
        <pt x="455" y="808" on="0"/>
        <pt x="420" y="847" on="0"/>
        <pt x="393" y="847" on="1"/>
        <pt x="367" y="847" on="0"/>
        <pt x="332" y="808" on="0"/>
        <pt x="332" y="779" on="1"/>
        <pt x="332" y="749" on="0"/>
        <pt x="367" y="711" on="0"/>
        <pt x="393" y="711" on="1"/>
        <pt x="420" y="711" on="0"/>
        <pt x="455" y="749" on="0"/>
      </contour>
      <contour>
        <pt x="337" y="511" on="1"/>
        <pt x="246" y="273" on="1"/>
        <pt x="423" y="273" on="1"/>
      </contour>
    </TTGlyph>
    <TTGlyph name="Aring.sc" xMin="-11" yMin="-6" xMax="528" yMax="656">
      <component glyphName="aring.sc" x="0" y="0" flags="0x204"/>
    </TTGlyph>
    <TTGlyph name="Aringacute" xMin="2" yMin="-6" xMax="763" yMax="1101">
      <component glyphName="acute" x="289" y="390" flags="0x4"/>
      <component glyphName="Aring" x="0" y="0" flags="0x4"/>
    </TTGlyph>
    <TTGlyph name="Aringacute.sc" xMin="-11" yMin="-6" xMax="528" yMax="871">
      <component glyphName="acute" x="165" y="160" flags="0x4"/>
      <component glyphName="aring.sc" x="0" y="0" flags="0x4"/>
    </TTGlyph>
    <TTGlyph name="Atilde" xMin="2" yMin="-5" xMax="763" yMax="960">
      <component glyphName="A" x="0" y="0" flags="0x204"/>
      <component glyphName="tilde.cap" x="220" y="15" flags="0x4"/>
    </TTGlyph>
    <TTGlyph name="Atilde.sc" xMin="-11" yMin="-5" xMax="528" yMax="721">
      <component glyphName="a.sc" x="0" y="0" flags="0x204"/>
      <component glyphName="tilde" x="93" y="22" flags="0x4"/>
    </TTGlyph>
    <TTGlyph name="B" xMin="36" yMin="-5" xMax="684" yMax="690">
      <contour>
        <pt x="684" y="193" on="1"/>
        <pt x="684" y="150" on="0"/>
        <pt x="653" y="77" on="0"/>
        <pt x="590" y="25" on="0"/>
        <pt x="494" y="-5" on="0"/>
        <pt x="429" y="-5" on="1"/>
        <pt x="379" y="-5" on="0"/>
        <pt x="278" y="0" on="0"/>
        <pt x="231" y="0" on="1"/>
        <pt x="184" y="0" on="0"/>
        <pt x="94" y="-5" on="0"/>
        <pt x="44" y="-5" on="1"/>
        <pt x="41" y="-5" on="0"/>
        <pt x="36" y="7" on="0"/>
        <pt x="36" y="13" on="1"/>
        <pt x="36" y="18" on="0"/>
        <pt x="41" y="30" on="0"/>
        <pt x="44" y="31" on="1"/>
        <pt x="76" y="34" on="0"/>
        <pt x="116" y="47" on="0"/>
        <pt x="137" y="66" on="0"/>
        <pt x="144" y="95" on="0"/>
        <pt x="144" y="115" on="1"/>
        <pt x="144" y="569" on="1"/>
        <pt x="144" y="589" on="0"/>
        <pt x="137" y="618" on="0"/>
        <pt x="116" y="638" on="0"/>
        <pt x="76" y="650" on="0"/>
        <pt x="44" y="654" on="1"/>
        <pt x="41" y="654" on="0"/>
        <pt x="36" y="666" on="0"/>
        <pt x="36" y="672" on="1"/>
        <pt x="36" y="677" on="0"/>
        <pt x="41" y="690" on="0"/>
        <pt x="44" y="690" on="1"/>
        <pt x="94" y="690" on="0"/>
        <pt x="176" y="685" on="0"/>
        <pt x="223" y="685" on="1"/>
        <pt x="270" y="685" on="0"/>
        <pt x="355" y="690" on="0"/>
        <pt x="405" y="690" on="1"/>
        <pt x="523" y="690" on="0"/>
        <pt x="642" y="602" on="0"/>
        <pt x="642" y="531" on="1"/>
        <pt x="642" y="504" on="0"/>
        <pt x="618" y="453" on="0"/>
        <pt x="573" y="412" on="0"/>
        <pt x="509" y="382" on="0"/>
        <pt x="470" y="375" on="1"/>
        <pt x="519" y="370" on="0"/>
        <pt x="598" y="337" on="0"/>
        <pt x="654" y="289" on="0"/>
        <pt x="684" y="227" on="0"/>
      </contour>
      <contour>
        <pt x="483" y="524" on="1"/>
        <pt x="483" y="588" on="0"/>
        <pt x="428" y="648" on="0"/>
        <pt x="365" y="648" on="1"/>
        <pt x="349" y="648" on="1"/>
        <pt x="294" y="648" on="0"/>
        <pt x="294" y="598" on="1"/>
        <pt x="294" y="389" on="1"/>
        <pt x="356" y="389" on="1"/>
        <pt x="426" y="389" on="0"/>
        <pt x="483" y="455" on="0"/>
      </contour>
      <contour>
        <pt x="526" y="198" on="1"/>
        <pt x="526" y="269" on="0"/>
        <pt x="454" y="348" on="0"/>
        <pt x="386" y="348" on="1"/>
        <pt x="294" y="348" on="1"/>
        <pt x="294" y="107" on="1"/>
        <pt x="294" y="71" on="0"/>
        <pt x="333" y="36" on="0"/>
        <pt x="385" y="36" on="1"/>
        <pt x="412" y="36" on="0"/>
        <pt x="463" y="57" on="0"/>
        <pt x="502" y="98" on="0"/>
        <pt x="526" y="159" on="0"/>
      </contour>
    </TTGlyph>
    <TTGlyph name="B.sc" xMin="34" yMin="-5" xMax="512" yMax="469">
      <component glyphName="b.sc" x="0" y="0" flags="0x204"/>
    </TTGlyph>
    <TTGlyph name="C" xMin="43" yMin="-21" xMax="723" yMax="706">
      <contour>
        <pt x="723" y="210" on="1"/>
        <pt x="720" y="190" on="0"/>
        <pt x="711" y="140" on="0"/>
        <pt x="703" y="87" on="0"/>
        <pt x="695" y="36" on="0"/>
        <pt x="692" y="16" on="1"/>
        <pt x="669" y="16" on="0"/>
        <pt x="612" y="4" on="0"/>
        <pt x="547" y="-9" on="0"/>
        <pt x="478" y="-21" on="0"/>
        <pt x="442" y="-21" on="1"/>
        <pt x="342" y="-21" on="0"/>
        <pt x="192" y="39" on="0"/>
        <pt x="93" y="140" on="0"/>
        <pt x="43" y="270" on="0"/>
        <pt x="43" y="339" on="1"/>
        <pt x="43" y="412" on="0"/>
        <pt x="100" y="545" on="0"/>
        <pt x="206" y="646" on="0"/>
        <pt x="356" y="706" on="0"/>
        <pt x="450" y="706" on="1"/>
        <pt x="488" y="706" on="0"/>
        <pt x="551" y="698" on="0"/>
        <pt x="607" y="689" on="0"/>
        <pt x="656" y="681" on="0"/>
        <pt x="679" y="681" on="1"/>
        <pt x="680" y="660" on="0"/>
        <pt x="685" y="609" on="0"/>
        <pt x="689" y="557" on="0"/>
        <pt x="694" y="507" on="0"/>
        <pt x="697" y="487" on="1"/>
        <pt x="697" y="483" on="0"/>
        <pt x="683" y="479" on="0"/>
        <pt x="677" y="479" on="1"/>
        <pt x="672" y="479" on="0"/>
        <pt x="662" y="483" on="0"/>
        <pt x="661" y="487" on="1"/>
        <pt x="653" y="521" on="0"/>
        <pt x="615" y="585" on="0"/>
        <pt x="559" y="635" on="0"/>
        <pt x="487" y="665" on="0"/>
        <pt x="446" y="665" on="1"/>
        <pt x="387" y="665" on="0"/>
        <pt x="296" y="615" on="0"/>
        <pt x="234" y="528" on="0"/>
        <pt x="202" y="408" on="0"/>
        <pt x="202" y="339" on="1"/>
        <pt x="202" y="271" on="0"/>
        <pt x="234" y="155" on="0"/>
        <pt x="295" y="68" on="0"/>
        <pt x="384" y="19" on="0"/>
        <pt x="442" y="19" on="1"/>
        <pt x="490" y="19" on="0"/>
        <pt x="567" y="49" on="0"/>
        <pt x="627" y="101" on="0"/>
        <pt x="671" y="170" on="0"/>
        <pt x="687" y="210" on="1"/>
        <pt x="689" y="215" on="0"/>
        <pt x="699" y="218" on="0"/>
        <pt x="704" y="218" on="1"/>
        <pt x="710" y="218" on="0"/>
        <pt x="722" y="213" on="0"/>
      </contour>
    </TTGlyph>
    <TTGlyph name="C.sc" xMin="32" yMin="-19" xMax="524" yMax="484">
      <component glyphName="c.sc" x="0" y="0" flags="0x204"/>
    </TTGlyph>
    <TTGlyph name="Cacute" xMin="43" yMin="-21" xMax="723" yMax="963">
      <component glyphName="C" x="0" y="0" flags="0x204"/>
      <component glyphName="acute.cap" x="303" y="15" flags="0x4"/>
    </TTGlyph>
    <TTGlyph name="Cacute.sc" xMin="32" yMin="-19" xMax="524" yMax="733">
      <component glyphName="acute" x="184" y="22" flags="0x4"/>
      <component glyphName="c.sc" x="0" y="0" flags="0x4"/>
    </TTGlyph>
    <TTGlyph name="Ccaron" xMin="43" yMin="-21" xMax="723" yMax="955">
      <component glyphName="C" x="0" y="0" flags="0x204"/>
      <component glyphName="caron.cap" x="246" y="15" flags="0x4"/>
    </TTGlyph>
    <TTGlyph name="Ccaron.sc" xMin="32" yMin="-19" xMax="524" yMax="730">
      <component glyphName="caron" x="124" y="22" flags="0x4"/>
      <component glyphName="c.sc" x="0" y="0" flags="0x4"/>
    </TTGlyph>
    <TTGlyph name="Ccedilla" xMin="43" yMin="-229" xMax="723" yMax="706">
      <contour>
        <pt x="723" y="210" on="1"/>
        <pt x="720" y="190" on="0"/>
        <pt x="711" y="140" on="0"/>
        <pt x="703" y="87" on="0"/>
        <pt x="695" y="36" on="0"/>
        <pt x="692" y="16" on="1"/>
        <pt x="670" y="16" on="0"/>
        <pt x="617" y="6" on="0"/>
        <pt x="557" y="-7" on="0"/>
        <pt x="493" y="-19" on="0"/>
        <pt x="460" y="-21" on="1"/>
        <pt x="452" y="-35" on="1"/>
        <pt x="449" y="-40" on="0"/>
        <pt x="449" y="-44" on="1"/>
        <pt x="449" y="-52" on="0"/>
        <pt x="459" y="-59" on="1"/>
        <pt x="481" y="-73" on="0"/>
        <pt x="513" y="-111" on="0"/>
        <pt x="513" y="-138" on="1"/>
        <pt x="513" y="-158" on="0"/>
        <pt x="493" y="-191" on="0"/>
        <pt x="459" y="-215" on="0"/>
        <pt x="416" y="-229" on="0"/>
        <pt x="393" y="-229" on="1"/>
        <pt x="359" y="-229" on="0"/>
        <pt x="327" y="-206" on="0"/>
        <pt x="327" y="-191" on="1"/>
        <pt x="327" y="-180" on="0"/>
        <pt x="341" y="-161" on="0"/>
        <pt x="355" y="-161" on="1"/>
        <pt x="365" y="-161" on="0"/>
        <pt x="381" y="-170" on="0"/>
        <pt x="395" y="-182" on="0"/>
        <pt x="409" y="-191" on="0"/>
        <pt x="418" y="-191" on="1"/>
        <pt x="443" y="-191" on="0"/>
        <pt x="443" y="-159" on="1"/>
        <pt x="443" y="-141" on="0"/>
        <pt x="404" y="-110" on="0"/>
        <pt x="382" y="-99" on="1"/>
        <pt x="372" y="-94" on="0"/>
        <pt x="372" y="-84" on="1"/>
        <pt x="372" y="-80" on="0"/>
        <pt x="375" y="-75" on="1"/>
        <pt x="411" y="-20" on="1"/>
        <pt x="319" y="-16" on="0"/>
        <pt x="181" y="48" on="0"/>
        <pt x="89" y="147" on="0"/>
        <pt x="43" y="272" on="0"/>
        <pt x="43" y="339" on="1"/>
        <pt x="43" y="412" on="0"/>
        <pt x="100" y="545" on="0"/>
        <pt x="206" y="646" on="0"/>
        <pt x="356" y="706" on="0"/>
        <pt x="450" y="706" on="1"/>
        <pt x="488" y="706" on="0"/>
        <pt x="551" y="698" on="0"/>
        <pt x="607" y="689" on="0"/>
        <pt x="656" y="681" on="0"/>
        <pt x="679" y="681" on="1"/>
        <pt x="680" y="660" on="0"/>
        <pt x="685" y="609" on="0"/>
        <pt x="689" y="557" on="0"/>
        <pt x="694" y="507" on="0"/>
        <pt x="697" y="487" on="1"/>
        <pt x="697" y="483" on="0"/>
        <pt x="683" y="479" on="0"/>
        <pt x="677" y="479" on="1"/>
        <pt x="672" y="479" on="0"/>
        <pt x="662" y="483" on="0"/>
        <pt x="661" y="487" on="1"/>
        <pt x="653" y="521" on="0"/>
        <pt x="615" y="585" on="0"/>
        <pt x="559" y="635" on="0"/>
        <pt x="487" y="665" on="0"/>
        <pt x="446" y="665" on="1"/>
        <pt x="387" y="665" on="0"/>
        <pt x="296" y="615" on="0"/>
        <pt x="234" y="528" on="0"/>
        <pt x="202" y="408" on="0"/>
        <pt x="202" y="339" on="1"/>
        <pt x="202" y="271" on="0"/>
        <pt x="234" y="155" on="0"/>
        <pt x="295" y="68" on="0"/>
        <pt x="384" y="19" on="0"/>
        <pt x="442" y="19" on="1"/>
        <pt x="490" y="19" on="0"/>
        <pt x="567" y="49" on="0"/>
        <pt x="627" y="101" on="0"/>
        <pt x="671" y="170" on="0"/>
        <pt x="687" y="210" on="1"/>
        <pt x="689" y="215" on="0"/>
        <pt x="699" y="218" on="0"/>
        <pt x="704" y="218" on="1"/>
        <pt x="710" y="218" on="0"/>
        <pt x="722" y="213" on="0"/>
      </contour>
    </TTGlyph>
    <TTGlyph name="Ccedilla.sc" xMin="32" yMin="-227" xMax="524" yMax="484">
      <component glyphName="ccedilla.sc" x="0" y="0" flags="0x204"/>
    </TTGlyph>
    <TTGlyph name="Cdotaccent" xMin="43" yMin="-21" xMax="723" yMax="921">
      <component glyphName="dotaccent.cap" x="247" y="15" flags="0x4"/>
      <component glyphName="C" x="0" y="0" flags="0x4"/>
    </TTGlyph>
    <TTGlyph name="Cdotaccent.sc" xMin="32" yMin="-19" xMax="524" yMax="698">
      <component glyphName="c.sc" x="0" y="0" flags="0x204"/>
      <component glyphName="dotaccent" x="123" y="22" flags="0x4"/>
    </TTGlyph>
    <TTGlyph name="D" xMin="36" yMin="-5" xMax="817" yMax="689">
      <contour>
        <pt x="817" y="338" on="1"/>
        <pt x="817" y="269" on="0"/>
        <pt x="772" y="144" on="0"/>
        <pt x="676" y="50" on="0"/>
        <pt x="527" y="-5" on="0"/>
        <pt x="423" y="-5" on="1"/>
        <pt x="406" y="-5" on="0"/>
        <pt x="357" y="-4" on="0"/>
        <pt x="305" y="-3" on="0"/>
        <pt x="255" y="-2" on="0"/>
        <pt x="238" y="-2" on="1"/>
        <pt x="220" y="-2" on="0"/>
        <pt x="168" y="-2" on="0"/>
        <pt x="112" y="-3" on="0"/>
        <pt x="61" y="-4" on="0"/>
        <pt x="44" y="-5" on="1"/>
        <pt x="41" y="-5" on="0"/>
        <pt x="36" y="7" on="0"/>
        <pt x="36" y="13" on="1"/>
        <pt x="36" y="18" on="0"/>
        <pt x="41" y="30" on="0"/>
        <pt x="44" y="31" on="1"/>
        <pt x="76" y="34" on="0"/>
        <pt x="116" y="47" on="0"/>
        <pt x="137" y="66" on="0"/>
        <pt x="144" y="95" on="0"/>
        <pt x="144" y="115" on="1"/>
        <pt x="144" y="568" on="1"/>
        <pt x="144" y="588" on="0"/>
        <pt x="137" y="617" on="0"/>
        <pt x="116" y="637" on="0"/>
        <pt x="76" y="649" on="0"/>
        <pt x="44" y="653" on="1"/>
        <pt x="41" y="653" on="0"/>
        <pt x="36" y="665" on="0"/>
        <pt x="36" y="671" on="1"/>
        <pt x="36" y="676" on="0"/>
        <pt x="41" y="689" on="0"/>
        <pt x="44" y="689" on="1"/>
        <pt x="61" y="688" on="0"/>
        <pt x="112" y="687" on="0"/>
        <pt x="168" y="686" on="0"/>
        <pt x="220" y="686" on="0"/>
        <pt x="238" y="686" on="1"/>
        <pt x="255" y="686" on="0"/>
        <pt x="305" y="687" on="0"/>
        <pt x="357" y="688" on="0"/>
        <pt x="406" y="689" on="0"/>
        <pt x="423" y="689" on="1"/>
        <pt x="521" y="689" on="0"/>
        <pt x="668" y="634" on="0"/>
        <pt x="767" y="539" on="0"/>
        <pt x="817" y="411" on="0"/>
      </contour>
      <contour>
        <pt x="658" y="338" on="1"/>
        <pt x="658" y="407" on="0"/>
        <pt x="627" y="522" on="0"/>
        <pt x="567" y="603" on="0"/>
        <pt x="477" y="648" on="0"/>
        <pt x="419" y="647" on="1"/>
        <pt x="352" y="645" on="1"/>
        <pt x="342" y="645" on="0"/>
        <pt x="321" y="640" on="0"/>
        <pt x="305" y="628" on="0"/>
        <pt x="294" y="605" on="0"/>
        <pt x="294" y="587" on="1"/>
        <pt x="294" y="96" on="1"/>
        <pt x="294" y="78" on="0"/>
        <pt x="305" y="55" on="0"/>
        <pt x="321" y="43" on="0"/>
        <pt x="342" y="38" on="0"/>
        <pt x="352" y="38" on="1"/>
        <pt x="419" y="36" on="1"/>
        <pt x="476" y="36" on="0"/>
        <pt x="565" y="79" on="0"/>
        <pt x="626" y="159" on="0"/>
        <pt x="658" y="270" on="0"/>
      </contour>
    </TTGlyph>
    <TTGlyph name="D.sc" xMin="37" yMin="-5" xMax="609" yMax="469">
      <component glyphName="d.sc" x="0" y="0" flags="0x204"/>
    </TTGlyph>
    <TTGlyph name="Dcaron" xMin="36" yMin="-5" xMax="817" yMax="940">
      <component glyphName="caron.cap" x="228" y="0" flags="0x4"/>
      <component glyphName="D" x="0" y="0" flags="0x4"/>
    </TTGlyph>
    <TTGlyph name="Dcaron.sc" xMin="37" yMin="-5" xMax="609" yMax="723">
      <component glyphName="d.sc" x="0" y="0" flags="0x204"/>
      <component glyphName="caron" x="133" y="15" flags="0x4"/>
    </TTGlyph>
    <TTGlyph name="Dcroat" xMin="19" yMin="-7" xMax="817" yMax="689">
      <contour>
        <pt x="817" y="337" on="1"/>
        <pt x="817" y="268" on="0"/>
        <pt x="772" y="143" on="0"/>
        <pt x="676" y="49" on="0"/>
        <pt x="527" y="-7" on="0"/>
        <pt x="423" y="-7" on="1"/>
        <pt x="406" y="-7" on="0"/>
        <pt x="357" y="-6" on="0"/>
        <pt x="305" y="-5" on="0"/>
        <pt x="255" y="-4" on="0"/>
        <pt x="238" y="-4" on="1"/>
        <pt x="220" y="-4" on="0"/>
        <pt x="168" y="-4" on="0"/>
        <pt x="112" y="-5" on="0"/>
        <pt x="61" y="-6" on="0"/>
        <pt x="44" y="-7" on="1"/>
        <pt x="41" y="-7" on="0"/>
        <pt x="36" y="5" on="0"/>
        <pt x="36" y="11" on="1"/>
        <pt x="36" y="17" on="0"/>
        <pt x="41" y="29" on="0"/>
        <pt x="44" y="29" on="1"/>
        <pt x="77" y="33" on="0"/>
        <pt x="116" y="45" on="0"/>
        <pt x="137" y="65" on="0"/>
        <pt x="144" y="94" on="0"/>
        <pt x="144" y="114" on="1"/>
        <pt x="144" y="304" on="1"/>
        <pt x="31" y="300" on="1"/>
        <pt x="25" y="300" on="0"/>
        <pt x="19" y="320" on="0"/>
        <pt x="19" y="331" on="1"/>
        <pt x="19" y="342" on="0"/>
        <pt x="26" y="362" on="0"/>
        <pt x="31" y="362" on="1"/>
        <pt x="144" y="362" on="1"/>
        <pt x="144" y="568" on="1"/>
        <pt x="144" y="588" on="0"/>
        <pt x="137" y="617" on="0"/>
        <pt x="116" y="637" on="0"/>
        <pt x="77" y="649" on="0"/>
        <pt x="44" y="653" on="1"/>
        <pt x="41" y="654" on="0"/>
        <pt x="36" y="665" on="0"/>
        <pt x="36" y="671" on="1"/>
        <pt x="36" y="677" on="0"/>
        <pt x="41" y="689" on="0"/>
        <pt x="44" y="689" on="1"/>
        <pt x="61" y="688" on="0"/>
        <pt x="112" y="687" on="0"/>
        <pt x="168" y="686" on="0"/>
        <pt x="220" y="685" on="0"/>
        <pt x="238" y="685" on="1"/>
        <pt x="255" y="685" on="0"/>
        <pt x="305" y="686" on="0"/>
        <pt x="357" y="688" on="0"/>
        <pt x="406" y="689" on="0"/>
        <pt x="423" y="689" on="1"/>
        <pt x="521" y="689" on="0"/>
        <pt x="668" y="634" on="0"/>
        <pt x="767" y="538" on="0"/>
        <pt x="817" y="410" on="0"/>
      </contour>
      <contour>
        <pt x="659" y="337" on="1"/>
        <pt x="659" y="406" on="0"/>
        <pt x="628" y="521" on="0"/>
        <pt x="567" y="603" on="0"/>
        <pt x="477" y="648" on="0"/>
        <pt x="419" y="647" on="1"/>
        <pt x="352" y="645" on="1"/>
        <pt x="342" y="645" on="0"/>
        <pt x="321" y="641" on="0"/>
        <pt x="305" y="628" on="0"/>
        <pt x="294" y="606" on="0"/>
        <pt x="294" y="588" on="1"/>
        <pt x="294" y="362" on="1"/>
        <pt x="407" y="362" on="1"/>
        <pt x="412" y="362" on="0"/>
        <pt x="419" y="342" on="0"/>
        <pt x="419" y="331" on="1"/>
        <pt x="419" y="320" on="0"/>
        <pt x="412" y="300" on="0"/>
        <pt x="407" y="300" on="1"/>
        <pt x="294" y="304" on="1"/>
        <pt x="294" y="95" on="1"/>
        <pt x="294" y="77" on="0"/>
        <pt x="305" y="54" on="0"/>
        <pt x="321" y="42" on="0"/>
        <pt x="342" y="37" on="0"/>
        <pt x="352" y="37" on="1"/>
        <pt x="419" y="35" on="1"/>
        <pt x="476" y="35" on="0"/>
        <pt x="566" y="78" on="0"/>
        <pt x="627" y="158" on="0"/>
        <pt x="659" y="269" on="0"/>
      </contour>
    </TTGlyph>
    <TTGlyph name="Dcroat.sc" xMin="30" yMin="-4" xMax="619" yMax="470">
      <component glyphName="dcroat.sc" x="0" y="0" flags="0x204"/>
    </TTGlyph>
    <TTGlyph name="Deltagreek" xMin="17" yMin="-6" xMax="723" yMax="706">
      <contour>
        <pt x="723" y="17" on="1"/>
        <pt x="723" y="11" on="0"/>
        <pt x="709" y="-6" on="0"/>
        <pt x="703" y="-5" on="1"/>
        <pt x="691" y="-4" on="0"/>
        <pt x="621" y="-2" on="0"/>
        <pt x="522" y="0" on="0"/>
        <pt x="403" y="0" on="0"/>
        <pt x="343" y="0" on="1"/>
        <pt x="223" y="0" on="0"/>
        <pt x="62" y="-2" on="0"/>
        <pt x="39" y="-5" on="1"/>
        <pt x="31" y="-6" on="0"/>
        <pt x="17" y="8" on="0"/>
        <pt x="17" y="14" on="1"/>
        <pt x="17" y="18" on="0"/>
        <pt x="20" y="23" on="1"/>
        <pt x="371" y="697" on="1"/>
        <pt x="376" y="706" on="0"/>
        <pt x="394" y="706" on="1"/>
        <pt x="402" y="706" on="0"/>
        <pt x="414" y="701" on="0"/>
        <pt x="416" y="697" on="1"/>
        <pt x="721" y="23" on="1"/>
        <pt x="723" y="19" on="0"/>
      </contour>
      <contour>
        <pt x="338" y="537" on="1"/>
        <pt x="123" y="113" on="1"/>
        <pt x="529" y="113" on="1"/>
      </contour>
    </TTGlyph>
    <TTGlyph name="E" xMin="36" yMin="-5" xMax="677" yMax="690">
      <contour>
        <pt x="675" y="194" on="1"/>
        <pt x="662" y="149" on="0"/>
        <pt x="639" y="42" on="0"/>
        <pt x="631" y="-5" on="1"/>
        <pt x="607" y="-4" on="0"/>
        <pt x="529" y="-3" on="0"/>
        <pt x="445" y="-1" on="0"/>
        <pt x="366" y="0" on="0"/>
        <pt x="341" y="0" on="1"/>
        <pt x="316" y="0" on="0"/>
        <pt x="235" y="-1" on="0"/>
        <pt x="148" y="-3" on="0"/>
        <pt x="68" y="-4" on="0"/>
        <pt x="44" y="-5" on="1"/>
        <pt x="41" y="-5" on="0"/>
        <pt x="36" y="7" on="0"/>
        <pt x="36" y="13" on="1"/>
        <pt x="36" y="18" on="0"/>
        <pt x="41" y="30" on="0"/>
        <pt x="44" y="31" on="1"/>
        <pt x="76" y="34" on="0"/>
        <pt x="116" y="47" on="0"/>
        <pt x="137" y="66" on="0"/>
        <pt x="144" y="95" on="0"/>
        <pt x="144" y="115" on="1"/>
        <pt x="144" y="569" on="1"/>
        <pt x="144" y="589" on="0"/>
        <pt x="137" y="618" on="0"/>
        <pt x="116" y="638" on="0"/>
        <pt x="76" y="650" on="0"/>
        <pt x="44" y="654" on="1"/>
        <pt x="41" y="654" on="0"/>
        <pt x="36" y="666" on="0"/>
        <pt x="36" y="672" on="1"/>
        <pt x="36" y="677" on="0"/>
        <pt x="41" y="690" on="0"/>
        <pt x="44" y="690" on="1"/>
        <pt x="68" y="689" on="0"/>
        <pt x="145" y="687" on="0"/>
        <pt x="228" y="686" on="0"/>
        <pt x="306" y="685" on="0"/>
        <pt x="331" y="685" on="1"/>
        <pt x="356" y="685" on="0"/>
        <pt x="433" y="686" on="0"/>
        <pt x="516" y="687" on="0"/>
        <pt x="593" y="689" on="0"/>
        <pt x="617" y="690" on="1"/>
        <pt x="619" y="648" on="0"/>
        <pt x="629" y="547" on="0"/>
        <pt x="637" y="503" on="1"/>
        <pt x="638" y="498" on="0"/>
        <pt x="625" y="490" on="0"/>
        <pt x="614" y="490" on="1"/>
        <pt x="602" y="490" on="0"/>
        <pt x="600" y="497" on="1"/>
        <pt x="586" y="564" on="0"/>
        <pt x="497" y="644" on="0"/>
        <pt x="432" y="644" on="1"/>
        <pt x="352" y="644" on="1"/>
        <pt x="342" y="644" on="0"/>
        <pt x="322" y="639" on="0"/>
        <pt x="305" y="626" on="0"/>
        <pt x="294" y="602" on="0"/>
        <pt x="294" y="584" on="1"/>
        <pt x="294" y="370" on="1"/>
        <pt x="374" y="370" on="1"/>
        <pt x="419" y="370" on="0"/>
        <pt x="471" y="416" on="0"/>
        <pt x="478" y="477" on="1"/>
        <pt x="479" y="481" on="0"/>
        <pt x="491" y="485" on="0"/>
        <pt x="496" y="485" on="1"/>
        <pt x="502" y="485" on="0"/>
        <pt x="514" y="481" on="0"/>
        <pt x="514" y="477" on="1"/>
        <pt x="514" y="458" on="0"/>
        <pt x="512" y="426" on="0"/>
        <pt x="511" y="396" on="0"/>
        <pt x="509" y="365" on="0"/>
        <pt x="509" y="347" on="1"/>
        <pt x="509" y="312" on="0"/>
        <pt x="514" y="256" on="0"/>
        <pt x="514" y="219" on="1"/>
        <pt x="514" y="216" on="0"/>
        <pt x="502" y="211" on="0"/>
        <pt x="496" y="211" on="1"/>
        <pt x="491" y="211" on="0"/>
        <pt x="479" y="216" on="0"/>
        <pt x="478" y="219" on="1"/>
        <pt x="471" y="280" on="0"/>
        <pt x="419" y="329" on="0"/>
        <pt x="374" y="329" on="1"/>
        <pt x="294" y="329" on="1"/>
        <pt x="294" y="100" on="1"/>
        <pt x="294" y="82" on="0"/>
        <pt x="305" y="59" on="0"/>
        <pt x="322" y="46" on="0"/>
        <pt x="342" y="41" on="0"/>
        <pt x="352" y="41" on="1"/>
        <pt x="432" y="41" on="1"/>
        <pt x="467" y="41" on="0"/>
        <pt x="532" y="66" on="0"/>
        <pt x="587" y="110" on="0"/>
        <pt x="628" y="169" on="0"/>
        <pt x="639" y="204" on="1"/>
        <pt x="640" y="208" on="0"/>
        <pt x="651" y="208" on="1"/>
        <pt x="661" y="208" on="0"/>
        <pt x="677" y="199" on="0"/>
      </contour>
    </TTGlyph>
    <TTGlyph name="E.sc" xMin="37" yMin="-5" xMax="511" yMax="469">
      <component glyphName="e.sc" x="0" y="0" flags="0x204"/>
    </TTGlyph>
    <TTGlyph name="Eacute" xMin="36" yMin="-5" xMax="677" yMax="948">
      <component glyphName="acute.cap" x="224" y="0" flags="0x4"/>
      <component glyphName="E" x="0" y="0" flags="0x4"/>
    </TTGlyph>
    <TTGlyph name="Eacute.sc" xMin="37" yMin="-5" xMax="511" yMax="726">
      <component glyphName="acute" x="137" y="15" flags="0x4"/>
      <component glyphName="e.sc" x="0" y="0" flags="0x4"/>
    </TTGlyph>
    <TTGlyph name="Ebreve" xMin="36" yMin="-5" xMax="677" yMax="932">
      <component glyphName="breve.cap" x="180" y="0" flags="0x4"/>
      <component glyphName="E" x="0" y="0" flags="0x4"/>
    </TTGlyph>
    <TTGlyph name="Ebreve.sc" xMin="37" yMin="-5" xMax="511" yMax="705">
      <component glyphName="e.sc" x="0" y="0" flags="0x204"/>
      <component glyphName="breve" x="76" y="15" flags="0x4"/>
    </TTGlyph>
    <TTGlyph name="Ecaron" xMin="36" yMin="-5" xMax="677" yMax="940">
      <component glyphName="caron.cap" x="167" y="0" flags="0x4"/>
      <component glyphName="E" x="0" y="0" flags="0x4"/>
    </TTGlyph>
    <TTGlyph name="Ecaron.sc" xMin="37" yMin="-5" xMax="511" yMax="723">
      <component glyphName="caron" x="77" y="15" flags="0x4"/>
      <component glyphName="e.sc" x="0" y="0" flags="0x4"/>
    </TTGlyph>
    <TTGlyph name="Ecircumflex" xMin="36" yMin="-5" xMax="677" yMax="936">
      <component glyphName="E" x="0" y="0" flags="0x204"/>
      <component glyphName="circumflex.cap" x="167" y="0" flags="0x4"/>
    </TTGlyph>
    <TTGlyph name="Ecircumflex.sc" xMin="37" yMin="-5" xMax="511" yMax="728">
      <component glyphName="circumflex" x="77" y="15" flags="0x4"/>
      <component glyphName="e.sc" x="0" y="0" flags="0x4"/>
    </TTGlyph>
    <TTGlyph name="Edieresis" xMin="36" yMin="-5" xMax="677" yMax="906">
      <component glyphName="dieresis.cap" x="165" y="0" flags="0x4"/>
      <component glyphName="E" x="0" y="0" flags="0x4"/>
    </TTGlyph>
    <TTGlyph name="Edieresis.sc" xMin="37" yMin="-5" xMax="511" yMax="691">
      <component glyphName="dieresis" x="73" y="15" flags="0x4"/>
      <component glyphName="e.sc" x="0" y="0" flags="0x4"/>
    </TTGlyph>
    <TTGlyph name="Edotaccent" xMin="36" yMin="-5" xMax="677" yMax="906">
      <component glyphName="dotaccent.cap" x="167" y="0" flags="0x4"/>
      <component glyphName="E" x="0" y="0" flags="0x4"/>
    </TTGlyph>
    <TTGlyph name="Edotaccent.sc" xMin="37" yMin="-5" xMax="511" yMax="691">
      <component glyphName="dotaccent" x="76" y="15" flags="0x4"/>
      <component glyphName="e.sc" x="0" y="0" flags="0x4"/>
    </TTGlyph>
    <TTGlyph name="Egrave" xMin="36" yMin="-5" xMax="677" yMax="948">
      <component glyphName="grave.cap" x="110" y="0" flags="0x4"/>
      <component glyphName="E" x="0" y="0" flags="0x4"/>
    </TTGlyph>
    <TTGlyph name="Egrave.sc" xMin="37" yMin="-5" xMax="511" yMax="726">
      <component glyphName="grave" x="16" y="15" flags="0x4"/>
      <component glyphName="e.sc" x="0" y="0" flags="0x4"/>
    </TTGlyph>
    <TTGlyph name="Emacron" xMin="36" yMin="-5" xMax="677" yMax="862">
      <component glyphName="macron.cap" x="159" y="0" flags="0x4"/>
      <component glyphName="E" x="0" y="0" flags="0x4"/>
    </TTGlyph>
    <TTGlyph name="Emacron.sc" xMin="37" yMin="-5" xMax="511" yMax="640">
      <component glyphName="macron" x="72" y="15" flags="0x4"/>
      <component glyphName="e.sc" x="0" y="0" flags="0x4"/>
    </TTGlyph>
    <TTGlyph name="Eogonek" xMin="36" yMin="-219" xMax="677" yMax="690">
      <contour>
        <pt x="675" y="194" on="1"/>
        <pt x="662" y="149" on="0"/>
        <pt x="639" y="42" on="0"/>
        <pt x="631" y="-5" on="1"/>
        <pt x="616" y="-4" on="0"/>
        <pt x="573" y="-3" on="0"/>
        <pt x="549" y="-3" on="1"/>
        <pt x="523" y="-29" on="0"/>
        <pt x="497" y="-84" on="0"/>
        <pt x="497" y="-111" on="1"/>
        <pt x="497" y="-136" on="0"/>
        <pt x="525" y="-162" on="0"/>
        <pt x="550" y="-162" on="1"/>
        <pt x="561" y="-162" on="0"/>
        <pt x="585" y="-152" on="0"/>
        <pt x="595" y="-147" on="1"/>
        <pt x="599" y="-146" on="0"/>
        <pt x="606" y="-153" on="0"/>
        <pt x="609" y="-158" on="1"/>
        <pt x="614" y="-170" on="0"/>
        <pt x="610" y="-176" on="1"/>
        <pt x="594" y="-194" on="0"/>
        <pt x="545" y="-219" on="0"/>
        <pt x="508" y="-219" on="1"/>
        <pt x="457" y="-219" on="0"/>
        <pt x="409" y="-168" on="0"/>
        <pt x="409" y="-134" on="1"/>
        <pt x="409" y="-98" on="0"/>
        <pt x="454" y="-32" on="0"/>
        <pt x="492" y="-1" on="1"/>
        <pt x="448" y="0" on="0"/>
        <pt x="367" y="0" on="0"/>
        <pt x="341" y="0" on="1"/>
        <pt x="316" y="0" on="0"/>
        <pt x="235" y="-1" on="0"/>
        <pt x="148" y="-3" on="0"/>
        <pt x="68" y="-4" on="0"/>
        <pt x="44" y="-5" on="1"/>
        <pt x="41" y="-5" on="0"/>
        <pt x="36" y="7" on="0"/>
        <pt x="36" y="13" on="1"/>
        <pt x="36" y="18" on="0"/>
        <pt x="41" y="30" on="0"/>
        <pt x="44" y="31" on="1"/>
        <pt x="76" y="34" on="0"/>
        <pt x="116" y="47" on="0"/>
        <pt x="137" y="66" on="0"/>
        <pt x="144" y="95" on="0"/>
        <pt x="144" y="115" on="1"/>
        <pt x="144" y="569" on="1"/>
        <pt x="144" y="589" on="0"/>
        <pt x="137" y="618" on="0"/>
        <pt x="116" y="638" on="0"/>
        <pt x="76" y="650" on="0"/>
        <pt x="44" y="654" on="1"/>
        <pt x="41" y="654" on="0"/>
        <pt x="36" y="666" on="0"/>
        <pt x="36" y="672" on="1"/>
        <pt x="36" y="677" on="0"/>
        <pt x="41" y="690" on="0"/>
        <pt x="44" y="690" on="1"/>
        <pt x="68" y="689" on="0"/>
        <pt x="145" y="687" on="0"/>
        <pt x="228" y="686" on="0"/>
        <pt x="306" y="685" on="0"/>
        <pt x="331" y="685" on="1"/>
        <pt x="356" y="685" on="0"/>
        <pt x="433" y="686" on="0"/>
        <pt x="516" y="687" on="0"/>
        <pt x="593" y="689" on="0"/>
        <pt x="617" y="690" on="1"/>
        <pt x="619" y="648" on="0"/>
        <pt x="629" y="547" on="0"/>
        <pt x="637" y="503" on="1"/>
        <pt x="638" y="498" on="0"/>
        <pt x="625" y="490" on="0"/>
        <pt x="614" y="490" on="1"/>
        <pt x="602" y="490" on="0"/>
        <pt x="600" y="497" on="1"/>
        <pt x="586" y="564" on="0"/>
        <pt x="497" y="644" on="0"/>
        <pt x="432" y="644" on="1"/>
        <pt x="352" y="644" on="1"/>
        <pt x="342" y="644" on="0"/>
        <pt x="322" y="639" on="0"/>
        <pt x="305" y="626" on="0"/>
        <pt x="294" y="602" on="0"/>
        <pt x="294" y="584" on="1"/>
        <pt x="294" y="370" on="1"/>
        <pt x="374" y="370" on="1"/>
        <pt x="419" y="370" on="0"/>
        <pt x="471" y="416" on="0"/>
        <pt x="478" y="477" on="1"/>
        <pt x="479" y="481" on="0"/>
        <pt x="491" y="485" on="0"/>
        <pt x="496" y="485" on="1"/>
        <pt x="502" y="485" on="0"/>
        <pt x="514" y="481" on="0"/>
        <pt x="514" y="477" on="1"/>
        <pt x="514" y="458" on="0"/>
        <pt x="512" y="426" on="0"/>
        <pt x="511" y="396" on="0"/>
        <pt x="509" y="365" on="0"/>
        <pt x="509" y="347" on="1"/>
        <pt x="509" y="312" on="0"/>
        <pt x="514" y="256" on="0"/>
        <pt x="514" y="219" on="1"/>
        <pt x="514" y="216" on="0"/>
        <pt x="502" y="211" on="0"/>
        <pt x="496" y="211" on="1"/>
        <pt x="491" y="211" on="0"/>
        <pt x="479" y="216" on="0"/>
        <pt x="478" y="219" on="1"/>
        <pt x="471" y="280" on="0"/>
        <pt x="419" y="329" on="0"/>
        <pt x="374" y="329" on="1"/>
        <pt x="294" y="329" on="1"/>
        <pt x="294" y="100" on="1"/>
        <pt x="294" y="82" on="0"/>
        <pt x="305" y="59" on="0"/>
        <pt x="322" y="46" on="0"/>
        <pt x="342" y="41" on="0"/>
        <pt x="352" y="41" on="1"/>
        <pt x="432" y="41" on="1"/>
        <pt x="467" y="41" on="0"/>
        <pt x="532" y="66" on="0"/>
        <pt x="587" y="110" on="0"/>
        <pt x="628" y="169" on="0"/>
        <pt x="639" y="204" on="1"/>
        <pt x="640" y="208" on="0"/>
        <pt x="651" y="208" on="1"/>
        <pt x="661" y="208" on="0"/>
        <pt x="677" y="199" on="0"/>
      </contour>
    </TTGlyph>
    <TTGlyph name="Eogonek.sc" xMin="37" yMin="-219" xMax="511" yMax="469">
      <component glyphName="eogonek.sc" x="0" y="0" flags="0x204"/>
    </TTGlyph>
    <TTGlyph name="Eth" xMin="19" yMin="-7" xMax="817" yMax="689">
      <contour>
        <pt x="817" y="337" on="1"/>
        <pt x="817" y="268" on="0"/>
        <pt x="772" y="143" on="0"/>
        <pt x="676" y="49" on="0"/>
        <pt x="527" y="-7" on="0"/>
        <pt x="423" y="-7" on="1"/>
        <pt x="406" y="-7" on="0"/>
        <pt x="357" y="-6" on="0"/>
        <pt x="305" y="-4" on="0"/>
        <pt x="255" y="-3" on="0"/>
        <pt x="238" y="-3" on="1"/>
        <pt x="220" y="-3" on="0"/>
        <pt x="168" y="-3" on="0"/>
        <pt x="112" y="-4" on="0"/>
        <pt x="61" y="-6" on="0"/>
        <pt x="44" y="-7" on="1"/>
        <pt x="41" y="-7" on="0"/>
        <pt x="36" y="5" on="0"/>
        <pt x="36" y="11" on="1"/>
        <pt x="36" y="17" on="0"/>
        <pt x="41" y="29" on="0"/>
        <pt x="44" y="29" on="1"/>
        <pt x="76" y="33" on="0"/>
        <pt x="116" y="45" on="0"/>
        <pt x="137" y="65" on="0"/>
        <pt x="144" y="94" on="0"/>
        <pt x="144" y="114" on="1"/>
        <pt x="144" y="303" on="1"/>
        <pt x="31" y="299" on="1"/>
        <pt x="25" y="299" on="0"/>
        <pt x="19" y="319" on="0"/>
        <pt x="19" y="331" on="1"/>
        <pt x="19" y="342" on="0"/>
        <pt x="26" y="362" on="0"/>
        <pt x="31" y="362" on="1"/>
        <pt x="144" y="362" on="1"/>
        <pt x="144" y="568" on="1"/>
        <pt x="144" y="588" on="0"/>
        <pt x="137" y="617" on="0"/>
        <pt x="116" y="636" on="0"/>
        <pt x="76" y="649" on="0"/>
        <pt x="44" y="652" on="1"/>
        <pt x="41" y="653" on="0"/>
        <pt x="36" y="665" on="0"/>
        <pt x="36" y="670" on="1"/>
        <pt x="36" y="676" on="0"/>
        <pt x="41" y="689" on="0"/>
        <pt x="44" y="689" on="1"/>
        <pt x="61" y="688" on="0"/>
        <pt x="112" y="687" on="0"/>
        <pt x="168" y="686" on="0"/>
        <pt x="220" y="685" on="0"/>
        <pt x="238" y="685" on="1"/>
        <pt x="255" y="685" on="0"/>
        <pt x="305" y="686" on="0"/>
        <pt x="357" y="688" on="0"/>
        <pt x="406" y="689" on="0"/>
        <pt x="423" y="689" on="1"/>
        <pt x="521" y="689" on="0"/>
        <pt x="668" y="634" on="0"/>
        <pt x="767" y="538" on="0"/>
        <pt x="817" y="410" on="0"/>
      </contour>
      <contour>
        <pt x="659" y="337" on="1"/>
        <pt x="659" y="406" on="0"/>
        <pt x="628" y="521" on="0"/>
        <pt x="567" y="603" on="0"/>
        <pt x="477" y="648" on="0"/>
        <pt x="419" y="647" on="1"/>
        <pt x="352" y="645" on="1"/>
        <pt x="342" y="645" on="0"/>
        <pt x="321" y="640" on="0"/>
        <pt x="305" y="628" on="0"/>
        <pt x="294" y="605" on="0"/>
        <pt x="294" y="587" on="1"/>
        <pt x="294" y="362" on="1"/>
        <pt x="407" y="362" on="1"/>
        <pt x="412" y="362" on="0"/>
        <pt x="419" y="342" on="0"/>
        <pt x="419" y="331" on="1"/>
        <pt x="419" y="319" on="0"/>
        <pt x="412" y="299" on="0"/>
        <pt x="407" y="299" on="1"/>
        <pt x="294" y="303" on="1"/>
        <pt x="294" y="95" on="1"/>
        <pt x="294" y="77" on="0"/>
        <pt x="305" y="54" on="0"/>
        <pt x="321" y="42" on="0"/>
        <pt x="342" y="37" on="0"/>
        <pt x="352" y="37" on="1"/>
        <pt x="419" y="35" on="1"/>
        <pt x="476" y="35" on="0"/>
        <pt x="566" y="78" on="0"/>
        <pt x="627" y="158" on="0"/>
        <pt x="659" y="269" on="0"/>
      </contour>
    </TTGlyph>
    <TTGlyph name="Eth.sc" xMin="30" yMin="-4" xMax="619" yMax="470">
      <component glyphName="dcroat.sc" x="0" y="0" flags="0x204"/>
    </TTGlyph>
    <TTGlyph name="Euro" xMin="44" yMin="-21" xMax="742" yMax="633">
      <contour>
        <pt x="742" y="189" on="1"/>
        <pt x="739" y="172" on="0"/>
        <pt x="731" y="125" on="0"/>
        <pt x="723" y="76" on="0"/>
        <pt x="715" y="28" on="0"/>
        <pt x="712" y="10" on="1"/>
        <pt x="691" y="10" on="0"/>
        <pt x="639" y="0" on="0"/>
        <pt x="580" y="-11" on="0"/>
        <pt x="517" y="-21" on="0"/>
        <pt x="486" y="-21" on="1"/>
        <pt x="413" y="-21" on="0"/>
        <pt x="298" y="13" on="0"/>
        <pt x="213" y="73" on="0"/>
        <pt x="155" y="153" on="0"/>
        <pt x="140" y="198" on="1"/>
        <pt x="57" y="197" on="1"/>
        <pt x="51" y="197" on="0"/>
        <pt x="44" y="215" on="0"/>
        <pt x="44" y="226" on="1"/>
        <pt x="44" y="237" on="0"/>
        <pt x="51" y="256" on="0"/>
        <pt x="56" y="256" on="1"/>
        <pt x="127" y="255" on="1"/>
        <pt x="125" y="267" on="0"/>
        <pt x="123" y="291" on="0"/>
        <pt x="123" y="303" on="1"/>
        <pt x="123" y="325" on="0"/>
        <pt x="126" y="346" on="1"/>
        <pt x="57" y="345" on="1"/>
        <pt x="51" y="345" on="0"/>
        <pt x="44" y="363" on="0"/>
        <pt x="44" y="374" on="1"/>
        <pt x="44" y="385" on="0"/>
        <pt x="51" y="404" on="0"/>
        <pt x="56" y="404" on="1"/>
        <pt x="140" y="403" on="1"/>
        <pt x="156" y="451" on="0"/>
        <pt x="218" y="535" on="0"/>
        <pt x="308" y="597" on="0"/>
        <pt x="424" y="633" on="0"/>
        <pt x="494" y="633" on="1"/>
        <pt x="527" y="633" on="0"/>
        <pt x="584" y="627" on="0"/>
        <pt x="634" y="619" on="0"/>
        <pt x="679" y="613" on="0"/>
        <pt x="700" y="613" on="1"/>
        <pt x="701" y="594" on="0"/>
        <pt x="706" y="547" on="0"/>
        <pt x="710" y="499" on="0"/>
        <pt x="715" y="453" on="0"/>
        <pt x="718" y="435" on="1"/>
        <pt x="718" y="431" on="0"/>
        <pt x="704" y="427" on="0"/>
        <pt x="699" y="427" on="1"/>
        <pt x="694" y="427" on="0"/>
        <pt x="685" y="430" on="0"/>
        <pt x="684" y="435" on="1"/>
        <pt x="677" y="465" on="0"/>
        <pt x="643" y="522" on="0"/>
        <pt x="592" y="567" on="0"/>
        <pt x="527" y="595" on="0"/>
        <pt x="490" y="595" on="1"/>
        <pt x="448" y="595" on="0"/>
        <pt x="380" y="567" on="0"/>
        <pt x="328" y="516" on="0"/>
        <pt x="293" y="445" on="0"/>
        <pt x="284" y="403" on="1"/>
        <pt x="506" y="404" on="1"/>
        <pt x="511" y="404" on="0"/>
        <pt x="518" y="386" on="0"/>
        <pt x="518" y="374" on="1"/>
        <pt x="518" y="363" on="0"/>
        <pt x="512" y="345" on="0"/>
        <pt x="506" y="345" on="1"/>
        <pt x="276" y="346" on="1"/>
        <pt x="275" y="336" on="0"/>
        <pt x="275" y="314" on="0"/>
        <pt x="275" y="303" on="1"/>
        <pt x="275" y="291" on="0"/>
        <pt x="275" y="266" on="0"/>
        <pt x="277" y="255" on="1"/>
        <pt x="506" y="256" on="1"/>
        <pt x="511" y="256" on="0"/>
        <pt x="518" y="238" on="0"/>
        <pt x="518" y="226" on="1"/>
        <pt x="518" y="216" on="0"/>
        <pt x="512" y="197" on="0"/>
        <pt x="506" y="197" on="1"/>
        <pt x="286" y="198" on="1"/>
        <pt x="296" y="158" on="0"/>
        <pt x="331" y="92" on="0"/>
        <pt x="381" y="44" on="0"/>
        <pt x="446" y="18" on="0"/>
        <pt x="486" y="18" on="1"/>
        <pt x="529" y="18" on="0"/>
        <pt x="599" y="45" on="0"/>
        <pt x="653" y="91" on="0"/>
        <pt x="694" y="153" on="0"/>
        <pt x="708" y="189" on="1"/>
        <pt x="710" y="193" on="0"/>
        <pt x="719" y="196" on="0"/>
        <pt x="724" y="196" on="1"/>
        <pt x="730" y="196" on="0"/>
        <pt x="741" y="192" on="0"/>
      </contour>
    </TTGlyph>
    <TTGlyph name="Euro.lin" xMin="41" yMin="-21" xMax="803" yMax="706">
      <contour>
        <pt x="803" y="210" on="1"/>
        <pt x="800" y="190" on="0"/>
        <pt x="791" y="140" on="0"/>
        <pt x="783" y="87" on="0"/>
        <pt x="775" y="36" on="0"/>
        <pt x="772" y="16" on="1"/>
        <pt x="749" y="16" on="0"/>
        <pt x="692" y="4" on="0"/>
        <pt x="628" y="-9" on="0"/>
        <pt x="558" y="-21" on="0"/>
        <pt x="522" y="-21" on="1"/>
        <pt x="442" y="-21" on="0"/>
        <pt x="315" y="18" on="0"/>
        <pt x="221" y="85" on="0"/>
        <pt x="158" y="176" on="0"/>
        <pt x="142" y="227" on="1"/>
        <pt x="54" y="226" on="1"/>
        <pt x="48" y="226" on="0"/>
        <pt x="41" y="245" on="0"/>
        <pt x="41" y="257" on="1"/>
        <pt x="41" y="268" on="0"/>
        <pt x="48" y="288" on="0"/>
        <pt x="53" y="288" on="1"/>
        <pt x="128" y="287" on="1"/>
        <pt x="126" y="300" on="0"/>
        <pt x="124" y="326" on="0"/>
        <pt x="124" y="339" on="1"/>
        <pt x="124" y="363" on="0"/>
        <pt x="127" y="386" on="1"/>
        <pt x="54" y="385" on="1"/>
        <pt x="48" y="384" on="0"/>
        <pt x="41" y="404" on="0"/>
        <pt x="41" y="416" on="1"/>
        <pt x="41" y="427" on="0"/>
        <pt x="48" y="447" on="0"/>
        <pt x="53" y="447" on="1"/>
        <pt x="141" y="446" on="1"/>
        <pt x="159" y="501" on="0"/>
        <pt x="227" y="596" on="0"/>
        <pt x="326" y="666" on="0"/>
        <pt x="454" y="706" on="0"/>
        <pt x="531" y="706" on="1"/>
        <pt x="568" y="706" on="0"/>
        <pt x="632" y="698" on="0"/>
        <pt x="687" y="689" on="0"/>
        <pt x="736" y="682" on="0"/>
        <pt x="759" y="682" on="1"/>
        <pt x="760" y="660" on="0"/>
        <pt x="765" y="609" on="0"/>
        <pt x="770" y="558" on="0"/>
        <pt x="775" y="508" on="0"/>
        <pt x="778" y="488" on="1"/>
        <pt x="778" y="484" on="0"/>
        <pt x="763" y="480" on="0"/>
        <pt x="757" y="480" on="1"/>
        <pt x="744" y="480" on="0"/>
        <pt x="741" y="488" on="1"/>
        <pt x="734" y="522" on="0"/>
        <pt x="696" y="586" on="0"/>
        <pt x="640" y="636" on="0"/>
        <pt x="568" y="666" on="0"/>
        <pt x="527" y="666" on="1"/>
        <pt x="479" y="666" on="0"/>
        <pt x="401" y="633" on="0"/>
        <pt x="343" y="575" on="0"/>
        <pt x="303" y="494" on="0"/>
        <pt x="293" y="445" on="1"/>
        <pt x="547" y="447" on="1"/>
        <pt x="552" y="447" on="0"/>
        <pt x="559" y="428" on="0"/>
        <pt x="559" y="416" on="1"/>
        <pt x="559" y="405" on="0"/>
        <pt x="554" y="385" on="0"/>
        <pt x="547" y="385" on="1"/>
        <pt x="284" y="386" on="1"/>
        <pt x="283" y="375" on="0"/>
        <pt x="282" y="351" on="0"/>
        <pt x="282" y="339" on="1"/>
        <pt x="282" y="311" on="0"/>
        <pt x="285" y="287" on="1"/>
        <pt x="547" y="288" on="1"/>
        <pt x="552" y="288" on="0"/>
        <pt x="559" y="269" on="0"/>
        <pt x="559" y="257" on="1"/>
        <pt x="559" y="246" on="0"/>
        <pt x="554" y="226" on="0"/>
        <pt x="547" y="226" on="1"/>
        <pt x="294" y="227" on="1"/>
        <pt x="305" y="181" on="0"/>
        <pt x="345" y="105" on="0"/>
        <pt x="402" y="50" on="0"/>
        <pt x="477" y="19" on="0"/>
        <pt x="522" y="19" on="1"/>
        <pt x="570" y="19" on="0"/>
        <pt x="647" y="49" on="0"/>
        <pt x="707" y="101" on="0"/>
        <pt x="752" y="170" on="0"/>
        <pt x="767" y="210" on="1"/>
        <pt x="769" y="215" on="0"/>
        <pt x="780" y="218" on="0"/>
        <pt x="785" y="218" on="1"/>
        <pt x="791" y="218" on="0"/>
        <pt x="803" y="213" on="0"/>
      </contour>
    </TTGlyph>
    <TTGlyph name="Euro.sc" xMin="43" yMin="-21" xMax="606" yMax="482">
      <contour>
        <pt x="606" y="146" on="1"/>
        <pt x="603" y="133" on="0"/>
        <pt x="596" y="95" on="0"/>
        <pt x="589" y="54" on="0"/>
        <pt x="583" y="14" on="0"/>
        <pt x="581" y="0" on="1"/>
        <pt x="564" y="0" on="0"/>
        <pt x="521" y="-7" on="0"/>
        <pt x="475" y="-14" on="0"/>
        <pt x="427" y="-21" on="0"/>
        <pt x="405" y="-21" on="1"/>
        <pt x="347" y="-21" on="0"/>
        <pt x="256" y="4" on="0"/>
        <pt x="189" y="48" on="0"/>
        <pt x="144" y="106" on="0"/>
        <pt x="132" y="139" on="1"/>
        <pt x="56" y="138" on="1"/>
        <pt x="51" y="138" on="0"/>
        <pt x="43" y="154" on="0"/>
        <pt x="43" y="164" on="1"/>
        <pt x="43" y="174" on="0"/>
        <pt x="50" y="191" on="0"/>
        <pt x="55" y="190" on="1"/>
        <pt x="118" y="190" on="1"/>
        <pt x="115" y="208" on="0"/>
        <pt x="115" y="228" on="1"/>
        <pt x="115" y="246" on="0"/>
        <pt x="118" y="263" on="1"/>
        <pt x="56" y="263" on="1"/>
        <pt x="51" y="262" on="0"/>
        <pt x="43" y="277" on="0"/>
        <pt x="43" y="288" on="1"/>
        <pt x="43" y="298" on="0"/>
        <pt x="50" y="315" on="0"/>
        <pt x="55" y="315" on="1"/>
        <pt x="131" y="314" on="1"/>
        <pt x="144" y="350" on="0"/>
        <pt x="193" y="411" on="0"/>
        <pt x="263" y="456" on="0"/>
        <pt x="355" y="482" on="0"/>
        <pt x="411" y="482" on="1"/>
        <pt x="457" y="482" on="0"/>
        <pt x="535" y="470" on="0"/>
        <pt x="570" y="470" on="1"/>
        <pt x="571" y="455" on="0"/>
        <pt x="575" y="417" on="0"/>
        <pt x="579" y="377" on="0"/>
        <pt x="583" y="339" on="0"/>
        <pt x="585" y="324" on="1"/>
        <pt x="586" y="321" on="0"/>
        <pt x="574" y="319" on="0"/>
        <pt x="570" y="319" on="1"/>
        <pt x="565" y="319" on="0"/>
        <pt x="557" y="321" on="0"/>
        <pt x="556" y="324" on="1"/>
        <pt x="551" y="345" on="0"/>
        <pt x="524" y="389" on="0"/>
        <pt x="485" y="424" on="0"/>
        <pt x="436" y="446" on="0"/>
        <pt x="408" y="446" on="1"/>
        <pt x="345" y="446" on="0"/>
        <pt x="275" y="375" on="0"/>
        <pt x="261" y="314" on="1"/>
        <pt x="412" y="315" on="1"/>
        <pt x="417" y="315" on="0"/>
        <pt x="424" y="299" on="0"/>
        <pt x="424" y="288" on="1"/>
        <pt x="424" y="277" on="0"/>
        <pt x="418" y="263" on="0"/>
        <pt x="412" y="263" on="1"/>
        <pt x="253" y="263" on="1"/>
        <pt x="252" y="255" on="0"/>
        <pt x="252" y="237" on="0"/>
        <pt x="252" y="228" on="1"/>
        <pt x="252" y="218" on="0"/>
        <pt x="253" y="199" on="0"/>
        <pt x="254" y="190" on="1"/>
        <pt x="412" y="190" on="1"/>
        <pt x="417" y="190" on="0"/>
        <pt x="424" y="174" on="0"/>
        <pt x="424" y="164" on="1"/>
        <pt x="424" y="154" on="0"/>
        <pt x="418" y="138" on="0"/>
        <pt x="412" y="138" on="1"/>
        <pt x="262" y="139" on="1"/>
        <pt x="276" y="82" on="0"/>
        <pt x="345" y="15" on="0"/>
        <pt x="405" y="15" on="1"/>
        <pt x="437" y="15" on="0"/>
        <pt x="490" y="35" on="0"/>
        <pt x="533" y="71" on="0"/>
        <pt x="565" y="119" on="0"/>
        <pt x="577" y="146" on="1"/>
        <pt x="578" y="150" on="0"/>
        <pt x="586" y="152" on="0"/>
        <pt x="591" y="152" on="1"/>
        <pt x="596" y="152" on="0"/>
        <pt x="605" y="149" on="0"/>
      </contour>
    </TTGlyph>
    <TTGlyph name="F" xMin="37" yMin="-5" xMax="642" yMax="690">
      <contour>
        <pt x="641" y="499" on="1"/>
        <pt x="642" y="494" on="0"/>
        <pt x="627" y="486" on="0"/>
        <pt x="619" y="486" on="1"/>
        <pt x="614" y="486" on="0"/>
        <pt x="605" y="491" on="0"/>
        <pt x="605" y="493" on="1"/>
        <pt x="590" y="561" on="0"/>
        <pt x="496" y="644" on="0"/>
        <pt x="428" y="644" on="1"/>
        <pt x="353" y="644" on="1"/>
        <pt x="343" y="644" on="0"/>
        <pt x="322" y="639" on="0"/>
        <pt x="305" y="626" on="0"/>
        <pt x="294" y="602" on="0"/>
        <pt x="294" y="584" on="1"/>
        <pt x="294" y="367" on="1"/>
        <pt x="376" y="367" on="1"/>
        <pt x="421" y="367" on="0"/>
        <pt x="473" y="414" on="0"/>
        <pt x="481" y="475" on="1"/>
        <pt x="481" y="479" on="0"/>
        <pt x="493" y="483" on="0"/>
        <pt x="499" y="483" on="1"/>
        <pt x="505" y="483" on="0"/>
        <pt x="517" y="479" on="0"/>
        <pt x="517" y="475" on="1"/>
        <pt x="517" y="456" on="0"/>
        <pt x="515" y="424" on="0"/>
        <pt x="513" y="394" on="0"/>
        <pt x="511" y="363" on="0"/>
        <pt x="511" y="345" on="1"/>
        <pt x="511" y="310" on="0"/>
        <pt x="517" y="254" on="0"/>
        <pt x="517" y="217" on="1"/>
        <pt x="517" y="214" on="0"/>
        <pt x="505" y="209" on="0"/>
        <pt x="499" y="209" on="1"/>
        <pt x="493" y="209" on="0"/>
        <pt x="481" y="214" on="0"/>
        <pt x="481" y="217" on="1"/>
        <pt x="473" y="278" on="0"/>
        <pt x="421" y="327" on="0"/>
        <pt x="376" y="327" on="1"/>
        <pt x="294" y="327" on="1"/>
        <pt x="294" y="115" on="1"/>
        <pt x="294" y="95" on="0"/>
        <pt x="302" y="66" on="0"/>
        <pt x="325" y="47" on="0"/>
        <pt x="365" y="34" on="0"/>
        <pt x="398" y="31" on="1"/>
        <pt x="401" y="30" on="0"/>
        <pt x="406" y="18" on="0"/>
        <pt x="406" y="13" on="1"/>
        <pt x="406" y="7" on="0"/>
        <pt x="401" y="-5" on="0"/>
        <pt x="398" y="-5" on="1"/>
        <pt x="348" y="-5" on="0"/>
        <pt x="266" y="0" on="0"/>
        <pt x="219" y="0" on="1"/>
        <pt x="172" y="0" on="0"/>
        <pt x="95" y="-5" on="0"/>
        <pt x="45" y="-5" on="1"/>
        <pt x="41" y="-5" on="0"/>
        <pt x="37" y="7" on="0"/>
        <pt x="37" y="13" on="1"/>
        <pt x="37" y="18" on="0"/>
        <pt x="41" y="30" on="0"/>
        <pt x="45" y="31" on="1"/>
        <pt x="77" y="34" on="0"/>
        <pt x="116" y="47" on="0"/>
        <pt x="137" y="66" on="0"/>
        <pt x="144" y="95" on="0"/>
        <pt x="144" y="115" on="1"/>
        <pt x="144" y="569" on="1"/>
        <pt x="144" y="589" on="0"/>
        <pt x="137" y="618" on="0"/>
        <pt x="116" y="638" on="0"/>
        <pt x="77" y="650" on="0"/>
        <pt x="45" y="654" on="1"/>
        <pt x="41" y="654" on="0"/>
        <pt x="37" y="666" on="0"/>
        <pt x="37" y="672" on="1"/>
        <pt x="37" y="677" on="0"/>
        <pt x="41" y="690" on="0"/>
        <pt x="45" y="690" on="1"/>
        <pt x="69" y="689" on="0"/>
        <pt x="146" y="687" on="0"/>
        <pt x="230" y="686" on="0"/>
        <pt x="308" y="685" on="0"/>
        <pt x="333" y="685" on="1"/>
        <pt x="358" y="685" on="0"/>
        <pt x="435" y="686" on="0"/>
        <pt x="518" y="687" on="0"/>
        <pt x="593" y="689" on="0"/>
        <pt x="617" y="690" on="1"/>
        <pt x="622" y="646" on="0"/>
        <pt x="632" y="544" on="0"/>
      </contour>
    </TTGlyph>
    <TTGlyph name="F.sc" xMin="37" yMin="-5" xMax="482" yMax="469">
      <component glyphName="f.sc" x="0" y="0" flags="0x204"/>
    </TTGlyph>
    <TTGlyph name="G" xMin="43" yMin="-21" xMax="815" yMax="706">
      <contour>
        <pt x="815" y="302" on="1"/>
        <pt x="815" y="297" on="0"/>
        <pt x="810" y="284" on="0"/>
        <pt x="807" y="283" on="1"/>
        <pt x="777" y="280" on="0"/>
        <pt x="740" y="267" on="0"/>
        <pt x="720" y="246" on="0"/>
        <pt x="713" y="218" on="0"/>
        <pt x="713" y="199" on="1"/>
        <pt x="713" y="119" on="1"/>
        <pt x="713" y="84" on="0"/>
        <pt x="718" y="50" on="0"/>
        <pt x="724" y="36" on="1"/>
        <pt x="695" y="25" on="0"/>
        <pt x="624" y="5" on="0"/>
        <pt x="547" y="-11" on="0"/>
        <pt x="470" y="-21" on="0"/>
        <pt x="434" y="-21" on="1"/>
        <pt x="336" y="-21" on="0"/>
        <pt x="189" y="39" on="0"/>
        <pt x="91" y="140" on="0"/>
        <pt x="43" y="270" on="0"/>
        <pt x="43" y="339" on="1"/>
        <pt x="43" y="412" on="0"/>
        <pt x="99" y="545" on="0"/>
        <pt x="206" y="646" on="0"/>
        <pt x="362" y="706" on="0"/>
        <pt x="463" y="706" on="1"/>
        <pt x="494" y="706" on="0"/>
        <pt x="554" y="696" on="0"/>
        <pt x="611" y="683" on="0"/>
        <pt x="664" y="673" on="0"/>
        <pt x="690" y="673" on="1"/>
        <pt x="691" y="652" on="0"/>
        <pt x="694" y="601" on="0"/>
        <pt x="698" y="550" on="0"/>
        <pt x="702" y="501" on="0"/>
        <pt x="704" y="481" on="1"/>
        <pt x="704" y="477" on="0"/>
        <pt x="690" y="473" on="0"/>
        <pt x="684" y="473" on="1"/>
        <pt x="678" y="473" on="0"/>
        <pt x="669" y="476" on="0"/>
        <pt x="668" y="481" on="1"/>
        <pt x="645" y="564" on="0"/>
        <pt x="529" y="665" on="0"/>
        <pt x="438" y="665" on="1"/>
        <pt x="385" y="665" on="0"/>
        <pt x="299" y="616" on="0"/>
        <pt x="236" y="529" on="0"/>
        <pt x="202" y="409" on="0"/>
        <pt x="202" y="339" on="1"/>
        <pt x="202" y="271" on="0"/>
        <pt x="236" y="155" on="0"/>
        <pt x="297" y="68" on="0"/>
        <pt x="383" y="19" on="0"/>
        <pt x="434" y="19" on="1"/>
        <pt x="499" y="19" on="0"/>
        <pt x="569" y="51" on="0"/>
        <pt x="569" y="92" on="1"/>
        <pt x="569" y="217" on="1"/>
        <pt x="569" y="251" on="0"/>
        <pt x="512" y="275" on="0"/>
        <pt x="444" y="282" on="1"/>
        <pt x="440" y="282" on="0"/>
        <pt x="436" y="295" on="0"/>
        <pt x="436" y="302" on="1"/>
        <pt x="436" y="308" on="0"/>
        <pt x="440" y="320" on="0"/>
        <pt x="444" y="320" on="1"/>
        <pt x="494" y="320" on="0"/>
        <pt x="577" y="314" on="0"/>
        <pt x="624" y="314" on="1"/>
        <pt x="670" y="314" on="0"/>
        <pt x="757" y="320" on="0"/>
        <pt x="807" y="320" on="1"/>
        <pt x="810" y="320" on="0"/>
        <pt x="815" y="308" on="0"/>
      </contour>
    </TTGlyph>
    <TTGlyph name="G.sc" xMin="32" yMin="-19" xMax="598" yMax="484">
      <component glyphName="g.sc" x="0" y="0" flags="0x204"/>
    </TTGlyph>
    <TTGlyph name="Gbreve" xMin="43" yMin="-21" xMax="815" yMax="947">
      <component glyphName="breve.cap" x="262" y="15" flags="0x4"/>
      <component glyphName="G" x="0" y="0" flags="0x4"/>
    </TTGlyph>
    <TTGlyph name="Gbreve.sc" xMin="32" yMin="-19" xMax="598" yMax="712">
      <component glyphName="g.sc" x="0" y="0" flags="0x204"/>
      <component glyphName="breve" x="125" y="22" flags="0x4"/>
    </TTGlyph>
    <TTGlyph name="Gcommaaccent" xMin="43" yMin="-318" xMax="815" yMax="706">
      <component glyphName="commaaccent" x="318" y="-14" flags="0x4"/>
      <component glyphName="G" x="0" y="0" flags="0x4"/>
    </TTGlyph>
    <TTGlyph name="Gcommaaccent.sc" xMin="32" yMin="-313" xMax="598" yMax="484">
      <component glyphName="commaaccent" x="196" y="-9" flags="0x4"/>
      <component glyphName="g.sc" x="0" y="0" flags="0x4"/>
    </TTGlyph>
    <TTGlyph name="Gdotaccent" xMin="43" yMin="-21" xMax="815" yMax="921">
      <component glyphName="dotaccent.cap" x="250" y="15" flags="0x4"/>
      <component glyphName="G" x="0" y="0" flags="0x4"/>
    </TTGlyph>
    <TTGlyph name="Gdotaccent.sc" xMin="32" yMin="-19" xMax="598" yMax="698">
      <component glyphName="g.sc" x="0" y="0" flags="0x204"/>
      <component glyphName="dotaccent" x="125" y="22" flags="0x4"/>
    </TTGlyph>
    <TTGlyph name="H" xMin="36" yMin="-5" xMax="878" yMax="690">
      <contour>
        <pt x="878" y="13" on="1"/>
        <pt x="878" y="7" on="0"/>
        <pt x="873" y="-5" on="0"/>
        <pt x="870" y="-5" on="1"/>
        <pt x="820" y="-5" on="0"/>
        <pt x="741" y="0" on="0"/>
        <pt x="695" y="0" on="1"/>
        <pt x="672" y="0" on="0"/>
        <pt x="632" y="-2" on="0"/>
        <pt x="594" y="-3" on="0"/>
        <pt x="553" y="-5" on="0"/>
        <pt x="528" y="-5" on="1"/>
        <pt x="524" y="-5" on="0"/>
        <pt x="520" y="7" on="0"/>
        <pt x="520" y="13" on="1"/>
        <pt x="520" y="18" on="0"/>
        <pt x="524" y="30" on="0"/>
        <pt x="528" y="31" on="1"/>
        <pt x="560" y="34" on="0"/>
        <pt x="597" y="47" on="0"/>
        <pt x="615" y="66" on="0"/>
        <pt x="619" y="95" on="0"/>
        <pt x="619" y="115" on="1"/>
        <pt x="619" y="325" on="1"/>
        <pt x="294" y="325" on="1"/>
        <pt x="294" y="115" on="1"/>
        <pt x="294" y="95" on="0"/>
        <pt x="298" y="66" on="0"/>
        <pt x="316" y="47" on="0"/>
        <pt x="353" y="34" on="0"/>
        <pt x="385" y="31" on="1"/>
        <pt x="389" y="30" on="0"/>
        <pt x="393" y="18" on="0"/>
        <pt x="393" y="13" on="1"/>
        <pt x="393" y="7" on="0"/>
        <pt x="389" y="-5" on="0"/>
        <pt x="385" y="-5" on="1"/>
        <pt x="360" y="-5" on="0"/>
        <pt x="320" y="-3" on="0"/>
        <pt x="281" y="-2" on="0"/>
        <pt x="242" y="0" on="0"/>
        <pt x="219" y="0" on="1"/>
        <pt x="172" y="0" on="0"/>
        <pt x="94" y="-5" on="0"/>
        <pt x="44" y="-5" on="1"/>
        <pt x="41" y="-5" on="0"/>
        <pt x="36" y="7" on="0"/>
        <pt x="36" y="13" on="1"/>
        <pt x="36" y="18" on="0"/>
        <pt x="41" y="30" on="0"/>
        <pt x="44" y="31" on="1"/>
        <pt x="76" y="34" on="0"/>
        <pt x="116" y="47" on="0"/>
        <pt x="137" y="66" on="0"/>
        <pt x="144" y="95" on="0"/>
        <pt x="144" y="115" on="1"/>
        <pt x="144" y="569" on="1"/>
        <pt x="144" y="589" on="0"/>
        <pt x="137" y="618" on="0"/>
        <pt x="116" y="638" on="0"/>
        <pt x="76" y="650" on="0"/>
        <pt x="44" y="654" on="1"/>
        <pt x="41" y="654" on="0"/>
        <pt x="36" y="666" on="0"/>
        <pt x="36" y="672" on="1"/>
        <pt x="36" y="677" on="0"/>
        <pt x="41" y="690" on="0"/>
        <pt x="44" y="690" on="1"/>
        <pt x="94" y="690" on="0"/>
        <pt x="172" y="685" on="0"/>
        <pt x="219" y="685" on="1"/>
        <pt x="242" y="685" on="0"/>
        <pt x="281" y="687" on="0"/>
        <pt x="320" y="688" on="0"/>
        <pt x="360" y="690" on="0"/>
        <pt x="385" y="690" on="1"/>
        <pt x="389" y="690" on="0"/>
        <pt x="393" y="677" on="0"/>
        <pt x="393" y="672" on="1"/>
        <pt x="393" y="666" on="0"/>
        <pt x="389" y="654" on="0"/>
        <pt x="385" y="654" on="1"/>
        <pt x="353" y="650" on="0"/>
        <pt x="316" y="638" on="0"/>
        <pt x="298" y="618" on="0"/>
        <pt x="294" y="589" on="0"/>
        <pt x="294" y="569" on="1"/>
        <pt x="294" y="366" on="1"/>
        <pt x="619" y="366" on="1"/>
        <pt x="619" y="569" on="1"/>
        <pt x="619" y="589" on="0"/>
        <pt x="615" y="618" on="0"/>
        <pt x="597" y="638" on="0"/>
        <pt x="560" y="650" on="0"/>
        <pt x="528" y="654" on="1"/>
        <pt x="524" y="654" on="0"/>
        <pt x="520" y="666" on="0"/>
        <pt x="520" y="672" on="1"/>
        <pt x="520" y="677" on="0"/>
        <pt x="524" y="690" on="0"/>
        <pt x="528" y="690" on="1"/>
        <pt x="553" y="690" on="0"/>
        <pt x="594" y="688" on="0"/>
        <pt x="632" y="687" on="0"/>
        <pt x="672" y="685" on="0"/>
        <pt x="695" y="685" on="1"/>
        <pt x="741" y="685" on="0"/>
        <pt x="820" y="690" on="0"/>
        <pt x="870" y="690" on="1"/>
        <pt x="873" y="690" on="0"/>
        <pt x="878" y="677" on="0"/>
        <pt x="878" y="672" on="1"/>
        <pt x="878" y="666" on="0"/>
        <pt x="873" y="654" on="0"/>
        <pt x="870" y="654" on="1"/>
        <pt x="837" y="650" on="0"/>
        <pt x="798" y="638" on="0"/>
        <pt x="777" y="618" on="0"/>
        <pt x="770" y="589" on="0"/>
        <pt x="770" y="569" on="1"/>
        <pt x="770" y="115" on="1"/>
        <pt x="770" y="95" on="0"/>
        <pt x="777" y="66" on="0"/>
        <pt x="798" y="47" on="0"/>
        <pt x="837" y="34" on="0"/>
        <pt x="870" y="31" on="1"/>
        <pt x="873" y="30" on="0"/>
        <pt x="878" y="18" on="0"/>
      </contour>
    </TTGlyph>
    <TTGlyph name="H.sc" xMin="37" yMin="-5" xMax="655" yMax="469">
      <component glyphName="h.sc" x="0" y="0" flags="0x204"/>
    </TTGlyph>
    <TTGlyph name="Hbar" xMin="33" yMin="-5" xMax="881" yMax="690">
      <contour>
        <pt x="878" y="13" on="1"/>
        <pt x="878" y="7" on="0"/>
        <pt x="873" y="-5" on="0"/>
        <pt x="870" y="-5" on="1"/>
        <pt x="820" y="-5" on="0"/>
        <pt x="741" y="0" on="0"/>
        <pt x="695" y="0" on="1"/>
        <pt x="672" y="0" on="0"/>
        <pt x="632" y="-2" on="0"/>
        <pt x="594" y="-3" on="0"/>
        <pt x="553" y="-5" on="0"/>
        <pt x="528" y="-5" on="1"/>
        <pt x="524" y="-5" on="0"/>
        <pt x="520" y="7" on="0"/>
        <pt x="520" y="13" on="1"/>
        <pt x="520" y="18" on="0"/>
        <pt x="524" y="30" on="0"/>
        <pt x="528" y="31" on="1"/>
        <pt x="560" y="34" on="0"/>
        <pt x="597" y="47" on="0"/>
        <pt x="615" y="66" on="0"/>
        <pt x="619" y="95" on="0"/>
        <pt x="619" y="115" on="1"/>
        <pt x="619" y="325" on="1"/>
        <pt x="294" y="325" on="1"/>
        <pt x="294" y="115" on="1"/>
        <pt x="294" y="95" on="0"/>
        <pt x="298" y="66" on="0"/>
        <pt x="316" y="47" on="0"/>
        <pt x="353" y="34" on="0"/>
        <pt x="385" y="31" on="1"/>
        <pt x="389" y="30" on="0"/>
        <pt x="393" y="18" on="0"/>
        <pt x="393" y="13" on="1"/>
        <pt x="393" y="7" on="0"/>
        <pt x="389" y="-5" on="0"/>
        <pt x="385" y="-5" on="1"/>
        <pt x="360" y="-5" on="0"/>
        <pt x="320" y="-3" on="0"/>
        <pt x="281" y="-2" on="0"/>
        <pt x="242" y="0" on="0"/>
        <pt x="219" y="0" on="1"/>
        <pt x="172" y="0" on="0"/>
        <pt x="94" y="-5" on="0"/>
        <pt x="44" y="-5" on="1"/>
        <pt x="41" y="-5" on="0"/>
        <pt x="36" y="7" on="0"/>
        <pt x="36" y="13" on="1"/>
        <pt x="36" y="18" on="0"/>
        <pt x="41" y="30" on="0"/>
        <pt x="44" y="31" on="1"/>
        <pt x="76" y="34" on="0"/>
        <pt x="116" y="47" on="0"/>
        <pt x="137" y="66" on="0"/>
        <pt x="144" y="95" on="0"/>
        <pt x="144" y="115" on="1"/>
        <pt x="144" y="498" on="1"/>
        <pt x="45" y="498" on="1"/>
        <pt x="33" y="498" on="0"/>
        <pt x="33" y="520" on="1"/>
        <pt x="33" y="542" on="0"/>
        <pt x="45" y="542" on="1"/>
        <pt x="144" y="542" on="1"/>
        <pt x="144" y="569" on="1"/>
        <pt x="144" y="589" on="0"/>
        <pt x="137" y="618" on="0"/>
        <pt x="116" y="638" on="0"/>
        <pt x="76" y="650" on="0"/>
        <pt x="44" y="654" on="1"/>
        <pt x="41" y="654" on="0"/>
        <pt x="36" y="666" on="0"/>
        <pt x="36" y="672" on="1"/>
        <pt x="36" y="677" on="0"/>
        <pt x="41" y="690" on="0"/>
        <pt x="44" y="690" on="1"/>
        <pt x="94" y="690" on="0"/>
        <pt x="172" y="685" on="0"/>
        <pt x="219" y="685" on="1"/>
        <pt x="242" y="685" on="0"/>
        <pt x="281" y="687" on="0"/>
        <pt x="320" y="688" on="0"/>
        <pt x="360" y="690" on="0"/>
        <pt x="385" y="690" on="1"/>
        <pt x="389" y="690" on="0"/>
        <pt x="393" y="677" on="0"/>
        <pt x="393" y="672" on="1"/>
        <pt x="393" y="666" on="0"/>
        <pt x="389" y="654" on="0"/>
        <pt x="385" y="654" on="1"/>
        <pt x="353" y="650" on="0"/>
        <pt x="316" y="638" on="0"/>
        <pt x="298" y="618" on="0"/>
        <pt x="294" y="589" on="0"/>
        <pt x="294" y="569" on="1"/>
        <pt x="294" y="541" on="1"/>
        <pt x="619" y="541" on="1"/>
        <pt x="619" y="569" on="1"/>
        <pt x="619" y="589" on="0"/>
        <pt x="615" y="618" on="0"/>
        <pt x="597" y="638" on="0"/>
        <pt x="560" y="650" on="0"/>
        <pt x="528" y="654" on="1"/>
        <pt x="524" y="654" on="0"/>
        <pt x="520" y="666" on="0"/>
        <pt x="520" y="672" on="1"/>
        <pt x="520" y="677" on="0"/>
        <pt x="524" y="690" on="0"/>
        <pt x="528" y="690" on="1"/>
        <pt x="553" y="690" on="0"/>
        <pt x="594" y="688" on="0"/>
        <pt x="632" y="687" on="0"/>
        <pt x="672" y="685" on="0"/>
        <pt x="695" y="685" on="1"/>
        <pt x="741" y="685" on="0"/>
        <pt x="820" y="690" on="0"/>
        <pt x="870" y="690" on="1"/>
        <pt x="873" y="690" on="0"/>
        <pt x="878" y="677" on="0"/>
        <pt x="878" y="672" on="1"/>
        <pt x="878" y="666" on="0"/>
        <pt x="873" y="654" on="0"/>
        <pt x="870" y="654" on="1"/>
        <pt x="837" y="650" on="0"/>
        <pt x="798" y="638" on="0"/>
        <pt x="777" y="618" on="0"/>
        <pt x="770" y="589" on="0"/>
        <pt x="770" y="569" on="1"/>
        <pt x="770" y="542" on="1"/>
        <pt x="868" y="542" on="1"/>
        <pt x="881" y="542" on="0"/>
        <pt x="881" y="520" on="1"/>
        <pt x="881" y="498" on="0"/>
        <pt x="868" y="498" on="1"/>
        <pt x="770" y="498" on="1"/>
        <pt x="770" y="115" on="1"/>
        <pt x="770" y="95" on="0"/>
        <pt x="777" y="66" on="0"/>
        <pt x="798" y="47" on="0"/>
        <pt x="837" y="34" on="0"/>
        <pt x="870" y="31" on="1"/>
        <pt x="873" y="30" on="0"/>
        <pt x="878" y="18" on="0"/>
      </contour>
      <contour>
        <pt x="619" y="366" on="1"/>
        <pt x="619" y="499" on="1"/>
        <pt x="294" y="499" on="1"/>
        <pt x="294" y="366" on="1"/>
      </contour>
    </TTGlyph>
    <TTGlyph name="Hbar.sc" xMin="33" yMin="-5" xMax="661" yMax="469">
      <component glyphName="hbar.sc" x="0" y="0" flags="0x204"/>
    </TTGlyph>
    <TTGlyph name="I" xMin="50" yMin="-5" xMax="416" yMax="690">
      <contour>
        <pt x="416" y="13" on="1"/>
        <pt x="416" y="7" on="0"/>
        <pt x="412" y="-5" on="0"/>
        <pt x="408" y="-5" on="1"/>
        <pt x="358" y="-5" on="0"/>
        <pt x="281" y="0" on="0"/>
        <pt x="234" y="0" on="1"/>
        <pt x="211" y="0" on="0"/>
        <pt x="169" y="-2" on="0"/>
        <pt x="127" y="-3" on="0"/>
        <pt x="83" y="-5" on="0"/>
        <pt x="58" y="-5" on="1"/>
        <pt x="55" y="-5" on="0"/>
        <pt x="50" y="7" on="0"/>
        <pt x="50" y="13" on="1"/>
        <pt x="50" y="18" on="0"/>
        <pt x="55" y="30" on="0"/>
        <pt x="58" y="31" on="1"/>
        <pt x="91" y="34" on="0"/>
        <pt x="130" y="47" on="0"/>
        <pt x="151" y="66" on="0"/>
        <pt x="158" y="95" on="0"/>
        <pt x="158" y="115" on="1"/>
        <pt x="158" y="569" on="1"/>
        <pt x="158" y="589" on="0"/>
        <pt x="151" y="618" on="0"/>
        <pt x="130" y="638" on="0"/>
        <pt x="91" y="650" on="0"/>
        <pt x="58" y="654" on="1"/>
        <pt x="55" y="654" on="0"/>
        <pt x="50" y="666" on="0"/>
        <pt x="50" y="672" on="1"/>
        <pt x="50" y="677" on="0"/>
        <pt x="55" y="690" on="0"/>
        <pt x="58" y="690" on="1"/>
        <pt x="83" y="690" on="0"/>
        <pt x="127" y="688" on="0"/>
        <pt x="169" y="687" on="0"/>
        <pt x="211" y="685" on="0"/>
        <pt x="234" y="685" on="1"/>
        <pt x="281" y="685" on="0"/>
        <pt x="358" y="690" on="0"/>
        <pt x="408" y="690" on="1"/>
        <pt x="412" y="690" on="0"/>
        <pt x="416" y="677" on="0"/>
        <pt x="416" y="672" on="1"/>
        <pt x="416" y="666" on="0"/>
        <pt x="412" y="654" on="0"/>
        <pt x="408" y="654" on="1"/>
        <pt x="376" y="650" on="0"/>
        <pt x="337" y="638" on="0"/>
        <pt x="316" y="618" on="0"/>
        <pt x="309" y="589" on="0"/>
        <pt x="309" y="569" on="1"/>
        <pt x="309" y="115" on="1"/>
        <pt x="309" y="95" on="0"/>
        <pt x="316" y="66" on="0"/>
        <pt x="337" y="47" on="0"/>
        <pt x="376" y="34" on="0"/>
        <pt x="408" y="31" on="1"/>
        <pt x="412" y="30" on="0"/>
        <pt x="416" y="18" on="0"/>
      </contour>
    </TTGlyph>
    <TTGlyph name="I.sc" xMin="50" yMin="-5" xMax="329" yMax="469">
      <component glyphName="i.sc" x="0" y="0" flags="0x204"/>
    </TTGlyph>
    <TTGlyph name="Iacute" xMin="50" yMin="-5" xMax="416" yMax="948">
      <component glyphName="I" x="0" y="0" flags="0x204"/>
      <component glyphName="acute.cap" x="103" y="0" flags="0x4"/>
    </TTGlyph>
    <TTGlyph name="Iacute.sc" xMin="50" yMin="-5" xMax="364" yMax="726">
      <component glyphName="acute" x="63" y="15" flags="0x4"/>
      <component glyphName="i.sc" x="0" y="0" flags="0x4"/>
    </TTGlyph>
    <TTGlyph name="Ibreve" xMin="50" yMin="-5" xMax="416" yMax="932">
      <component glyphName="I" x="0" y="0" flags="0x204"/>
      <component glyphName="breve.cap" x="59" y="0" flags="0x4"/>
    </TTGlyph>
    <TTGlyph name="Ibreve.sc" xMin="41" yMin="-5" xMax="339" yMax="705">
      <component glyphName="i.sc" x="0" y="0" flags="0x204"/>
      <component glyphName="breve" x="2" y="15" flags="0x4"/>
    </TTGlyph>
    <TTGlyph name="Icircumflex" xMin="50" yMin="-5" xMax="416" yMax="936">
      <component glyphName="I" x="0" y="0" flags="0x204"/>
      <component glyphName="circumflex.cap" x="46" y="0" flags="0x4"/>
    </TTGlyph>
    <TTGlyph name="Icircumflex.sc" xMin="49" yMin="-5" xMax="332" yMax="728">
      <component glyphName="circumflex" x="3" y="15" flags="0x4"/>
      <component glyphName="i.sc" x="0" y="0" flags="0x4"/>
    </TTGlyph>
    <TTGlyph name="Idieresis" xMin="43" yMin="-5" xMax="425" yMax="906">
      <component glyphName="I" x="0" y="0" flags="0x204"/>
      <component glyphName="dieresis.cap" x="44" y="0" flags="0x4"/>
    </TTGlyph>
    <TTGlyph name="Idieresis.sc" xMin="20" yMin="-5" xMax="361" yMax="691">
      <component glyphName="dieresis" x="0" y="15" flags="0x4"/>
      <component glyphName="i.sc" x="0" y="0" flags="0x4"/>
    </TTGlyph>
    <TTGlyph name="Idotaccent" xMin="50" yMin="-5" xMax="416" yMax="906">
      <component glyphName="I" x="0" y="0" flags="0x204"/>
      <component glyphName="dotaccent.cap" x="46" y="0" flags="0x4"/>
    </TTGlyph>
    <TTGlyph name="Idotaccent.sc" xMin="50" yMin="-5" xMax="329" yMax="691">
      <component glyphName="i.sc" x="0" y="0" flags="0x204"/>
      <component glyphName="dotaccent" x="2" y="15" flags="0x4"/>
    </TTGlyph>
    <TTGlyph name="Igrave" xMin="50" yMin="-5" xMax="416" yMax="948">
      <component glyphName="I" x="0" y="0" flags="0x204"/>
      <component glyphName="grave.cap" x="-10" y="0" flags="0x4"/>
    </TTGlyph>
    <TTGlyph name="Igrave.sc" xMin="17" yMin="-5" xMax="329" yMax="726">
      <component glyphName="i.sc" x="0" y="0" flags="0x204"/>
      <component glyphName="grave" x="-56" y="15" flags="0x4"/>
    </TTGlyph>
    <TTGlyph name="Imacron" xMin="35" yMin="-5" xMax="431" yMax="862">
      <component glyphName="I" x="0" y="0" flags="0x204"/>
      <component glyphName="macron.cap" x="38" y="0" flags="0x4"/>
    </TTGlyph>
    <TTGlyph name="Imacron.sc" xMin="37" yMin="-5" xMax="347" yMax="640">
      <component glyphName="i.sc" x="0" y="0" flags="0x204"/>
      <component glyphName="macron" x="0" y="15" flags="0x4"/>
    </TTGlyph>
    <TTGlyph name="Iogonek" xMin="50" yMin="-219" xMax="416" yMax="690">
      <contour>
        <pt x="328" y="-176" on="1"/>
        <pt x="312" y="-194" on="0"/>
        <pt x="263" y="-219" on="0"/>
        <pt x="226" y="-219" on="1"/>
        <pt x="175" y="-219" on="0"/>
        <pt x="127" y="-168" on="0"/>
        <pt x="127" y="-134" on="1"/>
        <pt x="127" y="-97" on="0"/>
        <pt x="174" y="-31" on="0"/>
        <pt x="212" y="0" on="1"/>
        <pt x="173" y="-1" on="0"/>
        <pt x="103" y="-5" on="0"/>
        <pt x="58" y="-5" on="1"/>
        <pt x="55" y="-5" on="0"/>
        <pt x="50" y="7" on="0"/>
        <pt x="50" y="13" on="1"/>
        <pt x="50" y="18" on="0"/>
        <pt x="55" y="30" on="0"/>
        <pt x="58" y="31" on="1"/>
        <pt x="91" y="34" on="0"/>
        <pt x="130" y="47" on="0"/>
        <pt x="151" y="66" on="0"/>
        <pt x="158" y="95" on="0"/>
        <pt x="158" y="115" on="1"/>
        <pt x="158" y="569" on="1"/>
        <pt x="158" y="589" on="0"/>
        <pt x="151" y="618" on="0"/>
        <pt x="130" y="638" on="0"/>
        <pt x="91" y="650" on="0"/>
        <pt x="58" y="654" on="1"/>
        <pt x="55" y="654" on="0"/>
        <pt x="50" y="666" on="0"/>
        <pt x="50" y="672" on="1"/>
        <pt x="50" y="677" on="0"/>
        <pt x="55" y="690" on="0"/>
        <pt x="58" y="690" on="1"/>
        <pt x="83" y="690" on="0"/>
        <pt x="127" y="688" on="0"/>
        <pt x="169" y="687" on="0"/>
        <pt x="211" y="685" on="0"/>
        <pt x="234" y="685" on="1"/>
        <pt x="281" y="685" on="0"/>
        <pt x="358" y="690" on="0"/>
        <pt x="408" y="690" on="1"/>
        <pt x="412" y="690" on="0"/>
        <pt x="416" y="677" on="0"/>
        <pt x="416" y="672" on="1"/>
        <pt x="416" y="666" on="0"/>
        <pt x="412" y="654" on="0"/>
        <pt x="408" y="654" on="1"/>
        <pt x="376" y="650" on="0"/>
        <pt x="337" y="638" on="0"/>
        <pt x="316" y="618" on="0"/>
        <pt x="309" y="589" on="0"/>
        <pt x="309" y="569" on="1"/>
        <pt x="309" y="115" on="1"/>
        <pt x="309" y="95" on="0"/>
        <pt x="316" y="66" on="0"/>
        <pt x="337" y="47" on="0"/>
        <pt x="376" y="34" on="0"/>
        <pt x="408" y="31" on="1"/>
        <pt x="412" y="30" on="0"/>
        <pt x="416" y="18" on="0"/>
        <pt x="416" y="13" on="1"/>
        <pt x="416" y="7" on="0"/>
        <pt x="412" y="-5" on="0"/>
        <pt x="408" y="-5" on="1"/>
        <pt x="368" y="-5" on="0"/>
        <pt x="304" y="-2" on="0"/>
        <pt x="269" y="0" on="1"/>
        <pt x="215" y="-53" on="0"/>
        <pt x="215" y="-111" on="1"/>
        <pt x="215" y="-136" on="0"/>
        <pt x="243" y="-162" on="0"/>
        <pt x="268" y="-162" on="1"/>
        <pt x="279" y="-162" on="0"/>
        <pt x="303" y="-152" on="0"/>
        <pt x="313" y="-147" on="1"/>
        <pt x="317" y="-146" on="0"/>
        <pt x="324" y="-153" on="0"/>
        <pt x="327" y="-158" on="1"/>
        <pt x="332" y="-170" on="0"/>
      </contour>
    </TTGlyph>
    <TTGlyph name="Iogonek.sc" xMin="50" yMin="-219" xMax="329" yMax="469">
      <component glyphName="iogonek.sc" x="0" y="0" flags="0x204"/>
    </TTGlyph>
    <TTGlyph name="J" xMin="-133" yMin="-252" xMax="425" yMax="689">
      <contour>
        <pt x="425" y="671" on="1"/>
        <pt x="425" y="665" on="0"/>
        <pt x="420" y="653" on="0"/>
        <pt x="417" y="653" on="1"/>
        <pt x="385" y="649" on="0"/>
        <pt x="345" y="637" on="0"/>
        <pt x="324" y="617" on="0"/>
        <pt x="317" y="588" on="0"/>
        <pt x="317" y="568" on="1"/>
        <pt x="317" y="113" on="1"/>
        <pt x="317" y="32" on="0"/>
        <pt x="268" y="-102" on="0"/>
        <pt x="183" y="-198" on="0"/>
        <pt x="69" y="-252" on="0"/>
        <pt x="5" y="-252" on="1"/>
        <pt x="-24" y="-252" on="0"/>
        <pt x="-74" y="-238" on="0"/>
        <pt x="-111" y="-213" on="0"/>
        <pt x="-133" y="-178" on="0"/>
        <pt x="-133" y="-158" on="1"/>
        <pt x="-133" y="-120" on="0"/>
        <pt x="-84" y="-75" on="0"/>
        <pt x="-42" y="-75" on="1"/>
        <pt x="-13" y="-75" on="0"/>
        <pt x="21" y="-109" on="0"/>
        <pt x="46" y="-151" on="0"/>
        <pt x="70" y="-185" on="0"/>
        <pt x="90" y="-185" on="1"/>
        <pt x="106" y="-185" on="0"/>
        <pt x="134" y="-163" on="0"/>
        <pt x="155" y="-111" on="0"/>
        <pt x="167" y="-23" on="0"/>
        <pt x="167" y="42" on="1"/>
        <pt x="167" y="568" on="1"/>
        <pt x="167" y="588" on="0"/>
        <pt x="160" y="617" on="0"/>
        <pt x="139" y="637" on="0"/>
        <pt x="100" y="649" on="0"/>
        <pt x="68" y="653" on="1"/>
        <pt x="64" y="653" on="0"/>
        <pt x="60" y="665" on="0"/>
        <pt x="60" y="671" on="1"/>
        <pt x="60" y="676" on="0"/>
        <pt x="64" y="689" on="0"/>
        <pt x="68" y="689" on="1"/>
        <pt x="93" y="689" on="0"/>
        <pt x="136" y="687" on="0"/>
        <pt x="177" y="685" on="0"/>
        <pt x="219" y="683" on="0"/>
        <pt x="242" y="683" on="1"/>
        <pt x="289" y="683" on="0"/>
        <pt x="367" y="689" on="0"/>
        <pt x="417" y="689" on="1"/>
        <pt x="420" y="689" on="0"/>
        <pt x="425" y="676" on="0"/>
      </contour>
    </TTGlyph>
    <TTGlyph name="J.sc" xMin="-90" yMin="-195" xMax="346" yMax="468">
      <component glyphName="j.sc" x="0" y="0" flags="0x204"/>
    </TTGlyph>
    <TTGlyph name="K" xMin="33" yMin="-5" xMax="838" yMax="690">
      <contour>
        <pt x="838" y="13" on="1"/>
        <pt x="838" y="7" on="0"/>
        <pt x="834" y="-5" on="0"/>
        <pt x="830" y="-5" on="1"/>
        <pt x="805" y="-5" on="0"/>
        <pt x="767" y="-3" on="0"/>
        <pt x="732" y="-2" on="0"/>
        <pt x="695" y="0" on="0"/>
        <pt x="672" y="0" on="1"/>
        <pt x="625" y="0" on="0"/>
        <pt x="533" y="-5" on="0"/>
        <pt x="483" y="-5" on="1"/>
        <pt x="480" y="-5" on="0"/>
        <pt x="475" y="7" on="0"/>
        <pt x="475" y="13" on="1"/>
        <pt x="475" y="18" on="0"/>
        <pt x="479" y="30" on="0"/>
        <pt x="482" y="31" on="1"/>
        <pt x="541" y="37" on="0"/>
        <pt x="541" y="63" on="1"/>
        <pt x="541" y="71" on="0"/>
        <pt x="531" y="88" on="0"/>
        <pt x="522" y="99" on="1"/>
        <pt x="358" y="288" on="1"/>
        <pt x="344" y="304" on="0"/>
        <pt x="319" y="316" on="0"/>
        <pt x="294" y="316" on="1"/>
        <pt x="294" y="115" on="1"/>
        <pt x="294" y="95" on="0"/>
        <pt x="300" y="66" on="0"/>
        <pt x="319" y="47" on="0"/>
        <pt x="357" y="34" on="0"/>
        <pt x="390" y="31" on="1"/>
        <pt x="393" y="30" on="0"/>
        <pt x="398" y="18" on="0"/>
        <pt x="398" y="13" on="1"/>
        <pt x="398" y="7" on="0"/>
        <pt x="393" y="-5" on="0"/>
        <pt x="390" y="-5" on="1"/>
        <pt x="365" y="-5" on="0"/>
        <pt x="323" y="-3" on="0"/>
        <pt x="283" y="-2" on="0"/>
        <pt x="242" y="0" on="0"/>
        <pt x="219" y="0" on="1"/>
        <pt x="172" y="0" on="0"/>
        <pt x="95" y="-5" on="0"/>
        <pt x="45" y="-5" on="1"/>
        <pt x="41" y="-5" on="0"/>
        <pt x="37" y="7" on="0"/>
        <pt x="37" y="13" on="1"/>
        <pt x="37" y="18" on="0"/>
        <pt x="41" y="30" on="0"/>
        <pt x="45" y="31" on="1"/>
        <pt x="77" y="34" on="0"/>
        <pt x="116" y="47" on="0"/>
        <pt x="137" y="66" on="0"/>
        <pt x="144" y="95" on="0"/>
        <pt x="144" y="115" on="1"/>
        <pt x="144" y="569" on="1"/>
        <pt x="144" y="588" on="0"/>
        <pt x="139" y="617" on="0"/>
        <pt x="119" y="636" on="0"/>
        <pt x="77" y="649" on="0"/>
        <pt x="41" y="654" on="1"/>
        <pt x="37" y="654" on="0"/>
        <pt x="33" y="666" on="0"/>
        <pt x="33" y="672" on="1"/>
        <pt x="33" y="677" on="0"/>
        <pt x="37" y="690" on="0"/>
        <pt x="41" y="690" on="1"/>
        <pt x="91" y="690" on="0"/>
        <pt x="172" y="685" on="0"/>
        <pt x="219" y="685" on="1"/>
        <pt x="266" y="685" on="0"/>
        <pt x="348" y="690" on="0"/>
        <pt x="398" y="690" on="1"/>
        <pt x="401" y="690" on="0"/>
        <pt x="406" y="677" on="0"/>
        <pt x="406" y="672" on="1"/>
        <pt x="406" y="666" on="0"/>
        <pt x="401" y="654" on="0"/>
        <pt x="398" y="654" on="1"/>
        <pt x="362" y="649" on="0"/>
        <pt x="320" y="636" on="0"/>
        <pt x="299" y="617" on="0"/>
        <pt x="294" y="588" on="0"/>
        <pt x="294" y="569" on="1"/>
        <pt x="294" y="360" on="1"/>
        <pt x="314" y="360" on="0"/>
        <pt x="337" y="370" on="0"/>
        <pt x="354" y="386" on="1"/>
        <pt x="559" y="585" on="1"/>
        <pt x="570" y="596" on="0"/>
        <pt x="582" y="612" on="0"/>
        <pt x="582" y="621" on="1"/>
        <pt x="582" y="635" on="0"/>
        <pt x="553" y="649" on="0"/>
        <pt x="519" y="654" on="1"/>
        <pt x="515" y="654" on="0"/>
        <pt x="511" y="666" on="0"/>
        <pt x="511" y="672" on="1"/>
        <pt x="511" y="677" on="0"/>
        <pt x="516" y="690" on="0"/>
        <pt x="519" y="690" on="1"/>
        <pt x="556" y="690" on="0"/>
        <pt x="632" y="685" on="0"/>
        <pt x="672" y="685" on="1"/>
        <pt x="708" y="685" on="0"/>
        <pt x="753" y="690" on="0"/>
        <pt x="780" y="690" on="1"/>
        <pt x="784" y="690" on="0"/>
        <pt x="788" y="677" on="0"/>
        <pt x="788" y="672" on="1"/>
        <pt x="788" y="665" on="0"/>
        <pt x="783" y="654" on="0"/>
        <pt x="779" y="654" on="1"/>
        <pt x="728" y="648" on="0"/>
        <pt x="656" y="611" on="0"/>
        <pt x="621" y="578" on="1"/>
        <pt x="447" y="409" on="1"/>
        <pt x="706" y="96" on="1"/>
        <pt x="735" y="61" on="0"/>
        <pt x="790" y="35" on="0"/>
        <pt x="830" y="31" on="1"/>
        <pt x="833" y="30" on="0"/>
        <pt x="838" y="19" on="0"/>
      </contour>
    </TTGlyph>
    <TTGlyph name="K.sc" xMin="37" yMin="-5" xMax="631" yMax="469">
      <component glyphName="k.sc" x="0" y="0" flags="0x204"/>
    </TTGlyph>
    <TTGlyph name="Kcommaaccent" xMin="33" yMin="-308" xMax="838" yMax="690">
      <component glyphName="commaaccent" x="321" y="-4" flags="0x4"/>
      <component glyphName="K" x="0" y="0" flags="0x4"/>
    </TTGlyph>
    <TTGlyph name="Kcommaaccent.sc" xMin="37" yMin="-304" xMax="631" yMax="469">
      <component glyphName="commaaccent" x="213" y="0" flags="0x4"/>
      <component glyphName="k.sc" x="0" y="0" flags="0x4"/>
    </TTGlyph>
    <TTGlyph name="L" xMin="36" yMin="-5" xMax="659" yMax="690">
      <contour>
        <pt x="658" y="216" on="1"/>
        <pt x="653" y="192" on="0"/>
        <pt x="644" y="135" on="0"/>
        <pt x="637" y="77" on="0"/>
        <pt x="631" y="20" on="0"/>
        <pt x="628" y="-5" on="1"/>
        <pt x="604" y="-4" on="0"/>
        <pt x="526" y="-3" on="0"/>
        <pt x="441" y="-1" on="0"/>
        <pt x="362" y="0" on="0"/>
        <pt x="337" y="0" on="1"/>
        <pt x="312" y="0" on="0"/>
        <pt x="232" y="-1" on="0"/>
        <pt x="147" y="-3" on="0"/>
        <pt x="68" y="-4" on="0"/>
        <pt x="44" y="-5" on="1"/>
        <pt x="41" y="-5" on="0"/>
        <pt x="36" y="7" on="0"/>
        <pt x="36" y="13" on="1"/>
        <pt x="36" y="18" on="0"/>
        <pt x="41" y="30" on="0"/>
        <pt x="44" y="31" on="1"/>
        <pt x="76" y="34" on="0"/>
        <pt x="116" y="47" on="0"/>
        <pt x="137" y="66" on="0"/>
        <pt x="144" y="95" on="0"/>
        <pt x="144" y="115" on="1"/>
        <pt x="144" y="569" on="1"/>
        <pt x="144" y="589" on="0"/>
        <pt x="137" y="618" on="0"/>
        <pt x="116" y="638" on="0"/>
        <pt x="76" y="650" on="0"/>
        <pt x="44" y="654" on="1"/>
        <pt x="41" y="654" on="0"/>
        <pt x="36" y="666" on="0"/>
        <pt x="36" y="672" on="1"/>
        <pt x="36" y="677" on="0"/>
        <pt x="41" y="690" on="0"/>
        <pt x="44" y="690" on="1"/>
        <pt x="94" y="690" on="0"/>
        <pt x="172" y="685" on="0"/>
        <pt x="219" y="685" on="1"/>
        <pt x="266" y="685" on="0"/>
        <pt x="343" y="690" on="0"/>
        <pt x="393" y="690" on="1"/>
        <pt x="397" y="690" on="0"/>
        <pt x="401" y="677" on="0"/>
        <pt x="401" y="672" on="1"/>
        <pt x="401" y="666" on="0"/>
        <pt x="397" y="654" on="0"/>
        <pt x="393" y="654" on="1"/>
        <pt x="361" y="650" on="0"/>
        <pt x="322" y="638" on="0"/>
        <pt x="301" y="618" on="0"/>
        <pt x="294" y="589" on="0"/>
        <pt x="294" y="569" on="1"/>
        <pt x="294" y="100" on="1"/>
        <pt x="294" y="82" on="0"/>
        <pt x="305" y="59" on="0"/>
        <pt x="322" y="46" on="0"/>
        <pt x="342" y="41" on="0"/>
        <pt x="352" y="41" on="1"/>
        <pt x="430" y="41" on="1"/>
        <pt x="468" y="41" on="0"/>
        <pt x="529" y="71" on="0"/>
        <pt x="576" y="122" on="0"/>
        <pt x="610" y="189" on="0"/>
        <pt x="622" y="225" on="1"/>
        <pt x="622" y="229" on="0"/>
        <pt x="633" y="229" on="1"/>
        <pt x="643" y="229" on="0"/>
        <pt x="659" y="221" on="0"/>
      </contour>
    </TTGlyph>
    <TTGlyph name="L.sc" xMin="37" yMin="-5" xMax="508" yMax="469">
      <component glyphName="l.sc" x="0" y="0" flags="0x204"/>
    </TTGlyph>
    <TTGlyph name="Lacute" xMin="36" yMin="-5" xMax="659" yMax="948">
      <component glyphName="acute.cap" x="83" y="0" flags="0x4"/>
      <component glyphName="L" x="0" y="0" flags="0x4"/>
    </TTGlyph>
    <TTGlyph name="Lacute.sc" xMin="37" yMin="-5" xMax="508" yMax="718">
      <component glyphName="l.sc" x="0" y="0" flags="0x204"/>
      <component glyphName="acute" x="57" y="7" flags="0x4"/>
    </TTGlyph>
    <TTGlyph name="Lcaron" xMin="36" yMin="-5" xMax="659" yMax="693">
      <component glyphName="caron.alt" x="371" y="-69" flags="0x4"/>
      <component glyphName="L" x="0" y="0" flags="0x4"/>
    </TTGlyph>
    <TTGlyph name="Lcaron.sc" xMin="37" yMin="-5" xMax="508" yMax="472">
      <component glyphName="l.sc" x="0" y="0" flags="0x204"/>
      <component glyphName="caron.alt" x="273" y="-290" flags="0x4"/>
    </TTGlyph>
    <TTGlyph name="Lcommaaccent" xMin="36" yMin="-313" xMax="659" yMax="690">
      <component glyphName="commaaccent" x="242" y="-9" flags="0x4"/>
      <component glyphName="L" x="0" y="0" flags="0x4"/>
    </TTGlyph>
    <TTGlyph name="Lcommaaccent.sc" xMin="37" yMin="-308" xMax="508" yMax="469">
      <component glyphName="l.sc" x="0" y="0" flags="0x204"/>
      <component glyphName="commaaccent" x="160" y="-4" flags="0x4"/>
    </TTGlyph>
    <TTGlyph name="Ldot" xMin="36" yMin="-5" xMax="659" yMax="690">
      <component glyphName="L" x="0" y="0" flags="0x204"/>
      <component glyphName="periodcentered" x="423" y="65" flags="0x4"/>
    </TTGlyph>
    <TTGlyph name="Ldot.sc" xMin="37" yMin="-6" xMax="500" yMax="469">
      <component glyphName="ldot.sc" x="0" y="0" flags="0x204"/>
    </TTGlyph>
    <TTGlyph name="Lslash" xMin="11" yMin="-5" xMax="659" yMax="690">
      <contour>
        <pt x="657" y="216" on="1"/>
        <pt x="652" y="192" on="0"/>
        <pt x="644" y="135" on="0"/>
        <pt x="636" y="77" on="0"/>
        <pt x="630" y="20" on="0"/>
        <pt x="628" y="-5" on="1"/>
        <pt x="604" y="-4" on="0"/>
        <pt x="526" y="-3" on="0"/>
        <pt x="441" y="-1" on="0"/>
        <pt x="362" y="0" on="0"/>
        <pt x="337" y="0" on="1"/>
        <pt x="312" y="0" on="0"/>
        <pt x="232" y="-1" on="0"/>
        <pt x="146" y="-3" on="0"/>
        <pt x="68" y="-4" on="0"/>
        <pt x="44" y="-5" on="1"/>
        <pt x="41" y="-5" on="0"/>
        <pt x="36" y="7" on="0"/>
        <pt x="36" y="13" on="1"/>
        <pt x="36" y="18" on="0"/>
        <pt x="41" y="30" on="0"/>
        <pt x="44" y="31" on="1"/>
        <pt x="76" y="34" on="0"/>
        <pt x="116" y="47" on="0"/>
        <pt x="137" y="66" on="0"/>
        <pt x="144" y="95" on="0"/>
        <pt x="144" y="115" on="1"/>
        <pt x="144" y="263" on="1"/>
        <pt x="46" y="206" on="1"/>
        <pt x="44" y="205" on="0"/>
        <pt x="41" y="205" on="1"/>
        <pt x="36" y="205" on="0"/>
        <pt x="23" y="217" on="0"/>
        <pt x="18" y="225" on="1"/>
        <pt x="11" y="239" on="0"/>
        <pt x="11" y="249" on="1"/>
        <pt x="11" y="255" on="0"/>
        <pt x="15" y="258" on="1"/>
        <pt x="144" y="332" on="1"/>
        <pt x="144" y="569" on="1"/>
        <pt x="144" y="589" on="0"/>
        <pt x="137" y="618" on="0"/>
        <pt x="116" y="638" on="0"/>
        <pt x="76" y="650" on="0"/>
        <pt x="44" y="654" on="1"/>
        <pt x="41" y="654" on="0"/>
        <pt x="36" y="666" on="0"/>
        <pt x="36" y="672" on="1"/>
        <pt x="36" y="678" on="0"/>
        <pt x="41" y="690" on="0"/>
        <pt x="44" y="690" on="1"/>
        <pt x="94" y="690" on="0"/>
        <pt x="172" y="685" on="0"/>
        <pt x="219" y="685" on="1"/>
        <pt x="265" y="685" on="0"/>
        <pt x="343" y="690" on="0"/>
        <pt x="393" y="690" on="1"/>
        <pt x="396" y="690" on="0"/>
        <pt x="401" y="678" on="0"/>
        <pt x="401" y="672" on="1"/>
        <pt x="401" y="666" on="0"/>
        <pt x="396" y="654" on="0"/>
        <pt x="393" y="654" on="1"/>
        <pt x="361" y="650" on="0"/>
        <pt x="321" y="638" on="0"/>
        <pt x="300" y="618" on="0"/>
        <pt x="293" y="589" on="0"/>
        <pt x="293" y="569" on="1"/>
        <pt x="293" y="420" on="1"/>
        <pt x="440" y="504" on="1"/>
        <pt x="442" y="505" on="0"/>
        <pt x="445" y="505" on="1"/>
        <pt x="450" y="505" on="0"/>
        <pt x="462" y="493" on="0"/>
        <pt x="466" y="485" on="1"/>
        <pt x="470" y="478" on="0"/>
        <pt x="475" y="466" on="0"/>
        <pt x="475" y="461" on="1"/>
        <pt x="475" y="455" on="0"/>
        <pt x="471" y="452" on="1"/>
        <pt x="293" y="350" on="1"/>
        <pt x="293" y="100" on="1"/>
        <pt x="293" y="82" on="0"/>
        <pt x="304" y="59" on="0"/>
        <pt x="321" y="46" on="0"/>
        <pt x="342" y="41" on="0"/>
        <pt x="352" y="41" on="1"/>
        <pt x="430" y="41" on="1"/>
        <pt x="468" y="41" on="0"/>
        <pt x="529" y="71" on="0"/>
        <pt x="576" y="122" on="0"/>
        <pt x="610" y="189" on="0"/>
        <pt x="622" y="226" on="1"/>
        <pt x="622" y="230" on="0"/>
        <pt x="633" y="230" on="1"/>
        <pt x="643" y="230" on="0"/>
        <pt x="659" y="221" on="0"/>
      </contour>
    </TTGlyph>
    <TTGlyph name="Lslash.sc" xMin="32" yMin="-5" xMax="507" yMax="469">
      <component glyphName="lslash.sc" x="0" y="0" flags="0x204"/>
    </TTGlyph>
    <TTGlyph name="M" xMin="6" yMin="-21" xMax="994" yMax="690">
      <contour>
        <pt x="994" y="13" on="1"/>
        <pt x="994" y="7" on="0"/>
        <pt x="990" y="-5" on="0"/>
        <pt x="987" y="-5" on="1"/>
        <pt x="937" y="-5" on="0"/>
        <pt x="856" y="0" on="0"/>
        <pt x="809" y="0" on="1"/>
        <pt x="786" y="0" on="0"/>
        <pt x="744" y="-2" on="0"/>
        <pt x="704" y="-3" on="0"/>
        <pt x="661" y="-5" on="0"/>
        <pt x="636" y="-5" on="1"/>
        <pt x="632" y="-5" on="0"/>
        <pt x="627" y="7" on="0"/>
        <pt x="627" y="13" on="1"/>
        <pt x="627" y="18" on="0"/>
        <pt x="631" y="30" on="0"/>
        <pt x="635" y="31" on="1"/>
        <pt x="666" y="34" on="0"/>
        <pt x="705" y="47" on="0"/>
        <pt x="726" y="66" on="0"/>
        <pt x="732" y="95" on="0"/>
        <pt x="731" y="115" on="1"/>
        <pt x="712" y="573" on="1"/>
        <pt x="482" y="-13" on="1"/>
        <pt x="481" y="-16" on="0"/>
        <pt x="468" y="-21" on="0"/>
        <pt x="460" y="-21" on="1"/>
        <pt x="440" y="-21" on="0"/>
        <pt x="438" y="-13" on="1"/>
        <pt x="214" y="550" on="1"/>
        <pt x="184" y="115" on="1"/>
        <pt x="182" y="95" on="0"/>
        <pt x="189" y="66" on="0"/>
        <pt x="211" y="46" on="0"/>
        <pt x="252" y="34" on="0"/>
        <pt x="284" y="31" on="1"/>
        <pt x="287" y="30" on="0"/>
        <pt x="290" y="18" on="0"/>
        <pt x="290" y="13" on="1"/>
        <pt x="290" y="7" on="0"/>
        <pt x="285" y="-5" on="0"/>
        <pt x="281" y="-5" on="1"/>
        <pt x="243" y="-5" on="0"/>
        <pt x="180" y="0" on="0"/>
        <pt x="145" y="0" on="1"/>
        <pt x="108" y="0" on="0"/>
        <pt x="48" y="-5" on="0"/>
        <pt x="13" y="-5" on="1"/>
        <pt x="10" y="-5" on="0"/>
        <pt x="6" y="7" on="0"/>
        <pt x="6" y="13" on="1"/>
        <pt x="6" y="19" on="0"/>
        <pt x="12" y="30" on="0"/>
        <pt x="16" y="31" on="1"/>
        <pt x="49" y="35" on="0"/>
        <pt x="91" y="47" on="0"/>
        <pt x="115" y="67" on="0"/>
        <pt x="125" y="95" on="0"/>
        <pt x="127" y="115" on="1"/>
        <pt x="173" y="569" on="1"/>
        <pt x="175" y="589" on="0"/>
        <pt x="167" y="618" on="0"/>
        <pt x="144" y="638" on="0"/>
        <pt x="103" y="650" on="0"/>
        <pt x="72" y="654" on="1"/>
        <pt x="69" y="654" on="0"/>
        <pt x="65" y="666" on="0"/>
        <pt x="65" y="672" on="1"/>
        <pt x="65" y="677" on="0"/>
        <pt x="71" y="690" on="0"/>
        <pt x="74" y="690" on="1"/>
        <pt x="100" y="690" on="0"/>
        <pt x="166" y="685" on="0"/>
        <pt x="188" y="685" on="1"/>
        <pt x="214" y="685" on="0"/>
        <pt x="286" y="690" on="0"/>
        <pt x="315" y="690" on="1"/>
        <pt x="514" y="186" on="1"/>
        <pt x="712" y="690" on="1"/>
        <pt x="746" y="690" on="0"/>
        <pt x="808" y="685" on="0"/>
        <pt x="834" y="685" on="1"/>
        <pt x="866" y="685" on="0"/>
        <pt x="924" y="690" on="0"/>
        <pt x="957" y="690" on="1"/>
        <pt x="960" y="690" on="0"/>
        <pt x="965" y="677" on="0"/>
        <pt x="965" y="672" on="1"/>
        <pt x="965" y="666" on="0"/>
        <pt x="961" y="654" on="0"/>
        <pt x="958" y="654" on="1"/>
        <pt x="926" y="650" on="0"/>
        <pt x="888" y="638" on="0"/>
        <pt x="867" y="618" on="0"/>
        <pt x="860" y="589" on="0"/>
        <pt x="861" y="569" on="1"/>
        <pt x="883" y="115" on="1"/>
        <pt x="884" y="95" on="0"/>
        <pt x="892" y="67" on="0"/>
        <pt x="913" y="47" on="0"/>
        <pt x="953" y="35" on="0"/>
        <pt x="986" y="31" on="1"/>
        <pt x="989" y="30" on="0"/>
        <pt x="994" y="19" on="0"/>
      </contour>
    </TTGlyph>
    <TTGlyph name="M.sc" xMin="5" yMin="-18" xMax="709" yMax="469">
      <component glyphName="m.sc" x="0" y="0" flags="0x204"/>
    </TTGlyph>
    <TTGlyph name="N" xMin="25" yMin="-20" xMax="871" yMax="690">
      <contour>
        <pt x="871" y="671" on="1"/>
        <pt x="871" y="665" on="0"/>
        <pt x="866" y="654" on="0"/>
        <pt x="863" y="653" on="1"/>
        <pt x="830" y="649" on="0"/>
        <pt x="789" y="637" on="0"/>
        <pt x="766" y="617" on="0"/>
        <pt x="757" y="589" on="0"/>
        <pt x="757" y="569" on="1"/>
        <pt x="746" y="-10" on="1"/>
        <pt x="746" y="-20" on="0"/>
        <pt x="726" y="-20" on="1"/>
        <pt x="710" y="-20" on="0"/>
        <pt x="702" y="-12" on="1"/>
        <pt x="201" y="524" on="1"/>
        <pt x="195" y="115" on="1"/>
        <pt x="194" y="95" on="0"/>
        <pt x="203" y="66" on="0"/>
        <pt x="227" y="47" on="0"/>
        <pt x="269" y="34" on="0"/>
        <pt x="301" y="31" on="1"/>
        <pt x="305" y="30" on="0"/>
        <pt x="309" y="19" on="0"/>
        <pt x="309" y="13" on="1"/>
        <pt x="309" y="7" on="0"/>
        <pt x="304" y="-5" on="0"/>
        <pt x="301" y="-5" on="1"/>
        <pt x="263" y="-5" on="0"/>
        <pt x="199" y="0" on="0"/>
        <pt x="164" y="0" on="1"/>
        <pt x="127" y="0" on="0"/>
        <pt x="68" y="-5" on="0"/>
        <pt x="33" y="-5" on="1"/>
        <pt x="30" y="-5" on="0"/>
        <pt x="25" y="6" on="0"/>
        <pt x="25" y="13" on="1"/>
        <pt x="25" y="19" on="0"/>
        <pt x="30" y="30" on="0"/>
        <pt x="34" y="31" on="1"/>
        <pt x="66" y="34" on="0"/>
        <pt x="107" y="47" on="0"/>
        <pt x="130" y="66" on="0"/>
        <pt x="139" y="95" on="0"/>
        <pt x="139" y="115" on="1"/>
        <pt x="156" y="553" on="1"/>
        <pt x="156" y="576" on="0"/>
        <pt x="147" y="610" on="0"/>
        <pt x="123" y="634" on="0"/>
        <pt x="80" y="650" on="0"/>
        <pt x="46" y="654" on="1"/>
        <pt x="43" y="654" on="0"/>
        <pt x="39" y="666" on="0"/>
        <pt x="39" y="672" on="1"/>
        <pt x="39" y="677" on="0"/>
        <pt x="43" y="690" on="0"/>
        <pt x="47" y="690" on="1"/>
        <pt x="73" y="690" on="0"/>
        <pt x="126" y="685" on="0"/>
        <pt x="148" y="685" on="1"/>
        <pt x="161" y="685" on="0"/>
        <pt x="183" y="687" on="0"/>
        <pt x="205" y="688" on="0"/>
        <pt x="230" y="690" on="0"/>
        <pt x="247" y="690" on="1"/>
        <pt x="705" y="195" on="1"/>
        <pt x="705" y="569" on="1"/>
        <pt x="705" y="589" on="0"/>
        <pt x="695" y="617" on="0"/>
        <pt x="669" y="637" on="0"/>
        <pt x="627" y="649" on="0"/>
        <pt x="595" y="653" on="1"/>
        <pt x="591" y="654" on="0"/>
        <pt x="587" y="665" on="0"/>
        <pt x="587" y="671" on="1"/>
        <pt x="587" y="677" on="0"/>
        <pt x="592" y="690" on="0"/>
        <pt x="595" y="690" on="1"/>
        <pt x="634" y="690" on="0"/>
        <pt x="693" y="684" on="0"/>
        <pt x="728" y="684" on="1"/>
        <pt x="765" y="684" on="0"/>
        <pt x="828" y="690" on="0"/>
        <pt x="863" y="690" on="1"/>
        <pt x="867" y="690" on="0"/>
        <pt x="871" y="678" on="0"/>
      </contour>
    </TTGlyph>
    <TTGlyph name="N.sc" xMin="25" yMin="-18" xMax="630" yMax="469">
      <component glyphName="n.sc" x="0" y="0" flags="0x204"/>
    </TTGlyph>
    <TTGlyph name="Nacute" xMin="25" yMin="-20" xMax="871" yMax="948">
      <component glyphName="acute.cap" x="322" y="0" flags="0x4"/>
      <component glyphName="N" x="0" y="0" flags="0x4"/>
    </TTGlyph>
    <TTGlyph name="Nacute.sc" xMin="25" yMin="-18" xMax="630" yMax="726">
      <component glyphName="acute" x="204" y="15" flags="0x4"/>
      <component glyphName="n.sc" x="0" y="0" flags="0x4"/>
    </TTGlyph>
    <TTGlyph name="Ncaron" xMin="25" yMin="-20" xMax="871" yMax="940">
      <component glyphName="caron.cap" x="265" y="0" flags="0x4"/>
      <component glyphName="N" x="0" y="0" flags="0x4"/>
    </TTGlyph>
    <TTGlyph name="Ncaron.sc" xMin="25" yMin="-18" xMax="630" yMax="723">
      <component glyphName="caron" x="143" y="15" flags="0x4"/>
      <component glyphName="n.sc" x="0" y="0" flags="0x4"/>
    </TTGlyph>
    <TTGlyph name="Ncommaaccent" xMin="25" yMin="-308" xMax="871" yMax="690">
      <component glyphName="commaaccent" x="342" y="-4" flags="0x4"/>
      <component glyphName="N" x="0" y="0" flags="0x4"/>
    </TTGlyph>
    <TTGlyph name="Ncommaaccent.sc" xMin="25" yMin="-299" xMax="630" yMax="469">
      <component glyphName="commaaccent" x="209" y="5" flags="0x4"/>
      <component glyphName="n.sc" x="0" y="0" flags="0x4"/>
    </TTGlyph>
    <TTGlyph name="Ntilde" xMin="25" yMin="-20" xMax="871" yMax="945">
      <component glyphName="tilde.cap" x="280" y="0" flags="0x4"/>
      <component glyphName="N" x="0" y="0" flags="0x4"/>
    </TTGlyph>
    <TTGlyph name="Ntilde.sc" xMin="25" yMin="-18" xMax="630" yMax="714">
      <component glyphName="n.sc" x="0" y="0" flags="0x204"/>
      <component glyphName="tilde" x="157" y="15" flags="0x4"/>
    </TTGlyph>
    <TTGlyph name="O" xMin="43" yMin="-21" xMax="805" yMax="706">
      <contour>
        <pt x="805" y="339" on="1"/>
        <pt x="805" y="264" on="0"/>
        <pt x="753" y="132" on="0"/>
        <pt x="656" y="35" on="0"/>
        <pt x="514" y="-21" on="0"/>
        <pt x="424" y="-21" on="1"/>
        <pt x="334" y="-21" on="0"/>
        <pt x="192" y="35" on="0"/>
        <pt x="95" y="132" on="0"/>
        <pt x="43" y="264" on="0"/>
        <pt x="43" y="339" on="1"/>
        <pt x="43" y="414" on="0"/>
        <pt x="95" y="547" on="0"/>
        <pt x="192" y="648" on="0"/>
        <pt x="334" y="706" on="0"/>
        <pt x="424" y="706" on="1"/>
        <pt x="514" y="706" on="0"/>
        <pt x="656" y="648" on="0"/>
        <pt x="753" y="547" on="0"/>
        <pt x="805" y="414" on="0"/>
      </contour>
      <contour>
        <pt x="646" y="339" on="1"/>
        <pt x="646" y="408" on="0"/>
        <pt x="620" y="528" on="0"/>
        <pt x="565" y="615" on="0"/>
        <pt x="481" y="665" on="0"/>
        <pt x="424" y="665" on="1"/>
        <pt x="367" y="665" on="0"/>
        <pt x="283" y="615" on="0"/>
        <pt x="228" y="528" on="0"/>
        <pt x="202" y="408" on="0"/>
        <pt x="202" y="339" on="1"/>
        <pt x="202" y="269" on="0"/>
        <pt x="228" y="152" on="0"/>
        <pt x="283" y="67" on="0"/>
        <pt x="367" y="19" on="0"/>
        <pt x="424" y="19" on="1"/>
        <pt x="481" y="19" on="0"/>
        <pt x="565" y="67" on="0"/>
        <pt x="620" y="152" on="0"/>
        <pt x="646" y="269" on="0"/>
      </contour>
    </TTGlyph>
    <TTGlyph name="O.sc" xMin="32" yMin="-19" xMax="590" yMax="485">
      <component glyphName="o.sc" x="0" y="0" flags="0x204"/>
    </TTGlyph>
    <TTGlyph name="OE" xMin="43" yMin="-5" xMax="1066" yMax="691">
      <contour>
        <pt x="1064" y="194" on="1"/>
        <pt x="1052" y="149" on="0"/>
        <pt x="1029" y="42" on="0"/>
        <pt x="1020" y="-5" on="1"/>
        <pt x="996" y="-4" on="0"/>
        <pt x="918" y="-3" on="0"/>
        <pt x="834" y="-1" on="0"/>
        <pt x="755" y="0" on="0"/>
        <pt x="730" y="0" on="1"/>
        <pt x="705" y="0" on="0"/>
        <pt x="624" y="-2" on="0"/>
        <pt x="536" y="-3" on="0"/>
        <pt x="456" y="-5" on="0"/>
        <pt x="432" y="-5" on="1"/>
        <pt x="336" y="-5" on="0"/>
        <pt x="190" y="49" on="0"/>
        <pt x="93" y="143" on="0"/>
        <pt x="43" y="268" on="0"/>
        <pt x="43" y="339" on="1"/>
        <pt x="43" y="411" on="0"/>
        <pt x="95" y="540" on="0"/>
        <pt x="195" y="636" on="0"/>
        <pt x="340" y="691" on="0"/>
        <pt x="432" y="690" on="1"/>
        <pt x="456" y="690" on="0"/>
        <pt x="533" y="688" on="0"/>
        <pt x="617" y="686" on="0"/>
        <pt x="695" y="685" on="0"/>
        <pt x="720" y="685" on="1"/>
        <pt x="745" y="685" on="0"/>
        <pt x="822" y="686" on="0"/>
        <pt x="905" y="687" on="0"/>
        <pt x="982" y="689" on="0"/>
        <pt x="1006" y="690" on="1"/>
        <pt x="1008" y="648" on="0"/>
        <pt x="1018" y="547" on="0"/>
        <pt x="1026" y="503" on="1"/>
        <pt x="1027" y="498" on="0"/>
        <pt x="1014" y="490" on="0"/>
        <pt x="1003" y="490" on="1"/>
        <pt x="990" y="490" on="0"/>
        <pt x="990" y="497" on="1"/>
        <pt x="975" y="564" on="0"/>
        <pt x="886" y="644" on="0"/>
        <pt x="821" y="644" on="1"/>
        <pt x="741" y="644" on="1"/>
        <pt x="731" y="644" on="0"/>
        <pt x="711" y="639" on="0"/>
        <pt x="694" y="626" on="0"/>
        <pt x="683" y="602" on="0"/>
        <pt x="683" y="584" on="1"/>
        <pt x="683" y="370" on="1"/>
        <pt x="763" y="370" on="1"/>
        <pt x="808" y="370" on="0"/>
        <pt x="860" y="416" on="0"/>
        <pt x="867" y="477" on="1"/>
        <pt x="868" y="481" on="0"/>
        <pt x="880" y="485" on="0"/>
        <pt x="885" y="485" on="1"/>
        <pt x="891" y="485" on="0"/>
        <pt x="903" y="481" on="0"/>
        <pt x="903" y="477" on="1"/>
        <pt x="903" y="458" on="0"/>
        <pt x="901" y="426" on="0"/>
        <pt x="900" y="396" on="0"/>
        <pt x="898" y="365" on="0"/>
        <pt x="898" y="347" on="1"/>
        <pt x="898" y="312" on="0"/>
        <pt x="903" y="256" on="0"/>
        <pt x="903" y="219" on="1"/>
        <pt x="903" y="216" on="0"/>
        <pt x="891" y="211" on="0"/>
        <pt x="885" y="211" on="1"/>
        <pt x="880" y="211" on="0"/>
        <pt x="868" y="216" on="0"/>
        <pt x="867" y="219" on="1"/>
        <pt x="860" y="280" on="0"/>
        <pt x="808" y="329" on="0"/>
        <pt x="763" y="329" on="1"/>
        <pt x="683" y="329" on="1"/>
        <pt x="683" y="100" on="1"/>
        <pt x="683" y="82" on="0"/>
        <pt x="694" y="59" on="0"/>
        <pt x="711" y="46" on="0"/>
        <pt x="731" y="41" on="0"/>
        <pt x="741" y="41" on="1"/>
        <pt x="821" y="41" on="1"/>
        <pt x="856" y="41" on="0"/>
        <pt x="922" y="66" on="0"/>
        <pt x="976" y="110" on="0"/>
        <pt x="1017" y="169" on="0"/>
        <pt x="1028" y="204" on="1"/>
        <pt x="1029" y="208" on="0"/>
        <pt x="1040" y="208" on="1"/>
        <pt x="1050" y="208" on="0"/>
        <pt x="1066" y="199" on="0"/>
      </contour>
      <contour>
        <pt x="533" y="579" on="1"/>
        <pt x="533" y="597" on="0"/>
        <pt x="526" y="624" on="0"/>
        <pt x="505" y="641" on="0"/>
        <pt x="465" y="649" on="0"/>
        <pt x="433" y="649" on="1"/>
        <pt x="377" y="649" on="0"/>
        <pt x="290" y="603" on="0"/>
        <pt x="232" y="520" on="0"/>
        <pt x="202" y="406" on="0"/>
        <pt x="202" y="339" on="1"/>
        <pt x="202" y="272" on="0"/>
        <pt x="232" y="160" on="0"/>
        <pt x="291" y="80" on="0"/>
        <pt x="377" y="35" on="0"/>
        <pt x="433" y="35" on="1"/>
        <pt x="463" y="35" on="0"/>
        <pt x="502" y="42" on="0"/>
        <pt x="525" y="58" on="0"/>
        <pt x="533" y="85" on="0"/>
        <pt x="533" y="105" on="1"/>
      </contour>
    </TTGlyph>
    <TTGlyph name="OE.sc" xMin="32" yMin="-7" xMax="782" yMax="470">
      <component glyphName="oe.sc" x="0" y="0" flags="0x204"/>
    </TTGlyph>
    <TTGlyph name="Oacute" xMin="43" yMin="-21" xMax="805" yMax="963">
      <component glyphName="acute.cap" x="296" y="15" flags="0x4"/>
      <component glyphName="O" x="0" y="0" flags="0x4"/>
    </TTGlyph>
    <TTGlyph name="Oacute.sc" xMin="32" yMin="-19" xMax="590" yMax="733">
      <component glyphName="o.sc" x="0" y="0" flags="0x204"/>
      <component glyphName="acute" x="188" y="22" flags="0x4"/>
    </TTGlyph>
    <TTGlyph name="Obreve" xMin="43" yMin="-21" xMax="805" yMax="947">
      <component glyphName="breve.cap" x="252" y="15" flags="0x4"/>
      <component glyphName="O" x="0" y="0" flags="0x4"/>
    </TTGlyph>
    <TTGlyph name="Obreve.sc" xMin="32" yMin="-19" xMax="590" yMax="712">
      <component glyphName="o.sc" x="0" y="0" flags="0x204"/>
      <component glyphName="breve" x="127" y="22" flags="0x4"/>
    </TTGlyph>
    <TTGlyph name="Ocircumflex" xMin="43" yMin="-21" xMax="805" yMax="951">
      <component glyphName="O" x="0" y="0" flags="0x204"/>
      <component glyphName="circumflex.cap" x="239" y="15" flags="0x4"/>
    </TTGlyph>
    <TTGlyph name="Ocircumflex.sc" xMin="32" yMin="-19" xMax="590" yMax="735">
      <component glyphName="circumflex" x="128" y="22" flags="0x4"/>
      <component glyphName="o.sc" x="0" y="0" flags="0x4"/>
    </TTGlyph>
    <TTGlyph name="Odieresis" xMin="43" yMin="-21" xMax="805" yMax="921">
      <component glyphName="dieresis.cap" x="237" y="15" flags="0x4"/>
      <component glyphName="O" x="0" y="0" flags="0x4"/>
    </TTGlyph>
    <TTGlyph name="Odieresis.sc" xMin="32" yMin="-19" xMax="590" yMax="698">
      <component glyphName="dieresis" x="124" y="22" flags="0x4"/>
      <component glyphName="o.sc" x="0" y="0" flags="0x4"/>
    </TTGlyph>
    <TTGlyph name="Ograve" xMin="43" yMin="-21" xMax="805" yMax="963">
      <component glyphName="grave.cap" x="182" y="15" flags="0x4"/>
      <component glyphName="O" x="0" y="0" flags="0x4"/>
    </TTGlyph>
    <TTGlyph name="Ograve.sc" xMin="32" yMin="-19" xMax="590" yMax="733">
      <component glyphName="o.sc" x="0" y="0" flags="0x204"/>
      <component glyphName="grave" x="67" y="22" flags="0x4"/>
    </TTGlyph>
    <TTGlyph name="Ohungarumlaut" xMin="43" yMin="-21" xMax="805" yMax="963">
      <component glyphName="O" x="0" y="0" flags="0x204"/>
      <component glyphName="hungarumlaut.cap" x="279" y="15" flags="0x4"/>
    </TTGlyph>
    <TTGlyph name="Ohungarumlaut.sc" xMin="32" yMin="-19" xMax="605" yMax="733">
      <component glyphName="o.sc" x="0" y="0" flags="0x204"/>
      <component glyphName="hungarumlaut" x="153" y="22" flags="0x4"/>
    </TTGlyph>
    <TTGlyph name="Omacron" xMin="43" yMin="-21" xMax="805" yMax="877">
      <component glyphName="macron.cap" x="231" y="15" flags="0x4"/>
      <component glyphName="O" x="0" y="0" flags="0x4"/>
    </TTGlyph>
    <TTGlyph name="Omacron.sc" xMin="32" yMin="-19" xMax="590" yMax="647">
      <component glyphName="o.sc" x="0" y="0" flags="0x204"/>
      <component glyphName="macron" x="123" y="22" flags="0x4"/>
    </TTGlyph>
    <TTGlyph name="Omegagreek" xMin="14" yMin="-6" xMax="829" yMax="706">
      <contour>
        <pt x="829" y="170" on="1"/>
        <pt x="829" y="168" on="0"/>
        <pt x="828" y="167" on="1"/>
        <pt x="822" y="152" on="0"/>
        <pt x="808" y="109" on="0"/>
        <pt x="794" y="61" on="0"/>
        <pt x="781" y="14" on="0"/>
        <pt x="776" y="-6" on="1"/>
        <pt x="760" y="-2" on="0"/>
        <pt x="681" y="0" on="0"/>
        <pt x="612" y="0" on="1"/>
        <pt x="549" y="0" on="0"/>
        <pt x="483" y="-2" on="0"/>
        <pt x="467" y="-5" on="1"/>
        <pt x="464" y="-6" on="0"/>
        <pt x="458" y="10" on="0"/>
        <pt x="452" y="33" on="0"/>
        <pt x="449" y="56" on="0"/>
        <pt x="449" y="62" on="1"/>
        <pt x="449" y="73" on="0"/>
        <pt x="453" y="74" on="1"/>
        <pt x="501" y="99" on="0"/>
        <pt x="564" y="174" on="0"/>
        <pt x="600" y="260" on="0"/>
        <pt x="615" y="351" on="0"/>
        <pt x="615" y="392" on="1"/>
        <pt x="615" y="452" on="0"/>
        <pt x="591" y="553" on="0"/>
        <pt x="543" y="625" on="0"/>
        <pt x="469" y="665" on="0"/>
        <pt x="419" y="665" on="1"/>
        <pt x="369" y="665" on="0"/>
        <pt x="295" y="625" on="0"/>
        <pt x="247" y="553" on="0"/>
        <pt x="223" y="452" on="0"/>
        <pt x="223" y="392" on="1"/>
        <pt x="223" y="351" on="0"/>
        <pt x="238" y="260" on="0"/>
        <pt x="275" y="174" on="0"/>
        <pt x="338" y="99" on="0"/>
        <pt x="386" y="74" on="1"/>
        <pt x="389" y="72" on="0"/>
        <pt x="389" y="62" on="1"/>
        <pt x="389" y="56" on="0"/>
        <pt x="386" y="33" on="0"/>
        <pt x="380" y="10" on="0"/>
        <pt x="374" y="-6" on="0"/>
        <pt x="371" y="-5" on="1"/>
        <pt x="355" y="-2" on="0"/>
        <pt x="287" y="0" on="0"/>
        <pt x="225" y="0" on="1"/>
        <pt x="156" y="0" on="0"/>
        <pt x="65" y="-2" on="0"/>
        <pt x="48" y="-6" on="1"/>
        <pt x="46" y="11" on="0"/>
        <pt x="38" y="61" on="0"/>
        <pt x="29" y="110" on="0"/>
        <pt x="20" y="150" on="0"/>
        <pt x="17" y="158" on="1"/>
        <pt x="14" y="164" on="0"/>
        <pt x="14" y="169" on="1"/>
        <pt x="14" y="174" on="0"/>
        <pt x="35" y="186" on="0"/>
        <pt x="43" y="186" on="1"/>
        <pt x="50" y="186" on="0"/>
        <pt x="52" y="181" on="1"/>
        <pt x="65" y="145" on="0"/>
        <pt x="106" y="105" on="0"/>
        <pt x="139" y="103" on="1"/>
        <pt x="278" y="100" on="1"/>
        <pt x="232" y="118" on="0"/>
        <pt x="155" y="175" on="0"/>
        <pt x="99" y="249" on="0"/>
        <pt x="68" y="338" on="0"/>
        <pt x="68" y="388" on="1"/>
        <pt x="68" y="450" on="0"/>
        <pt x="116" y="565" on="0"/>
        <pt x="207" y="653" on="0"/>
        <pt x="337" y="706" on="0"/>
        <pt x="419" y="706" on="1"/>
        <pt x="501" y="706" on="0"/>
        <pt x="632" y="653" on="0"/>
        <pt x="723" y="565" on="0"/>
        <pt x="771" y="450" on="0"/>
        <pt x="771" y="388" on="1"/>
        <pt x="771" y="338" on="0"/>
        <pt x="740" y="249" on="0"/>
        <pt x="684" y="175" on="0"/>
        <pt x="606" y="118" on="0"/>
        <pt x="560" y="100" on="1"/>
        <pt x="695" y="103" on="1"/>
        <pt x="731" y="104" on="0"/>
        <pt x="776" y="147" on="0"/>
        <pt x="793" y="181" on="1"/>
        <pt x="796" y="186" on="0"/>
        <pt x="802" y="186" on="1"/>
        <pt x="808" y="186" on="0"/>
        <pt x="829" y="175" on="0"/>
      </contour>
    </TTGlyph>
    <TTGlyph name="Oslash" xMin="43" yMin="-50" xMax="805" yMax="734">
      <contour>
        <pt x="805" y="339" on="1"/>
        <pt x="805" y="264" on="0"/>
        <pt x="753" y="132" on="0"/>
        <pt x="656" y="35" on="0"/>
        <pt x="514" y="-21" on="0"/>
        <pt x="424" y="-21" on="1"/>
        <pt x="364" y="-21" on="0"/>
        <pt x="262" y="4" on="0"/>
        <pt x="220" y="27" on="1"/>
        <pt x="215" y="20" on="0"/>
        <pt x="199" y="-2" on="0"/>
        <pt x="191" y="-13" on="1"/>
        <pt x="181" y="-26" on="0"/>
        <pt x="171" y="-41" on="1"/>
        <pt x="165" y="-50" on="0"/>
        <pt x="151" y="-38" on="1"/>
        <pt x="146" y="-34" on="0"/>
        <pt x="140" y="-25" on="0"/>
        <pt x="142" y="-21" on="1"/>
        <pt x="190" y="45" on="1"/>
        <pt x="118" y="94" on="0"/>
        <pt x="43" y="246" on="0"/>
        <pt x="43" y="339" on="1"/>
        <pt x="43" y="414" on="0"/>
        <pt x="95" y="547" on="0"/>
        <pt x="192" y="648" on="0"/>
        <pt x="334" y="706" on="0"/>
        <pt x="424" y="706" on="1"/>
        <pt x="484" y="706" on="0"/>
        <pt x="586" y="680" on="0"/>
        <pt x="628" y="656" on="1"/>
        <pt x="679" y="726" on="1"/>
        <pt x="684" y="734" on="0"/>
        <pt x="698" y="723" on="1"/>
        <pt x="711" y="713" on="0"/>
        <pt x="707" y="705" on="1"/>
        <pt x="697" y="691" on="0"/>
        <pt x="687" y="678" on="1"/>
        <pt x="679" y="667" on="0"/>
        <pt x="662" y="644" on="0"/>
        <pt x="657" y="637" on="1"/>
        <pt x="729" y="586" on="0"/>
        <pt x="805" y="430" on="0"/>
      </contour>
      <contour>
        <pt x="579" y="588" on="1"/>
        <pt x="553" y="625" on="0"/>
        <pt x="476" y="665" on="0"/>
        <pt x="424" y="665" on="1"/>
        <pt x="367" y="665" on="0"/>
        <pt x="283" y="615" on="0"/>
        <pt x="228" y="528" on="0"/>
        <pt x="202" y="408" on="0"/>
        <pt x="202" y="339" on="1"/>
        <pt x="202" y="211" on="0"/>
        <pt x="248" y="127" on="1"/>
      </contour>
      <contour>
        <pt x="646" y="339" on="1"/>
        <pt x="646" y="402" on="0"/>
        <pt x="622" y="513" on="0"/>
        <pt x="599" y="555" on="1"/>
        <pt x="433" y="325" on="1"/>
        <pt x="360" y="224" on="0"/>
        <pt x="268" y="95" on="1"/>
        <pt x="294" y="59" on="0"/>
        <pt x="372" y="19" on="0"/>
        <pt x="424" y="19" on="1"/>
        <pt x="481" y="19" on="0"/>
        <pt x="565" y="67" on="0"/>
        <pt x="620" y="152" on="0"/>
        <pt x="646" y="269" on="0"/>
      </contour>
    </TTGlyph>
    <TTGlyph name="Oslash.sc" xMin="32" yMin="-46" xMax="590" yMax="504">
      <component glyphName="oslash.sc" x="0" y="0" flags="0x204"/>
    </TTGlyph>
    <TTGlyph name="Oslashacute" xMin="43" yMin="-50" xMax="805" yMax="963">
      <component glyphName="Oslash" x="0" y="0" flags="0x204"/>
      <component glyphName="acute.cap" x="296" y="15" flags="0x4"/>
    </TTGlyph>
    <TTGlyph name="Oslashacute.sc" xMin="32" yMin="-46" xMax="590" yMax="733">
      <component glyphName="acute" x="185" y="22" flags="0x4"/>
      <component glyphName="oslash.sc" x="0" y="0" flags="0x4"/>
    </TTGlyph>
    <TTGlyph name="Otilde" xMin="43" yMin="-21" xMax="805" yMax="960">
      <component glyphName="tilde.cap" x="253" y="15" flags="0x4"/>
      <component glyphName="O" x="0" y="0" flags="0x4"/>
    </TTGlyph>
    <TTGlyph name="Otilde.sc" xMin="32" yMin="-19" xMax="590" yMax="721">
      <component glyphName="o.sc" x="0" y="0" flags="0x204"/>
      <component glyphName="tilde" x="141" y="22" flags="0x4"/>
    </TTGlyph>
    <TTGlyph name="P" xMin="36" yMin="-5" xMax="656" yMax="690">
      <contour>
        <pt x="656" y="479" on="1"/>
        <pt x="656" y="433" on="0"/>
        <pt x="617" y="356" on="0"/>
        <pt x="547" y="301" on="0"/>
        <pt x="448" y="270" on="0"/>
        <pt x="388" y="270" on="1"/>
        <pt x="358" y="270" on="0"/>
        <pt x="316" y="274" on="0"/>
        <pt x="294" y="277" on="1"/>
        <pt x="294" y="115" on="1"/>
        <pt x="294" y="95" on="0"/>
        <pt x="301" y="66" on="0"/>
        <pt x="322" y="47" on="0"/>
        <pt x="361" y="34" on="0"/>
        <pt x="393" y="31" on="1"/>
        <pt x="397" y="30" on="0"/>
        <pt x="401" y="18" on="0"/>
        <pt x="401" y="13" on="1"/>
        <pt x="401" y="7" on="0"/>
        <pt x="397" y="-5" on="0"/>
        <pt x="393" y="-5" on="1"/>
        <pt x="343" y="-5" on="0"/>
        <pt x="266" y="0" on="0"/>
        <pt x="219" y="0" on="1"/>
        <pt x="172" y="0" on="0"/>
        <pt x="94" y="-5" on="0"/>
        <pt x="44" y="-5" on="1"/>
        <pt x="41" y="-5" on="0"/>
        <pt x="36" y="7" on="0"/>
        <pt x="36" y="13" on="1"/>
        <pt x="36" y="18" on="0"/>
        <pt x="41" y="30" on="0"/>
        <pt x="44" y="31" on="1"/>
        <pt x="76" y="34" on="0"/>
        <pt x="116" y="47" on="0"/>
        <pt x="137" y="66" on="0"/>
        <pt x="144" y="95" on="0"/>
        <pt x="144" y="115" on="1"/>
        <pt x="144" y="578" on="1"/>
        <pt x="144" y="596" on="0"/>
        <pt x="137" y="621" on="0"/>
        <pt x="116" y="639" on="0"/>
        <pt x="76" y="650" on="0"/>
        <pt x="44" y="654" on="1"/>
        <pt x="41" y="654" on="0"/>
        <pt x="36" y="666" on="0"/>
        <pt x="36" y="672" on="1"/>
        <pt x="36" y="677" on="0"/>
        <pt x="41" y="690" on="0"/>
        <pt x="44" y="690" on="1"/>
        <pt x="94" y="690" on="0"/>
        <pt x="176" y="685" on="0"/>
        <pt x="223" y="685" on="1"/>
        <pt x="246" y="685" on="0"/>
        <pt x="283" y="687" on="0"/>
        <pt x="318" y="688" on="0"/>
        <pt x="356" y="690" on="0"/>
        <pt x="381" y="690" on="1"/>
        <pt x="454" y="690" on="0"/>
        <pt x="558" y="660" on="0"/>
        <pt x="625" y="605" on="0"/>
        <pt x="656" y="527" on="0"/>
      </contour>
      <contour>
        <pt x="497" y="487" on="1"/>
        <pt x="497" y="532" on="0"/>
        <pt x="477" y="594" on="0"/>
        <pt x="444" y="632" on="0"/>
        <pt x="398" y="648" on="0"/>
        <pt x="373" y="648" on="1"/>
        <pt x="347" y="648" on="0"/>
        <pt x="315" y="639" on="0"/>
        <pt x="299" y="622" on="0"/>
        <pt x="294" y="596" on="0"/>
        <pt x="294" y="578" on="1"/>
        <pt x="294" y="348" on="1"/>
        <pt x="294" y="325" on="0"/>
        <pt x="329" y="312" on="0"/>
        <pt x="354" y="312" on="1"/>
        <pt x="430" y="312" on="0"/>
        <pt x="497" y="407" on="0"/>
      </contour>
    </TTGlyph>
    <TTGlyph name="P.sc" xMin="37" yMin="-5" xMax="510" yMax="469">
      <component glyphName="p.sc" x="0" y="0" flags="0x204"/>
    </TTGlyph>
    <TTGlyph name="Pi" xMin="36" yMin="-5" xMax="837" yMax="690">
      <contour>
        <pt x="837" y="13" on="1"/>
        <pt x="837" y="7" on="0"/>
        <pt x="832" y="-5" on="0"/>
        <pt x="829" y="-5" on="1"/>
        <pt x="779" y="-5" on="0"/>
        <pt x="701" y="0" on="0"/>
        <pt x="655" y="0" on="1"/>
        <pt x="632" y="0" on="0"/>
        <pt x="595" y="-2" on="0"/>
        <pt x="559" y="-3" on="0"/>
        <pt x="521" y="-5" on="0"/>
        <pt x="496" y="-5" on="1"/>
        <pt x="493" y="-5" on="0"/>
        <pt x="488" y="7" on="0"/>
        <pt x="488" y="13" on="1"/>
        <pt x="488" y="18" on="0"/>
        <pt x="493" y="30" on="0"/>
        <pt x="496" y="31" on="1"/>
        <pt x="526" y="34" on="0"/>
        <pt x="560" y="46" on="0"/>
        <pt x="576" y="65" on="0"/>
        <pt x="580" y="94" on="0"/>
        <pt x="580" y="115" on="1"/>
        <pt x="580" y="576" on="1"/>
        <pt x="580" y="594" on="0"/>
        <pt x="569" y="618" on="0"/>
        <pt x="552" y="631" on="0"/>
        <pt x="531" y="636" on="0"/>
        <pt x="521" y="636" on="1"/>
        <pt x="352" y="636" on="1"/>
        <pt x="342" y="636" on="0"/>
        <pt x="321" y="631" on="0"/>
        <pt x="304" y="618" on="0"/>
        <pt x="293" y="594" on="0"/>
        <pt x="293" y="576" on="1"/>
        <pt x="293" y="115" on="1"/>
        <pt x="293" y="94" on="0"/>
        <pt x="296" y="65" on="0"/>
        <pt x="313" y="46" on="0"/>
        <pt x="347" y="34" on="0"/>
        <pt x="377" y="31" on="1"/>
        <pt x="380" y="30" on="0"/>
        <pt x="385" y="18" on="0"/>
        <pt x="385" y="13" on="1"/>
        <pt x="385" y="7" on="0"/>
        <pt x="380" y="-5" on="0"/>
        <pt x="377" y="-5" on="1"/>
        <pt x="352" y="-5" on="0"/>
        <pt x="314" y="-3" on="0"/>
        <pt x="278" y="-2" on="0"/>
        <pt x="242" y="0" on="0"/>
        <pt x="219" y="0" on="1"/>
        <pt x="172" y="0" on="0"/>
        <pt x="94" y="-5" on="0"/>
        <pt x="44" y="-5" on="1"/>
        <pt x="41" y="-5" on="0"/>
        <pt x="36" y="7" on="0"/>
        <pt x="36" y="13" on="1"/>
        <pt x="36" y="18" on="0"/>
        <pt x="41" y="30" on="0"/>
        <pt x="44" y="31" on="1"/>
        <pt x="76" y="34" on="0"/>
        <pt x="116" y="47" on="0"/>
        <pt x="137" y="66" on="0"/>
        <pt x="144" y="95" on="0"/>
        <pt x="144" y="115" on="1"/>
        <pt x="144" y="569" on="1"/>
        <pt x="144" y="589" on="0"/>
        <pt x="137" y="618" on="0"/>
        <pt x="116" y="638" on="0"/>
        <pt x="76" y="650" on="0"/>
        <pt x="44" y="654" on="1"/>
        <pt x="41" y="654" on="0"/>
        <pt x="36" y="666" on="0"/>
        <pt x="36" y="672" on="1"/>
        <pt x="36" y="677" on="0"/>
        <pt x="41" y="690" on="0"/>
        <pt x="44" y="690" on="1"/>
        <pt x="55" y="690" on="0"/>
        <pt x="109" y="689" on="0"/>
        <pt x="182" y="688" on="0"/>
        <pt x="266" y="687" on="0"/>
        <pt x="346" y="686" on="0"/>
        <pt x="415" y="685" on="0"/>
        <pt x="437" y="685" on="1"/>
        <pt x="458" y="685" on="0"/>
        <pt x="527" y="686" on="0"/>
        <pt x="607" y="687" on="0"/>
        <pt x="691" y="688" on="0"/>
        <pt x="764" y="689" on="0"/>
        <pt x="818" y="690" on="0"/>
        <pt x="829" y="690" on="1"/>
        <pt x="832" y="690" on="0"/>
        <pt x="837" y="677" on="0"/>
        <pt x="837" y="672" on="1"/>
        <pt x="837" y="666" on="0"/>
        <pt x="832" y="654" on="0"/>
        <pt x="829" y="654" on="1"/>
        <pt x="797" y="650" on="0"/>
        <pt x="757" y="638" on="0"/>
        <pt x="736" y="618" on="0"/>
        <pt x="729" y="589" on="0"/>
        <pt x="729" y="569" on="1"/>
        <pt x="729" y="115" on="1"/>
        <pt x="729" y="95" on="0"/>
        <pt x="736" y="66" on="0"/>
        <pt x="757" y="47" on="0"/>
        <pt x="797" y="34" on="0"/>
        <pt x="829" y="31" on="1"/>
        <pt x="832" y="30" on="0"/>
        <pt x="837" y="18" on="0"/>
      </contour>
    </TTGlyph>
    <TTGlyph name="Q" xMin="43" yMin="-209" xMax="805" yMax="706">
      <contour>
        <pt x="805" y="339" on="1"/>
        <pt x="805" y="274" on="0"/>
        <pt x="766" y="157" on="0"/>
        <pt x="693" y="65" on="0"/>
        <pt x="585" y="1" on="0"/>
        <pt x="516" y="-12" on="1"/>
        <pt x="535" y="-55" on="0"/>
        <pt x="581" y="-112" on="0"/>
        <pt x="636" y="-147" on="0"/>
        <pt x="698" y="-161" on="0"/>
        <pt x="734" y="-161" on="1"/>
        <pt x="748" y="-161" on="0"/>
        <pt x="776" y="-159" on="0"/>
        <pt x="790" y="-157" on="1"/>
        <pt x="794" y="-156" on="0"/>
        <pt x="798" y="-169" on="0"/>
        <pt x="798" y="-175" on="1"/>
        <pt x="798" y="-180" on="0"/>
        <pt x="795" y="-191" on="0"/>
        <pt x="790" y="-193" on="1"/>
        <pt x="767" y="-199" on="0"/>
        <pt x="697" y="-209" on="0"/>
        <pt x="659" y="-209" on="1"/>
        <pt x="608" y="-209" on="0"/>
        <pt x="510" y="-184" on="0"/>
        <pt x="425" y="-135" on="0"/>
        <pt x="357" y="-62" on="0"/>
        <pt x="336" y="-13" on="1"/>
        <pt x="266" y="0" on="0"/>
        <pt x="157" y="63" on="0"/>
        <pt x="82" y="156" on="0"/>
        <pt x="43" y="273" on="0"/>
        <pt x="43" y="339" on="1"/>
        <pt x="43" y="414" on="0"/>
        <pt x="95" y="547" on="0"/>
        <pt x="193" y="648" on="0"/>
        <pt x="335" y="706" on="0"/>
        <pt x="425" y="706" on="1"/>
        <pt x="515" y="706" on="0"/>
        <pt x="656" y="648" on="0"/>
        <pt x="753" y="547" on="0"/>
        <pt x="805" y="414" on="0"/>
      </contour>
      <contour>
        <pt x="646" y="339" on="1"/>
        <pt x="646" y="408" on="0"/>
        <pt x="620" y="528" on="0"/>
        <pt x="565" y="615" on="0"/>
        <pt x="482" y="665" on="0"/>
        <pt x="425" y="665" on="1"/>
        <pt x="367" y="665" on="0"/>
        <pt x="283" y="615" on="0"/>
        <pt x="229" y="528" on="0"/>
        <pt x="203" y="408" on="0"/>
        <pt x="203" y="339" on="1"/>
        <pt x="203" y="270" on="0"/>
        <pt x="229" y="152" on="0"/>
        <pt x="283" y="66" on="0"/>
        <pt x="367" y="18" on="0"/>
        <pt x="425" y="18" on="1"/>
        <pt x="482" y="18" on="0"/>
        <pt x="565" y="66" on="0"/>
        <pt x="620" y="152" on="0"/>
        <pt x="646" y="270" on="0"/>
      </contour>
    </TTGlyph>
    <TTGlyph name="Q.alt" xMin="43" yMin="-283" xMax="1305" yMax="706">
      <contour>
        <pt x="1302" y="-218" on="1"/>
        <pt x="1267" y="-250" on="0"/>
        <pt x="1139" y="-283" on="0"/>
        <pt x="1064" y="-283" on="1"/>
        <pt x="974" y="-283" on="0"/>
        <pt x="782" y="-241" on="0"/>
        <pt x="591" y="-168" on="0"/>
        <pt x="404" y="-68" on="0"/>
        <pt x="319" y="-10" on="1"/>
        <pt x="253" y="5" on="0"/>
        <pt x="151" y="70" on="0"/>
        <pt x="80" y="161" on="0"/>
        <pt x="43" y="275" on="0"/>
        <pt x="43" y="339" on="1"/>
        <pt x="43" y="414" on="0"/>
        <pt x="95" y="547" on="0"/>
        <pt x="192" y="648" on="0"/>
        <pt x="334" y="706" on="0"/>
        <pt x="424" y="706" on="1"/>
        <pt x="514" y="706" on="0"/>
        <pt x="656" y="648" on="0"/>
        <pt x="753" y="547" on="0"/>
        <pt x="805" y="414" on="0"/>
        <pt x="805" y="339" on="1"/>
        <pt x="805" y="277" on="0"/>
        <pt x="770" y="166" on="0"/>
        <pt x="704" y="76" on="0"/>
        <pt x="607" y="11" on="0"/>
        <pt x="545" y="-5" on="1"/>
        <pt x="600" y="-42" on="0"/>
        <pt x="741" y="-120" on="0"/>
        <pt x="893" y="-183" on="0"/>
        <pt x="1043" y="-223" on="0"/>
        <pt x="1107" y="-223" on="1"/>
        <pt x="1174" y="-223" on="0"/>
        <pt x="1258" y="-204" on="0"/>
        <pt x="1284" y="-187" on="1"/>
        <pt x="1286" y="-185" on="0"/>
        <pt x="1297" y="-194" on="0"/>
        <pt x="1300" y="-199" on="1"/>
        <pt x="1303" y="-204" on="0"/>
        <pt x="1305" y="-215" on="0"/>
      </contour>
      <contour>
        <pt x="646" y="339" on="1"/>
        <pt x="646" y="408" on="0"/>
        <pt x="620" y="528" on="0"/>
        <pt x="565" y="615" on="0"/>
        <pt x="481" y="665" on="0"/>
        <pt x="424" y="665" on="1"/>
        <pt x="367" y="665" on="0"/>
        <pt x="283" y="615" on="0"/>
        <pt x="228" y="528" on="0"/>
        <pt x="202" y="408" on="0"/>
        <pt x="202" y="339" on="1"/>
        <pt x="202" y="269" on="0"/>
        <pt x="228" y="151" on="0"/>
        <pt x="283" y="66" on="0"/>
        <pt x="367" y="18" on="0"/>
        <pt x="424" y="18" on="1"/>
        <pt x="481" y="18" on="0"/>
        <pt x="565" y="66" on="0"/>
        <pt x="620" y="151" on="0"/>
        <pt x="646" y="269" on="0"/>
      </contour>
    </TTGlyph>
    <TTGlyph name="Q.sc" xMin="32" yMin="-151" xMax="597" yMax="483">
      <component glyphName="q.sc" x="0" y="0" flags="0x204"/>
    </TTGlyph>
    <TTGlyph name="R" xMin="35" yMin="-5" xMax="780" yMax="690">
      <contour>
        <pt x="780" y="13" on="1"/>
        <pt x="779" y="7" on="0"/>
        <pt x="774" y="-5" on="0"/>
        <pt x="770" y="-5" on="1"/>
        <pt x="757" y="-5" on="0"/>
        <pt x="723" y="-3" on="0"/>
        <pt x="689" y="-2" on="0"/>
        <pt x="659" y="0" on="0"/>
        <pt x="651" y="0" on="1"/>
        <pt x="629" y="0" on="0"/>
        <pt x="565" y="-5" on="0"/>
        <pt x="543" y="-5" on="1"/>
        <pt x="404" y="246" on="1"/>
        <pt x="392" y="267" on="0"/>
        <pt x="371" y="293" on="0"/>
        <pt x="347" y="307" on="0"/>
        <pt x="315" y="312" on="0"/>
        <pt x="292" y="312" on="1"/>
        <pt x="292" y="115" on="1"/>
        <pt x="292" y="95" on="0"/>
        <pt x="298" y="66" on="0"/>
        <pt x="317" y="47" on="0"/>
        <pt x="355" y="34" on="0"/>
        <pt x="388" y="31" on="1"/>
        <pt x="391" y="30" on="0"/>
        <pt x="396" y="18" on="0"/>
        <pt x="396" y="13" on="1"/>
        <pt x="396" y="7" on="0"/>
        <pt x="391" y="-5" on="0"/>
        <pt x="388" y="-5" on="1"/>
        <pt x="363" y="-5" on="0"/>
        <pt x="321" y="-3" on="0"/>
        <pt x="281" y="-2" on="0"/>
        <pt x="240" y="0" on="0"/>
        <pt x="217" y="0" on="1"/>
        <pt x="170" y="0" on="0"/>
        <pt x="93" y="-5" on="0"/>
        <pt x="43" y="-5" on="1"/>
        <pt x="39" y="-5" on="0"/>
        <pt x="35" y="7" on="0"/>
        <pt x="35" y="13" on="1"/>
        <pt x="35" y="18" on="0"/>
        <pt x="39" y="30" on="0"/>
        <pt x="43" y="31" on="1"/>
        <pt x="75" y="34" on="0"/>
        <pt x="114" y="47" on="0"/>
        <pt x="135" y="66" on="0"/>
        <pt x="142" y="95" on="0"/>
        <pt x="142" y="115" on="1"/>
        <pt x="142" y="569" on="1"/>
        <pt x="142" y="589" on="0"/>
        <pt x="135" y="618" on="0"/>
        <pt x="114" y="638" on="0"/>
        <pt x="75" y="650" on="0"/>
        <pt x="43" y="654" on="1"/>
        <pt x="39" y="654" on="0"/>
        <pt x="35" y="666" on="0"/>
        <pt x="35" y="672" on="1"/>
        <pt x="35" y="677" on="0"/>
        <pt x="39" y="690" on="0"/>
        <pt x="43" y="690" on="1"/>
        <pt x="93" y="690" on="0"/>
        <pt x="172" y="685" on="0"/>
        <pt x="219" y="685" on="1"/>
        <pt x="242" y="685" on="0"/>
        <pt x="280" y="687" on="0"/>
        <pt x="316" y="688" on="0"/>
        <pt x="355" y="690" on="0"/>
        <pt x="380" y="690" on="1"/>
        <pt x="449" y="690" on="0"/>
        <pt x="551" y="663" on="0"/>
        <pt x="618" y="615" on="0"/>
        <pt x="650" y="549" on="0"/>
        <pt x="650" y="511" on="1"/>
        <pt x="650" y="447" on="0"/>
        <pt x="574" y="361" on="0"/>
        <pt x="502" y="338" on="1"/>
        <pt x="652" y="101" on="1"/>
        <pt x="661" y="86" on="0"/>
        <pt x="680" y="63" on="0"/>
        <pt x="707" y="46" on="0"/>
        <pt x="746" y="34" on="0"/>
        <pt x="774" y="31" on="1"/>
        <pt x="777" y="30" on="0"/>
        <pt x="780" y="18" on="0"/>
      </contour>
      <contour>
        <pt x="492" y="501" on="1"/>
        <pt x="492" y="572" on="0"/>
        <pt x="436" y="648" on="0"/>
        <pt x="371" y="648" on="1"/>
        <pt x="344" y="648" on="0"/>
        <pt x="312" y="640" on="0"/>
        <pt x="296" y="622" on="0"/>
        <pt x="292" y="596" on="0"/>
        <pt x="292" y="578" on="1"/>
        <pt x="292" y="353" on="1"/>
        <pt x="304" y="351" on="0"/>
        <pt x="332" y="349" on="0"/>
        <pt x="348" y="349" on="1"/>
        <pt x="426" y="349" on="0"/>
        <pt x="492" y="423" on="0"/>
      </contour>
    </TTGlyph>
    <TTGlyph name="R.sc" xMin="37" yMin="-5" xMax="591" yMax="469">
      <component glyphName="r.sc" x="0" y="0" flags="0x204"/>
    </TTGlyph>
    <TTGlyph name="R_p" xMin="57" yMin="-248" xMax="1168" yMax="624">
      <contour>
        <pt x="1168" y="199" on="1"/>
        <pt x="1168" y="154" on="0"/>
        <pt x="1137" y="74" on="0"/>
        <pt x="1079" y="14" on="0"/>
        <pt x="996" y="-21" on="0"/>
        <pt x="943" y="-21" on="1"/>
        <pt x="912" y="-21" on="0"/>
        <pt x="868" y="-10" on="0"/>
        <pt x="850" y="0" on="1"/>
        <pt x="850" y="-136" on="1"/>
        <pt x="850" y="-159" on="0"/>
        <pt x="855" y="-187" on="0"/>
        <pt x="870" y="-204" on="0"/>
        <pt x="896" y="-213" on="0"/>
        <pt x="917" y="-215" on="1"/>
        <pt x="920" y="-216" on="0"/>
        <pt x="924" y="-226" on="0"/>
        <pt x="924" y="-232" on="1"/>
        <pt x="924" y="-237" on="0"/>
        <pt x="920" y="-248" on="0"/>
        <pt x="917" y="-248" on="1"/>
        <pt x="887" y="-248" on="0"/>
        <pt x="821" y="-243" on="0"/>
        <pt x="788" y="-243" on="1"/>
        <pt x="754" y="-243" on="0"/>
        <pt x="689" y="-248" on="0"/>
        <pt x="660" y="-248" on="1"/>
        <pt x="657" y="-248" on="0"/>
        <pt x="653" y="-237" on="0"/>
        <pt x="653" y="-232" on="1"/>
        <pt x="653" y="-226" on="0"/>
        <pt x="657" y="-216" on="0"/>
        <pt x="660" y="-215" on="1"/>
        <pt x="680" y="-213" on="0"/>
        <pt x="705" y="-204" on="0"/>
        <pt x="718" y="-187" on="0"/>
        <pt x="723" y="-159" on="0"/>
        <pt x="723" y="-136" on="1"/>
        <pt x="723" y="-6" on="1"/>
        <pt x="699" y="-5" on="0"/>
        <pt x="642" y="0" on="0"/>
        <pt x="627" y="0" on="1"/>
        <pt x="604" y="0" on="0"/>
        <pt x="547" y="-5" on="0"/>
        <pt x="524" y="-5" on="1"/>
        <pt x="401" y="220" on="1"/>
        <pt x="390" y="239" on="0"/>
        <pt x="371" y="263" on="0"/>
        <pt x="348" y="276" on="0"/>
        <pt x="320" y="281" on="0"/>
        <pt x="299" y="281" on="1"/>
        <pt x="299" y="109" on="1"/>
        <pt x="299" y="90" on="0"/>
        <pt x="304" y="63" on="0"/>
        <pt x="322" y="45" on="0"/>
        <pt x="356" y="33" on="0"/>
        <pt x="385" y="29" on="1"/>
        <pt x="388" y="29" on="0"/>
        <pt x="392" y="17" on="0"/>
        <pt x="392" y="12" on="1"/>
        <pt x="392" y="6" on="0"/>
        <pt x="388" y="-6" on="0"/>
        <pt x="385" y="-6" on="1"/>
        <pt x="362" y="-6" on="0"/>
        <pt x="324" y="-4" on="0"/>
        <pt x="287" y="-2" on="0"/>
        <pt x="249" y="0" on="0"/>
        <pt x="227" y="0" on="1"/>
        <pt x="183" y="0" on="0"/>
        <pt x="110" y="-6" on="0"/>
        <pt x="64" y="-6" on="1"/>
        <pt x="61" y="-6" on="0"/>
        <pt x="57" y="6" on="0"/>
        <pt x="57" y="12" on="1"/>
        <pt x="57" y="17" on="0"/>
        <pt x="61" y="29" on="0"/>
        <pt x="64" y="29" on="1"/>
        <pt x="94" y="33" on="0"/>
        <pt x="130" y="45" on="0"/>
        <pt x="149" y="64" on="0"/>
        <pt x="155" y="91" on="0"/>
        <pt x="155" y="111" on="1"/>
        <pt x="155" y="507" on="1"/>
        <pt x="155" y="526" on="0"/>
        <pt x="149" y="554" on="0"/>
        <pt x="130" y="573" on="0"/>
        <pt x="94" y="585" on="0"/>
        <pt x="64" y="589" on="1"/>
        <pt x="61" y="589" on="0"/>
        <pt x="57" y="601" on="0"/>
        <pt x="57" y="606" on="1"/>
        <pt x="57" y="612" on="0"/>
        <pt x="61" y="624" on="0"/>
        <pt x="64" y="624" on="1"/>
        <pt x="110" y="624" on="0"/>
        <pt x="186" y="618" on="0"/>
        <pt x="231" y="618" on="1"/>
        <pt x="252" y="618" on="0"/>
        <pt x="289" y="620" on="0"/>
        <pt x="325" y="621" on="0"/>
        <pt x="362" y="623" on="0"/>
        <pt x="385" y="623" on="1"/>
        <pt x="508" y="623" on="0"/>
        <pt x="629" y="533" on="0"/>
        <pt x="629" y="462" on="1"/>
        <pt x="629" y="406" on="0"/>
        <pt x="559" y="328" on="0"/>
        <pt x="495" y="306" on="1"/>
        <pt x="629" y="95" on="1"/>
        <pt x="644" y="70" on="0"/>
        <pt x="682" y="39" on="0"/>
        <pt x="723" y="32" on="1"/>
        <pt x="723" y="260" on="1"/>
        <pt x="723" y="279" on="0"/>
        <pt x="719" y="301" on="0"/>
        <pt x="708" y="314" on="0"/>
        <pt x="688" y="320" on="0"/>
        <pt x="671" y="322" on="1"/>
        <pt x="668" y="322" on="0"/>
        <pt x="664" y="332" on="0"/>
        <pt x="664" y="337" on="1"/>
        <pt x="664" y="342" on="0"/>
        <pt x="668" y="353" on="0"/>
        <pt x="671" y="353" on="1"/>
        <pt x="687" y="357" on="0"/>
        <pt x="729" y="369" on="0"/>
        <pt x="770" y="384" on="0"/>
        <pt x="807" y="400" on="0"/>
        <pt x="819" y="408" on="1"/>
        <pt x="822" y="410" on="0"/>
        <pt x="831" y="415" on="0"/>
        <pt x="836" y="415" on="1"/>
        <pt x="852" y="415" on="0"/>
        <pt x="852" y="406" on="1"/>
        <pt x="848" y="340" on="1"/>
        <pt x="869" y="369" on="0"/>
        <pt x="938" y="410" on="0"/>
        <pt x="976" y="410" on="1"/>
        <pt x="1021" y="410" on="0"/>
        <pt x="1092" y="378" on="0"/>
        <pt x="1142" y="322" on="0"/>
        <pt x="1168" y="244" on="0"/>
      </contour>
      <contour>
        <pt x="1034" y="196" on="1"/>
        <pt x="1034" y="274" on="0"/>
        <pt x="980" y="346" on="0"/>
        <pt x="934" y="346" on="1"/>
        <pt x="904" y="346" on="0"/>
        <pt x="868" y="319" on="0"/>
        <pt x="850" y="292" on="1"/>
        <pt x="850" y="88" on="1"/>
        <pt x="850" y="56" on="0"/>
        <pt x="893" y="18" on="0"/>
        <pt x="929" y="18" on="1"/>
        <pt x="961" y="18" on="0"/>
        <pt x="1002" y="44" on="0"/>
        <pt x="1025" y="92" on="0"/>
        <pt x="1034" y="157" on="0"/>
      </contour>
      <contour>
        <pt x="478" y="453" on="1"/>
        <pt x="478" y="515" on="0"/>
        <pt x="429" y="583" on="0"/>
        <pt x="369" y="583" on="1"/>
        <pt x="346" y="583" on="0"/>
        <pt x="319" y="576" on="0"/>
        <pt x="304" y="561" on="0"/>
        <pt x="299" y="536" on="0"/>
        <pt x="299" y="519" on="1"/>
        <pt x="299" y="321" on="1"/>
        <pt x="310" y="319" on="0"/>
        <pt x="335" y="317" on="0"/>
        <pt x="349" y="317" on="1"/>
        <pt x="418" y="317" on="0"/>
        <pt x="478" y="382" on="0"/>
      </contour>
    </TTGlyph>
    <TTGlyph name="R_p.lin" xMin="34" yMin="-265" xMax="1226" yMax="690">
      <contour>
        <pt x="1226" y="220" on="1"/>
        <pt x="1226" y="170" on="0"/>
        <pt x="1192" y="82" on="0"/>
        <pt x="1128" y="17" on="0"/>
        <pt x="1037" y="-21" on="0"/>
        <pt x="981" y="-21" on="1"/>
        <pt x="947" y="-21" on="0"/>
        <pt x="903" y="-10" on="0"/>
        <pt x="883" y="1" on="1"/>
        <pt x="883" y="-144" on="1"/>
        <pt x="883" y="-168" on="0"/>
        <pt x="889" y="-199" on="0"/>
        <pt x="905" y="-217" on="0"/>
        <pt x="932" y="-226" on="0"/>
        <pt x="954" y="-228" on="1"/>
        <pt x="958" y="-229" on="0"/>
        <pt x="962" y="-241" on="0"/>
        <pt x="962" y="-246" on="1"/>
        <pt x="962" y="-252" on="0"/>
        <pt x="958" y="-265" on="0"/>
        <pt x="954" y="-265" on="1"/>
        <pt x="922" y="-265" on="0"/>
        <pt x="854" y="-259" on="0"/>
        <pt x="818" y="-259" on="1"/>
        <pt x="782" y="-259" on="0"/>
        <pt x="718" y="-265" on="0"/>
        <pt x="686" y="-265" on="1"/>
        <pt x="682" y="-265" on="0"/>
        <pt x="678" y="-252" on="0"/>
        <pt x="678" y="-246" on="1"/>
        <pt x="678" y="-241" on="0"/>
        <pt x="682" y="-229" on="0"/>
        <pt x="686" y="-228" on="1"/>
        <pt x="708" y="-226" on="0"/>
        <pt x="734" y="-217" on="0"/>
        <pt x="748" y="-199" on="0"/>
        <pt x="753" y="-168" on="0"/>
        <pt x="753" y="-144" on="1"/>
        <pt x="753" y="-6" on="1"/>
        <pt x="740" y="-5" on="0"/>
        <pt x="711" y="-3" on="0"/>
        <pt x="682" y="-1" on="0"/>
        <pt x="658" y="0" on="0"/>
        <pt x="651" y="0" on="1"/>
        <pt x="629" y="0" on="0"/>
        <pt x="565" y="-6" on="0"/>
        <pt x="542" y="-6" on="1"/>
        <pt x="404" y="246" on="1"/>
        <pt x="392" y="267" on="0"/>
        <pt x="371" y="293" on="0"/>
        <pt x="347" y="307" on="0"/>
        <pt x="315" y="312" on="0"/>
        <pt x="292" y="312" on="1"/>
        <pt x="292" y="115" on="1"/>
        <pt x="292" y="95" on="0"/>
        <pt x="297" y="67" on="0"/>
        <pt x="317" y="47" on="0"/>
        <pt x="355" y="34" on="0"/>
        <pt x="387" y="30" on="1"/>
        <pt x="391" y="30" on="0"/>
        <pt x="395" y="18" on="0"/>
        <pt x="395" y="12" on="1"/>
        <pt x="395" y="7" on="0"/>
        <pt x="391" y="-6" on="0"/>
        <pt x="387" y="-6" on="1"/>
        <pt x="362" y="-6" on="0"/>
        <pt x="320" y="-4" on="0"/>
        <pt x="281" y="-2" on="0"/>
        <pt x="240" y="0" on="0"/>
        <pt x="217" y="0" on="1"/>
        <pt x="170" y="0" on="0"/>
        <pt x="92" y="-6" on="0"/>
        <pt x="42" y="-6" on="1"/>
        <pt x="39" y="-6" on="0"/>
        <pt x="34" y="7" on="0"/>
        <pt x="34" y="12" on="1"/>
        <pt x="34" y="18" on="0"/>
        <pt x="39" y="30" on="0"/>
        <pt x="42" y="30" on="1"/>
        <pt x="74" y="34" on="0"/>
        <pt x="114" y="47" on="0"/>
        <pt x="135" y="67" on="0"/>
        <pt x="142" y="95" on="0"/>
        <pt x="142" y="115" on="1"/>
        <pt x="142" y="569" on="1"/>
        <pt x="142" y="589" on="0"/>
        <pt x="135" y="618" on="0"/>
        <pt x="114" y="638" on="0"/>
        <pt x="74" y="650" on="0"/>
        <pt x="42" y="654" on="1"/>
        <pt x="39" y="654" on="0"/>
        <pt x="34" y="666" on="0"/>
        <pt x="34" y="672" on="1"/>
        <pt x="34" y="677" on="0"/>
        <pt x="39" y="690" on="0"/>
        <pt x="42" y="690" on="1"/>
        <pt x="92" y="690" on="0"/>
        <pt x="172" y="684" on="0"/>
        <pt x="219" y="684" on="1"/>
        <pt x="242" y="684" on="0"/>
        <pt x="279" y="686" on="0"/>
        <pt x="315" y="688" on="0"/>
        <pt x="354" y="690" on="0"/>
        <pt x="379" y="690" on="1"/>
        <pt x="448" y="690" on="0"/>
        <pt x="550" y="663" on="0"/>
        <pt x="617" y="615" on="0"/>
        <pt x="650" y="549" on="0"/>
        <pt x="650" y="510" on="1"/>
        <pt x="650" y="447" on="0"/>
        <pt x="573" y="361" on="0"/>
        <pt x="501" y="338" on="1"/>
        <pt x="652" y="101" on="1"/>
        <pt x="660" y="87" on="0"/>
        <pt x="677" y="66" on="0"/>
        <pt x="700" y="49" on="0"/>
        <pt x="731" y="37" on="0"/>
        <pt x="753" y="34" on="1"/>
        <pt x="753" y="285" on="1"/>
        <pt x="753" y="305" on="0"/>
        <pt x="749" y="330" on="0"/>
        <pt x="737" y="345" on="0"/>
        <pt x="716" y="352" on="0"/>
        <pt x="698" y="354" on="1"/>
        <pt x="694" y="354" on="0"/>
        <pt x="690" y="365" on="0"/>
        <pt x="690" y="370" on="1"/>
        <pt x="690" y="375" on="0"/>
        <pt x="694" y="387" on="0"/>
        <pt x="698" y="387" on="1"/>
        <pt x="716" y="391" on="0"/>
        <pt x="757" y="405" on="0"/>
        <pt x="798" y="421" on="0"/>
        <pt x="835" y="439" on="0"/>
        <pt x="849" y="447" on="1"/>
        <pt x="851" y="449" on="0"/>
        <pt x="861" y="455" on="0"/>
        <pt x="867" y="455" on="1"/>
        <pt x="885" y="455" on="0"/>
        <pt x="885" y="444" on="1"/>
        <pt x="881" y="373" on="1"/>
        <pt x="904" y="405" on="0"/>
        <pt x="975" y="449" on="0"/>
        <pt x="1017" y="449" on="1"/>
        <pt x="1068" y="449" on="0"/>
        <pt x="1146" y="413" on="0"/>
        <pt x="1199" y="351" on="0"/>
        <pt x="1226" y="268" on="0"/>
      </contour>
      <contour>
        <pt x="1085" y="216" on="1"/>
        <pt x="1085" y="298" on="0"/>
        <pt x="1026" y="380" on="0"/>
        <pt x="974" y="380" on="1"/>
        <pt x="940" y="380" on="0"/>
        <pt x="903" y="352" on="0"/>
        <pt x="883" y="323" on="1"/>
        <pt x="883" y="95" on="1"/>
        <pt x="883" y="60" on="0"/>
        <pt x="930" y="19" on="0"/>
        <pt x="969" y="19" on="1"/>
        <pt x="1004" y="19" on="0"/>
        <pt x="1049" y="49" on="0"/>
        <pt x="1075" y="102" on="0"/>
        <pt x="1085" y="174" on="0"/>
      </contour>
      <contour>
        <pt x="492" y="501" on="1"/>
        <pt x="492" y="571" on="0"/>
        <pt x="436" y="648" on="0"/>
        <pt x="370" y="648" on="1"/>
        <pt x="343" y="648" on="0"/>
        <pt x="312" y="640" on="0"/>
        <pt x="296" y="622" on="0"/>
        <pt x="292" y="595" on="0"/>
        <pt x="292" y="577" on="1"/>
        <pt x="292" y="352" on="1"/>
        <pt x="316" y="349" on="0"/>
        <pt x="347" y="349" on="1"/>
        <pt x="425" y="348" on="0"/>
        <pt x="492" y="423" on="0"/>
      </contour>
    </TTGlyph>
    <TTGlyph name="R_p.sc" xMin="45" yMin="-209" xMax="965" yMax="469">
      <contour>
        <pt x="965" y="153" on="1"/>
        <pt x="965" y="118" on="0"/>
        <pt x="943" y="56" on="0"/>
        <pt x="898" y="8" on="0"/>
        <pt x="832" y="-20" on="0"/>
        <pt x="788" y="-20" on="1"/>
        <pt x="762" y="-20" on="0"/>
        <pt x="721" y="-10" on="0"/>
        <pt x="706" y="-2" on="1"/>
        <pt x="706" y="-117" on="1"/>
        <pt x="706" y="-136" on="0"/>
        <pt x="710" y="-159" on="0"/>
        <pt x="722" y="-174" on="0"/>
        <pt x="743" y="-181" on="0"/>
        <pt x="760" y="-183" on="1"/>
        <pt x="766" y="-183" on="0"/>
        <pt x="766" y="-196" on="1"/>
        <pt x="766" y="-201" on="0"/>
        <pt x="763" y="-209" on="0"/>
        <pt x="760" y="-209" on="1"/>
        <pt x="736" y="-209" on="0"/>
        <pt x="677" y="-205" on="0"/>
        <pt x="649" y="-205" on="1"/>
        <pt x="621" y="-205" on="0"/>
        <pt x="558" y="-209" on="0"/>
        <pt x="533" y="-209" on="1"/>
        <pt x="531" y="-209" on="0"/>
        <pt x="527" y="-201" on="0"/>
        <pt x="527" y="-196" on="1"/>
        <pt x="527" y="-183" on="0"/>
        <pt x="533" y="-183" on="1"/>
        <pt x="550" y="-181" on="0"/>
        <pt x="571" y="-174" on="0"/>
        <pt x="582" y="-159" on="0"/>
        <pt x="586" y="-136" on="0"/>
        <pt x="586" y="-117" on="1"/>
        <pt x="586" y="-5" on="1"/>
        <pt x="563" y="-3" on="0"/>
        <pt x="520" y="2" on="0"/>
        <pt x="502" y="2" on="1"/>
        <pt x="477" y="2" on="0"/>
        <pt x="436" y="-3" on="0"/>
        <pt x="412" y="-3" on="1"/>
        <pt x="325" y="161" on="1"/>
        <pt x="317" y="175" on="0"/>
        <pt x="302" y="194" on="0"/>
        <pt x="286" y="205" on="0"/>
        <pt x="265" y="210" on="0"/>
        <pt x="250" y="210" on="1"/>
        <pt x="250" y="97" on="1"/>
        <pt x="250" y="65" on="0"/>
        <pt x="273" y="34" on="0"/>
        <pt x="311" y="28" on="1"/>
        <pt x="313" y="28" on="0"/>
        <pt x="316" y="17" on="0"/>
        <pt x="316" y="12" on="1"/>
        <pt x="316" y="7" on="0"/>
        <pt x="313" y="-5" on="0"/>
        <pt x="311" y="-5" on="1"/>
        <pt x="293" y="-5" on="0"/>
        <pt x="265" y="-3" on="0"/>
        <pt x="236" y="-2" on="0"/>
        <pt x="205" y="0" on="0"/>
        <pt x="185" y="0" on="1"/>
        <pt x="144" y="0" on="0"/>
        <pt x="85" y="-5" on="0"/>
        <pt x="50" y="-5" on="1"/>
        <pt x="48" y="-5" on="0"/>
        <pt x="45" y="7" on="0"/>
        <pt x="45" y="12" on="1"/>
        <pt x="45" y="17" on="0"/>
        <pt x="48" y="28" on="0"/>
        <pt x="50" y="28" on="1"/>
        <pt x="74" y="31" on="0"/>
        <pt x="101" y="42" on="0"/>
        <pt x="115" y="59" on="0"/>
        <pt x="119" y="84" on="0"/>
        <pt x="119" y="103" on="1"/>
        <pt x="119" y="361" on="1"/>
        <pt x="119" y="380" on="0"/>
        <pt x="115" y="406" on="0"/>
        <pt x="101" y="423" on="0"/>
        <pt x="74" y="433" on="0"/>
        <pt x="50" y="436" on="1"/>
        <pt x="48" y="436" on="0"/>
        <pt x="45" y="447" on="0"/>
        <pt x="45" y="452" on="1"/>
        <pt x="45" y="457" on="0"/>
        <pt x="48" y="469" on="0"/>
        <pt x="50" y="469" on="1"/>
        <pt x="85" y="469" on="0"/>
        <pt x="152" y="464" on="0"/>
        <pt x="194" y="464" on="1"/>
        <pt x="226" y="464" on="0"/>
        <pt x="295" y="467" on="0"/>
        <pt x="329" y="467" on="1"/>
        <pt x="418" y="467" on="0"/>
        <pt x="513" y="406" on="0"/>
        <pt x="513" y="349" on="1"/>
        <pt x="513" y="311" on="0"/>
        <pt x="459" y="250" on="0"/>
        <pt x="411" y="232" on="1"/>
        <pt x="507" y="83" on="1"/>
        <pt x="514" y="71" on="0"/>
        <pt x="528" y="54" on="0"/>
        <pt x="545" y="41" on="0"/>
        <pt x="568" y="33" on="0"/>
        <pt x="586" y="30" on="1"/>
        <pt x="586" y="204" on="1"/>
        <pt x="586" y="219" on="0"/>
        <pt x="583" y="236" on="0"/>
        <pt x="574" y="245" on="0"/>
        <pt x="557" y="247" on="0"/>
        <pt x="543" y="249" on="1"/>
        <pt x="536" y="251" on="0"/>
        <pt x="536" y="261" on="1"/>
        <pt x="536" y="266" on="0"/>
        <pt x="540" y="273" on="0"/>
        <pt x="543" y="273" on="1"/>
        <pt x="556" y="276" on="0"/>
        <pt x="596" y="286" on="0"/>
        <pt x="636" y="298" on="0"/>
        <pt x="672" y="311" on="0"/>
        <pt x="682" y="318" on="1"/>
        <pt x="684" y="319" on="0"/>
        <pt x="690" y="324" on="0"/>
        <pt x="695" y="324" on="1"/>
        <pt x="708" y="324" on="0"/>
        <pt x="708" y="316" on="1"/>
        <pt x="705" y="263" on="1"/>
        <pt x="712" y="275" on="0"/>
        <pt x="737" y="295" on="0"/>
        <pt x="767" y="311" on="0"/>
        <pt x="799" y="320" on="0"/>
        <pt x="813" y="320" on="1"/>
        <pt x="845" y="320" on="0"/>
        <pt x="900" y="298" on="0"/>
        <pt x="941" y="255" on="0"/>
        <pt x="965" y="193" on="0"/>
      </contour>
      <contour>
        <pt x="846" y="151" on="1"/>
        <pt x="846" y="184" on="0"/>
        <pt x="834" y="228" on="0"/>
        <pt x="814" y="253" on="0"/>
        <pt x="787" y="264" on="0"/>
        <pt x="772" y="264" on="1"/>
        <pt x="749" y="264" on="0"/>
        <pt x="720" y="241" on="0"/>
        <pt x="706" y="220" on="1"/>
        <pt x="706" y="75" on="1"/>
        <pt x="706" y="49" on="0"/>
        <pt x="739" y="17" on="0"/>
        <pt x="769" y="17" on="1"/>
        <pt x="817" y="17" on="0"/>
        <pt x="846" y="85" on="0"/>
      </contour>
      <contour>
        <pt x="380" y="341" on="1"/>
        <pt x="380" y="384" on="0"/>
        <pt x="344" y="430" on="0"/>
        <pt x="299" y="430" on="1"/>
        <pt x="273" y="430" on="0"/>
        <pt x="250" y="412" on="0"/>
        <pt x="250" y="382" on="1"/>
        <pt x="250" y="247" on="1"/>
        <pt x="259" y="246" on="0"/>
        <pt x="273" y="245" on="0"/>
        <pt x="284" y="245" on="1"/>
        <pt x="335" y="245" on="0"/>
        <pt x="380" y="287" on="0"/>
      </contour>
    </TTGlyph>
    <TTGlyph name="Racute" xMin="35" yMin="-5" xMax="780" yMax="948">
      <component glyphName="R" x="0" y="0" flags="0x204"/>
      <component glyphName="acute.cap" x="217" y="0" flags="0x4"/>
    </TTGlyph>
    <TTGlyph name="Racute.sc" xMin="37" yMin="-5" xMax="591" yMax="726">
      <component glyphName="acute" x="157" y="15" flags="0x4"/>
      <component glyphName="r.sc" x="0" y="0" flags="0x4"/>
    </TTGlyph>
    <TTGlyph name="Rcaron" xMin="35" yMin="-5" xMax="780" yMax="940">
      <component glyphName="caron.cap" x="160" y="0" flags="0x4"/>
      <component glyphName="R" x="0" y="0" flags="0x4"/>
    </TTGlyph>
    <TTGlyph name="Rcaron.sc" xMin="37" yMin="-5" xMax="591" yMax="723">
      <component glyphName="caron" x="97" y="15" flags="0x4"/>
      <component glyphName="r.sc" x="0" y="0" flags="0x4"/>
    </TTGlyph>
    <TTGlyph name="Rcommaaccent" xMin="35" yMin="-308" xMax="780" yMax="690">
      <component glyphName="commaaccent" x="308" y="-4" flags="0x4"/>
      <component glyphName="R" x="0" y="0" flags="0x4"/>
    </TTGlyph>
    <TTGlyph name="Rcommaaccent.sc" xMin="37" yMin="-304" xMax="591" yMax="469">
      <component glyphName="commaaccent" x="204" y="0" flags="0x4"/>
      <component glyphName="r.sc" x="0" y="0" flags="0x4"/>
    </TTGlyph>
    <TTGlyph name="S" xMin="52" yMin="-21" xMax="522" yMax="706">
      <contour>
        <pt x="522" y="201" on="1"/>
        <pt x="522" y="149" on="0"/>
        <pt x="487" y="67" on="0"/>
        <pt x="422" y="10" on="0"/>
        <pt x="332" y="-21" on="0"/>
        <pt x="278" y="-21" on="1"/>
        <pt x="244" y="-21" on="0"/>
        <pt x="189" y="-10" on="0"/>
        <pt x="139" y="4" on="0"/>
        <pt x="89" y="17" on="0"/>
        <pt x="60" y="20" on="1"/>
        <pt x="59" y="40" on="0"/>
        <pt x="58" y="90" on="0"/>
        <pt x="56" y="141" on="0"/>
        <pt x="53" y="188" on="0"/>
        <pt x="52" y="206" on="1"/>
        <pt x="52" y="209" on="0"/>
        <pt x="65" y="214" on="0"/>
        <pt x="71" y="214" on="1"/>
        <pt x="76" y="214" on="0"/>
        <pt x="86" y="211" on="0"/>
        <pt x="88" y="206" on="1"/>
        <pt x="111" y="114" on="0"/>
        <pt x="213" y="19" on="0"/>
        <pt x="280" y="19" on="1"/>
        <pt x="343" y="19" on="0"/>
        <pt x="398" y="81" on="0"/>
        <pt x="398" y="132" on="1"/>
        <pt x="398" y="170" on="0"/>
        <pt x="349" y="228" on="0"/>
        <pt x="276" y="276" on="0"/>
        <pt x="191" y="323" on="0"/>
        <pt x="118" y="378" on="0"/>
        <pt x="69" y="449" on="0"/>
        <pt x="69" y="498" on="1"/>
        <pt x="69" y="540" on="0"/>
        <pt x="102" y="615" on="0"/>
        <pt x="163" y="672" on="0"/>
        <pt x="252" y="706" on="0"/>
        <pt x="308" y="706" on="1"/>
        <pt x="336" y="706" on="0"/>
        <pt x="375" y="699" on="0"/>
        <pt x="410" y="690" on="0"/>
        <pt x="448" y="681" on="0"/>
        <pt x="475" y="678" on="1"/>
        <pt x="477" y="635" on="0"/>
        <pt x="483" y="553" on="0"/>
        <pt x="488" y="511" on="1"/>
        <pt x="489" y="508" on="0"/>
        <pt x="476" y="503" on="0"/>
        <pt x="471" y="503" on="1"/>
        <pt x="465" y="503" on="0"/>
        <pt x="453" y="506" on="0"/>
        <pt x="452" y="511" on="1"/>
        <pt x="416" y="665" on="0"/>
        <pt x="307" y="665" on="1"/>
        <pt x="255" y="665" on="0"/>
        <pt x="195" y="607" on="0"/>
        <pt x="195" y="561" on="1"/>
        <pt x="195" y="526" on="0"/>
        <pt x="243" y="472" on="0"/>
        <pt x="316" y="424" on="0"/>
        <pt x="401" y="377" on="0"/>
        <pt x="474" y="321" on="0"/>
        <pt x="522" y="249" on="0"/>
      </contour>
    </TTGlyph>
    <TTGlyph name="S.sc" xMin="54" yMin="-19" xMax="410" yMax="485">
      <component glyphName="s.sc" x="0" y="0" flags="0x204"/>
    </TTGlyph>
    <TTGlyph name="Sacute" xMin="52" yMin="-21" xMax="522" yMax="963">
      <component glyphName="S" x="0" y="0" flags="0x204"/>
      <component glyphName="acute.cap" x="168" y="15" flags="0x4"/>
    </TTGlyph>
    <TTGlyph name="Sacute.sc" xMin="54" yMin="-19" xMax="412" yMax="733">
      <component glyphName="acute" x="111" y="22" flags="0x4"/>
      <component glyphName="s.sc" x="0" y="0" flags="0x4"/>
    </TTGlyph>
    <TTGlyph name="Scaron" xMin="52" yMin="-21" xMax="522" yMax="955">
      <component glyphName="S" x="0" y="0" flags="0x204"/>
      <component glyphName="caron.cap" x="111" y="15" flags="0x4"/>
    </TTGlyph>
    <TTGlyph name="Scaron.sc" xMin="54" yMin="-19" xMax="410" yMax="730">
      <component glyphName="caron" x="51" y="22" flags="0x4"/>
      <component glyphName="s.sc" x="0" y="0" flags="0x4"/>
    </TTGlyph>
    <TTGlyph name="Scedilla" xMin="52" yMin="-219" xMax="522" yMax="706">
      <contour>
        <pt x="522" y="201" on="1"/>
        <pt x="522" y="153" on="0"/>
        <pt x="491" y="75" on="0"/>
        <pt x="436" y="19" on="0"/>
        <pt x="358" y="-15" on="0"/>
        <pt x="310" y="-19" on="1"/>
        <pt x="307" y="-25" on="1"/>
        <pt x="304" y="-30" on="0"/>
        <pt x="304" y="-34" on="1"/>
        <pt x="304" y="-42" on="0"/>
        <pt x="314" y="-49" on="1"/>
        <pt x="336" y="-63" on="0"/>
        <pt x="368" y="-101" on="0"/>
        <pt x="368" y="-128" on="1"/>
        <pt x="368" y="-148" on="0"/>
        <pt x="348" y="-181" on="0"/>
        <pt x="315" y="-205" on="0"/>
        <pt x="271" y="-219" on="0"/>
        <pt x="248" y="-219" on="1"/>
        <pt x="215" y="-219" on="0"/>
        <pt x="182" y="-196" on="0"/>
        <pt x="182" y="-181" on="1"/>
        <pt x="182" y="-170" on="0"/>
        <pt x="196" y="-152" on="0"/>
        <pt x="210" y="-152" on="1"/>
        <pt x="220" y="-152" on="0"/>
        <pt x="236" y="-161" on="0"/>
        <pt x="250" y="-173" on="0"/>
        <pt x="264" y="-182" on="0"/>
        <pt x="273" y="-182" on="1"/>
        <pt x="298" y="-182" on="0"/>
        <pt x="298" y="-150" on="1"/>
        <pt x="298" y="-132" on="0"/>
        <pt x="260" y="-100" on="0"/>
        <pt x="238" y="-89" on="1"/>
        <pt x="228" y="-84" on="0"/>
        <pt x="228" y="-74" on="1"/>
        <pt x="228" y="-70" on="0"/>
        <pt x="231" y="-65" on="1"/>
        <pt x="259" y="-20" on="1"/>
        <pt x="229" y="-19" on="0"/>
        <pt x="180" y="-8" on="0"/>
        <pt x="133" y="5" on="0"/>
        <pt x="87" y="17" on="0"/>
        <pt x="60" y="20" on="1"/>
        <pt x="59" y="40" on="0"/>
        <pt x="58" y="90" on="0"/>
        <pt x="56" y="141" on="0"/>
        <pt x="53" y="188" on="0"/>
        <pt x="52" y="206" on="1"/>
        <pt x="52" y="209" on="0"/>
        <pt x="65" y="214" on="0"/>
        <pt x="71" y="214" on="1"/>
        <pt x="76" y="214" on="0"/>
        <pt x="86" y="211" on="0"/>
        <pt x="88" y="206" on="1"/>
        <pt x="111" y="114" on="0"/>
        <pt x="213" y="19" on="0"/>
        <pt x="280" y="19" on="1"/>
        <pt x="343" y="19" on="0"/>
        <pt x="398" y="81" on="0"/>
        <pt x="398" y="132" on="1"/>
        <pt x="398" y="170" on="0"/>
        <pt x="349" y="228" on="0"/>
        <pt x="276" y="276" on="0"/>
        <pt x="191" y="323" on="0"/>
        <pt x="118" y="378" on="0"/>
        <pt x="69" y="449" on="0"/>
        <pt x="69" y="498" on="1"/>
        <pt x="69" y="540" on="0"/>
        <pt x="102" y="615" on="0"/>
        <pt x="163" y="672" on="0"/>
        <pt x="252" y="706" on="0"/>
        <pt x="308" y="706" on="1"/>
        <pt x="336" y="706" on="0"/>
        <pt x="375" y="699" on="0"/>
        <pt x="410" y="690" on="0"/>
        <pt x="448" y="681" on="0"/>
        <pt x="475" y="678" on="1"/>
        <pt x="477" y="635" on="0"/>
        <pt x="483" y="553" on="0"/>
        <pt x="488" y="511" on="1"/>
        <pt x="489" y="508" on="0"/>
        <pt x="476" y="503" on="0"/>
        <pt x="471" y="503" on="1"/>
        <pt x="465" y="503" on="0"/>
        <pt x="453" y="506" on="0"/>
        <pt x="452" y="511" on="1"/>
        <pt x="416" y="665" on="0"/>
        <pt x="307" y="665" on="1"/>
        <pt x="255" y="665" on="0"/>
        <pt x="195" y="607" on="0"/>
        <pt x="195" y="561" on="1"/>
        <pt x="195" y="526" on="0"/>
        <pt x="243" y="472" on="0"/>
        <pt x="316" y="424" on="0"/>
        <pt x="401" y="377" on="0"/>
        <pt x="474" y="321" on="0"/>
        <pt x="522" y="249" on="0"/>
      </contour>
    </TTGlyph>
    <TTGlyph name="Scedilla.sc" xMin="54" yMin="-219" xMax="410" yMax="485">
      <component glyphName="scedilla.sc" x="0" y="0" flags="0x204"/>
    </TTGlyph>
    <TTGlyph name="Scommaaccent" xMin="52" yMin="-318" xMax="522" yMax="706">
      <component glyphName="commaaccent" x="171" y="-14" flags="0x4"/>
      <component glyphName="S" x="0" y="0" flags="0x4"/>
    </TTGlyph>
    <TTGlyph name="Scommaaccent.sc" xMin="54" yMin="-313" xMax="410" yMax="485">
      <component glyphName="commaaccent" x="114" y="-9" flags="0x4"/>
      <component glyphName="s.sc" x="0" y="0" flags="0x4"/>
    </TTGlyph>
    <TTGlyph name="Sigma" xMin="36" yMin="-11" xMax="659" yMax="695">
      <contour>
        <pt x="657" y="226" on="1"/>
        <pt x="652" y="202" on="0"/>
        <pt x="643" y="140" on="0"/>
        <pt x="634" y="76" on="0"/>
        <pt x="627" y="15" on="0"/>
        <pt x="625" y="-9" on="1"/>
        <pt x="611" y="-6" on="0"/>
        <pt x="565" y="-3" on="0"/>
        <pt x="496" y="-1" on="0"/>
        <pt x="402" y="0" on="0"/>
        <pt x="340" y="0" on="1"/>
        <pt x="221" y="0" on="0"/>
        <pt x="79" y="-3" on="0"/>
        <pt x="51" y="-9" on="1"/>
        <pt x="45" y="-11" on="0"/>
        <pt x="36" y="1" on="0"/>
        <pt x="36" y="9" on="1"/>
        <pt x="36" y="14" on="0"/>
        <pt x="39" y="16" on="1"/>
        <pt x="333" y="326" on="1"/>
        <pt x="53" y="669" on="1"/>
        <pt x="50" y="672" on="0"/>
        <pt x="50" y="676" on="1"/>
        <pt x="50" y="684" on="0"/>
        <pt x="59" y="695" on="0"/>
        <pt x="65" y="694" on="1"/>
        <pt x="94" y="688" on="0"/>
        <pt x="230" y="685" on="0"/>
        <pt x="351" y="685" on="1"/>
        <pt x="410" y="685" on="0"/>
        <pt x="497" y="686" on="0"/>
        <pt x="559" y="687" on="0"/>
        <pt x="599" y="691" on="0"/>
        <pt x="613" y="694" on="1"/>
        <pt x="619" y="649" on="0"/>
        <pt x="633" y="555" on="0"/>
        <pt x="644" y="508" on="1"/>
        <pt x="645" y="503" on="0"/>
        <pt x="633" y="495" on="0"/>
        <pt x="622" y="495" on="1"/>
        <pt x="610" y="495" on="0"/>
        <pt x="607" y="502" on="1"/>
        <pt x="598" y="533" on="0"/>
        <pt x="566" y="585" on="0"/>
        <pt x="519" y="623" on="0"/>
        <pt x="455" y="644" on="0"/>
        <pt x="415" y="644" on="1"/>
        <pt x="249" y="644" on="1"/>
        <pt x="458" y="386" on="1"/>
        <pt x="196" y="113" on="1"/>
        <pt x="441" y="113" on="1"/>
        <pt x="481" y="113" on="0"/>
        <pt x="542" y="125" on="0"/>
        <pt x="585" y="153" on="0"/>
        <pt x="613" y="199" on="0"/>
        <pt x="621" y="233" on="1"/>
        <pt x="622" y="239" on="0"/>
        <pt x="634" y="239" on="1"/>
        <pt x="645" y="239" on="0"/>
        <pt x="659" y="231" on="0"/>
      </contour>
    </TTGlyph>
    <TTGlyph name="T" xMin="6" yMin="-5" xMax="737" yMax="699">
      <contour>
        <pt x="736" y="491" on="1"/>
        <pt x="737" y="486" on="0"/>
        <pt x="725" y="479" on="0"/>
        <pt x="715" y="479" on="1"/>
        <pt x="710" y="479" on="0"/>
        <pt x="701" y="483" on="0"/>
        <pt x="700" y="485" on="1"/>
        <pt x="691" y="518" on="0"/>
        <pt x="657" y="576" on="0"/>
        <pt x="612" y="619" on="0"/>
        <pt x="558" y="644" on="0"/>
        <pt x="528" y="644" on="1"/>
        <pt x="497" y="644" on="1"/>
        <pt x="473" y="644" on="0"/>
        <pt x="454" y="626" on="0"/>
        <pt x="454" y="605" on="1"/>
        <pt x="454" y="115" on="1"/>
        <pt x="454" y="95" on="0"/>
        <pt x="461" y="66" on="0"/>
        <pt x="482" y="47" on="0"/>
        <pt x="521" y="34" on="0"/>
        <pt x="554" y="31" on="1"/>
        <pt x="557" y="30" on="0"/>
        <pt x="562" y="18" on="0"/>
        <pt x="562" y="13" on="1"/>
        <pt x="562" y="7" on="0"/>
        <pt x="557" y="-5" on="0"/>
        <pt x="554" y="-5" on="1"/>
        <pt x="504" y="-5" on="0"/>
        <pt x="426" y="0" on="0"/>
        <pt x="380" y="0" on="1"/>
        <pt x="333" y="0" on="0"/>
        <pt x="254" y="-5" on="0"/>
        <pt x="204" y="-5" on="1"/>
        <pt x="201" y="-5" on="0"/>
        <pt x="196" y="7" on="0"/>
        <pt x="196" y="13" on="1"/>
        <pt x="196" y="18" on="0"/>
        <pt x="201" y="30" on="0"/>
        <pt x="204" y="31" on="1"/>
        <pt x="237" y="34" on="0"/>
        <pt x="276" y="47" on="0"/>
        <pt x="297" y="66" on="0"/>
        <pt x="304" y="95" on="0"/>
        <pt x="304" y="115" on="1"/>
        <pt x="304" y="605" on="1"/>
        <pt x="304" y="628" on="0"/>
        <pt x="285" y="644" on="0"/>
        <pt x="261" y="644" on="1"/>
        <pt x="238" y="644" on="1"/>
        <pt x="211" y="644" on="0"/>
        <pt x="152" y="618" on="0"/>
        <pt x="98" y="574" on="0"/>
        <pt x="54" y="516" on="0"/>
        <pt x="44" y="485" on="1"/>
        <pt x="42" y="482" on="0"/>
        <pt x="34" y="479" on="0"/>
        <pt x="29" y="479" on="1"/>
        <pt x="21" y="479" on="0"/>
        <pt x="6" y="486" on="0"/>
        <pt x="8" y="491" on="1"/>
        <pt x="22" y="542" on="0"/>
        <pt x="44" y="649" on="0"/>
        <pt x="53" y="699" on="1"/>
        <pt x="83" y="693" on="0"/>
        <pt x="242" y="685" on="0"/>
        <pt x="380" y="685" on="1"/>
        <pt x="517" y="685" on="0"/>
        <pt x="683" y="693" on="0"/>
        <pt x="712" y="699" on="1"/>
        <pt x="716" y="651" on="0"/>
        <pt x="728" y="545" on="0"/>
      </contour>
    </TTGlyph>
    <TTGlyph name="T.sc" xMin="15" yMin="-5" xMax="538" yMax="476">
      <component glyphName="t.sc" x="0" y="0" flags="0x204"/>
    </TTGlyph>
    <TTGlyph name="Tcaron" xMin="6" yMin="-5" xMax="737" yMax="940">
      <component glyphName="caron.cap" x="191" y="0" flags="0x4"/>
      <component glyphName="T" x="0" y="0" flags="0x4"/>
    </TTGlyph>
    <TTGlyph name="Tcaron.sc" xMin="15" yMin="-5" xMax="538" yMax="723">
      <component glyphName="t.sc" x="0" y="0" flags="0x204"/>
      <component glyphName="caron" x="96" y="15" flags="0x4"/>
    </TTGlyph>
    <TTGlyph name="Tcommaaccent" xMin="6" yMin="-313" xMax="737" yMax="699">
      <component glyphName="commaaccent" x="263" y="-9" flags="0x4"/>
      <component glyphName="T" x="0" y="0" flags="0x4"/>
    </TTGlyph>
    <TTGlyph name="Tcommaaccent.sc" xMin="15" yMin="-308" xMax="538" yMax="476">
      <component glyphName="t.sc" x="0" y="0" flags="0x204"/>
      <component glyphName="commaaccent" x="167" y="-4" flags="0x4"/>
    </TTGlyph>
    <TTGlyph name="Thorn" xMin="46" yMin="-5" xMax="662" yMax="690">
      <contour>
        <pt x="662" y="350" on="1"/>
        <pt x="662" y="304" on="0"/>
        <pt x="622" y="230" on="0"/>
        <pt x="550" y="178" on="0"/>
        <pt x="452" y="150" on="0"/>
        <pt x="394" y="150" on="1"/>
        <pt x="364" y="150" on="0"/>
        <pt x="327" y="153" on="0"/>
        <pt x="304" y="156" on="1"/>
        <pt x="304" y="115" on="1"/>
        <pt x="304" y="95" on="0"/>
        <pt x="311" y="66" on="0"/>
        <pt x="332" y="47" on="0"/>
        <pt x="371" y="34" on="0"/>
        <pt x="404" y="31" on="1"/>
        <pt x="407" y="30" on="0"/>
        <pt x="412" y="18" on="0"/>
        <pt x="412" y="13" on="1"/>
        <pt x="412" y="7" on="0"/>
        <pt x="407" y="-5" on="0"/>
        <pt x="404" y="-5" on="1"/>
        <pt x="354" y="-5" on="0"/>
        <pt x="276" y="0" on="0"/>
        <pt x="229" y="0" on="1"/>
        <pt x="182" y="0" on="0"/>
        <pt x="104" y="-5" on="0"/>
        <pt x="54" y="-5" on="1"/>
        <pt x="51" y="-5" on="0"/>
        <pt x="46" y="7" on="0"/>
        <pt x="46" y="13" on="1"/>
        <pt x="46" y="18" on="0"/>
        <pt x="51" y="30" on="0"/>
        <pt x="54" y="31" on="1"/>
        <pt x="86" y="34" on="0"/>
        <pt x="126" y="47" on="0"/>
        <pt x="147" y="66" on="0"/>
        <pt x="154" y="95" on="0"/>
        <pt x="154" y="115" on="1"/>
        <pt x="154" y="569" on="1"/>
        <pt x="154" y="589" on="0"/>
        <pt x="147" y="618" on="0"/>
        <pt x="126" y="638" on="0"/>
        <pt x="86" y="650" on="0"/>
        <pt x="54" y="654" on="1"/>
        <pt x="51" y="655" on="0"/>
        <pt x="46" y="666" on="0"/>
        <pt x="46" y="672" on="1"/>
        <pt x="46" y="678" on="0"/>
        <pt x="51" y="690" on="0"/>
        <pt x="54" y="690" on="1"/>
        <pt x="104" y="690" on="0"/>
        <pt x="182" y="685" on="0"/>
        <pt x="229" y="685" on="1"/>
        <pt x="275" y="685" on="0"/>
        <pt x="354" y="690" on="0"/>
        <pt x="404" y="690" on="1"/>
        <pt x="407" y="690" on="0"/>
        <pt x="412" y="678" on="0"/>
        <pt x="412" y="672" on="1"/>
        <pt x="412" y="666" on="0"/>
        <pt x="407" y="655" on="0"/>
        <pt x="404" y="654" on="1"/>
        <pt x="371" y="650" on="0"/>
        <pt x="332" y="638" on="0"/>
        <pt x="311" y="618" on="0"/>
        <pt x="304" y="589" on="0"/>
        <pt x="304" y="569" on="1"/>
        <pt x="304" y="550" on="1"/>
        <pt x="334" y="553" on="0"/>
        <pt x="388" y="553" on="1"/>
        <pt x="530" y="553" on="0"/>
        <pt x="662" y="447" on="0"/>
      </contour>
      <contour>
        <pt x="503" y="358" on="1"/>
        <pt x="503" y="403" on="0"/>
        <pt x="482" y="463" on="0"/>
        <pt x="447" y="497" on="0"/>
        <pt x="403" y="511" on="0"/>
        <pt x="380" y="511" on="1"/>
        <pt x="353" y="511" on="0"/>
        <pt x="323" y="502" on="0"/>
        <pt x="308" y="485" on="0"/>
        <pt x="304" y="459" on="0"/>
        <pt x="304" y="441" on="1"/>
        <pt x="304" y="227" on="1"/>
        <pt x="304" y="204" on="0"/>
        <pt x="336" y="191" on="0"/>
        <pt x="361" y="191" on="1"/>
        <pt x="433" y="191" on="0"/>
        <pt x="503" y="277" on="0"/>
      </contour>
    </TTGlyph>
    <TTGlyph name="Thorn.sc" xMin="46" yMin="-5" xMax="515" yMax="469">
      <component glyphName="thorn.sc" x="0" y="0" flags="0x204"/>
    </TTGlyph>
    <TTGlyph name="U" xMin="12" yMin="-21" xMax="801" yMax="690">
      <contour>
        <pt x="801" y="672" on="1"/>
        <pt x="801" y="666" on="0"/>
        <pt x="796" y="654" on="0"/>
        <pt x="793" y="654" on="1"/>
        <pt x="760" y="650" on="0"/>
        <pt x="720" y="638" on="0"/>
        <pt x="698" y="619" on="0"/>
        <pt x="691" y="590" on="0"/>
        <pt x="691" y="569" on="1"/>
        <pt x="691" y="255" on="1"/>
        <pt x="691" y="198" on="0"/>
        <pt x="660" y="97" on="0"/>
        <pt x="597" y="22" on="0"/>
        <pt x="499" y="-21" on="0"/>
        <pt x="432" y="-21" on="1"/>
        <pt x="276" y="-21" on="0"/>
        <pt x="120" y="130" on="0"/>
        <pt x="120" y="263" on="1"/>
        <pt x="120" y="569" on="1"/>
        <pt x="120" y="589" on="0"/>
        <pt x="113" y="618" on="0"/>
        <pt x="92" y="638" on="0"/>
        <pt x="53" y="650" on="0"/>
        <pt x="20" y="654" on="1"/>
        <pt x="17" y="654" on="0"/>
        <pt x="12" y="666" on="0"/>
        <pt x="12" y="672" on="1"/>
        <pt x="12" y="677" on="0"/>
        <pt x="17" y="690" on="0"/>
        <pt x="20" y="690" on="1"/>
        <pt x="70" y="690" on="0"/>
        <pt x="148" y="685" on="0"/>
        <pt x="195" y="685" on="1"/>
        <pt x="242" y="685" on="0"/>
        <pt x="320" y="690" on="0"/>
        <pt x="370" y="690" on="1"/>
        <pt x="373" y="690" on="0"/>
        <pt x="378" y="677" on="0"/>
        <pt x="378" y="672" on="1"/>
        <pt x="378" y="666" on="0"/>
        <pt x="373" y="654" on="0"/>
        <pt x="370" y="654" on="1"/>
        <pt x="337" y="650" on="0"/>
        <pt x="298" y="638" on="0"/>
        <pt x="277" y="618" on="0"/>
        <pt x="270" y="589" on="0"/>
        <pt x="270" y="569" on="1"/>
        <pt x="270" y="253" on="1"/>
        <pt x="270" y="192" on="0"/>
        <pt x="294" y="109" on="0"/>
        <pt x="340" y="58" on="0"/>
        <pt x="410" y="35" on="0"/>
        <pt x="456" y="35" on="1"/>
        <pt x="547" y="35" on="0"/>
        <pt x="642" y="151" on="0"/>
        <pt x="642" y="265" on="1"/>
        <pt x="642" y="569" on="1"/>
        <pt x="642" y="589" on="0"/>
        <pt x="634" y="618" on="0"/>
        <pt x="612" y="638" on="0"/>
        <pt x="572" y="650" on="0"/>
        <pt x="540" y="654" on="1"/>
        <pt x="537" y="654" on="0"/>
        <pt x="532" y="666" on="0"/>
        <pt x="532" y="672" on="1"/>
        <pt x="532" y="677" on="0"/>
        <pt x="537" y="690" on="0"/>
        <pt x="540" y="690" on="1"/>
        <pt x="575" y="690" on="0"/>
        <pt x="631" y="685" on="0"/>
        <pt x="667" y="685" on="1"/>
        <pt x="685" y="685" on="0"/>
        <pt x="715" y="687" on="0"/>
        <pt x="744" y="688" on="0"/>
        <pt x="774" y="690" on="0"/>
        <pt x="793" y="690" on="1"/>
        <pt x="796" y="690" on="0"/>
        <pt x="801" y="677" on="0"/>
      </contour>
    </TTGlyph>
    <TTGlyph name="U.sc" xMin="24" yMin="-18" xMax="596" yMax="469">
      <component glyphName="u.sc" x="0" y="0" flags="0x204"/>
    </TTGlyph>
    <TTGlyph name="Uacute" xMin="12" yMin="-21" xMax="801" yMax="948">
      <component glyphName="acute.cap" x="292" y="0" flags="0x4"/>
      <component glyphName="U" x="0" y="0" flags="0x4"/>
    </TTGlyph>
    <TTGlyph name="Uacute.sc" xMin="24" yMin="-18" xMax="596" yMax="726">
      <component glyphName="acute" x="199" y="15" flags="0x4"/>
      <component glyphName="u.sc" x="0" y="0" flags="0x4"/>
    </TTGlyph>
    <TTGlyph name="Ubreve" xMin="12" yMin="-21" xMax="801" yMax="932">
      <component glyphName="breve.cap" x="248" y="0" flags="0x4"/>
      <component glyphName="U" x="0" y="0" flags="0x4"/>
    </TTGlyph>
    <TTGlyph name="Ubreve.sc" xMin="24" yMin="-18" xMax="596" yMax="705">
      <component glyphName="u.sc" x="0" y="0" flags="0x204"/>
      <component glyphName="breve" x="138" y="15" flags="0x4"/>
    </TTGlyph>
</ttFont>
